<svg width="197" height="84" viewBox="0 0 197 84" version="1.1" xmlns="http://www.w3.org/2000/svg" xmlns:xlink="http://www.w3.org/1999/xlink">
<title>Astarte Logos</title>
<desc>Created using Figma</desc>
<g id="Canvas" transform="translate(1606 486)">
<g id="Astarte Logos">
<g id="Vector">
<use xlink:href="#path0_fill" transform="translate(-1605.01 -455.375)" fill="#2F366A"/>
</g>
<g id="Vector">
<use xlink:href="#path1_fill" transform="translate(-1569.88 -446.383)" fill="#2F366A"/>
</g>
<g id="Vector">
<use xlink:href="#path2_fill" transform="translate(-1548.33 -453.95)" fill="#2F366A"/>
</g>
<g id="Vector">
<use xlink:href="#path3_fill" transform="translate(-1527.71 -446.383)" fill="#2F366A"/>
</g>
<g id="Vector">
<use xlink:href="#path4_fill" transform="translate(-1498.9 -446.261)" fill="#2F366A"/>
</g>
<g id="Vector">
<use xlink:href="#path5_fill" transform="translate(-1483.28 -453.95)" fill="#2F366A"/>
</g>
<g id="Vector">
<use xlink:href="#path6_fill" transform="translate(-1462.27 -446.383)" fill="#2F366A"/>
</g>
<g id="Vector">
<use xlink:href="#path7_fill" transform="matrix(0.706425 0.707774 -0.706425 0.707774 -1410.93 -485.833)" fill="#282C56"/>
</g>
<g id="Vector">
<use xlink:href="#path8_fill" transform="matrix(0.706425 0.707774 -0.706425 0.707774 -1430.7 -477.017)" fill="#4979BB"/>
</g>
<g id="Vector">
<use xlink:href="#path9_fill" transform="matrix(0.706425 0.707774 -0.706425 0.707774 -1454.14 -464.861)" fill="#85C3E3"/>
</g>
<g id="Vector">
<use xlink:href="#path10_fill" transform="translate(-1604.25 -411.595)" fill="#767A7D"/>
</g>
<g id="Vector">
<use xlink:href="#path11_fill" transform="translate(-1593.62 -411.503)" fill="#767A7D"/>
</g>
<g id="Vector">
<use xlink:href="#path12_fill" transform="translate(-1581.23 -411.467)" fill="#767A7D"/>
</g>
<g id="Vector">
<use xlink:href="#path13_fill" transform="translate(-1570.27 -411.467)" fill="#767A7D"/>
</g>
<g id="Vector">
<use xlink:href="#path14_fill" transform="translate(-1564.62 -411.467)" fill="#767A7D"/>
</g>
<g id="Vector">
<use xlink:href="#path15_fill" transform="translate(-1554.48 -411.503)" fill="#767A7D"/>
</g>
<g id="Vector">
<use xlink:href="#path16_fill" transform="translate(-1542.08 -411.467)" fill="#767A7D"/>
</g>
<g id="Vector">
<use xlink:href="#path17_fill" transform="translate(-1525.08 -411.467)" fill="#767A7D"/>
</g>
<g id="Vector">
<use xlink:href="#path18_fill" transform="translate(-1515.38 -411.503)" fill="#767A7D"/>
</g>
<g id="Vector">
<use xlink:href="#path19_fill" transform="translate(-1502.98 -411.467)" fill="#767A7D"/>
</g>
<g id="Vector">
<use xlink:href="#path20_fill" transform="translate(-1493.1 -411.467)" fill="#767A7D"/>
</g>
<g id="Vector">
<use xlink:href="#path21_fill" transform="translate(-1481.7 -411.466)" fill="#767A7D"/>
</g>
<g id="Vector">
<use xlink:href="#path22_fill" transform="translate(-1469.06 -411.467)" fill="#767A7D"/>
</g>
<g id="Vector">
<use xlink:href="#path23_fill" transform="translate(-1458.51 -411.467)" fill="#767A7D"/>
</g>
<g id="Vector">
<use xlink:href="#path24_fill" transform="translate(-1448.02 -411.594)" fill="#767A7D"/>
</g>
</g>
</g>
<defs>
<path id="path0_fill" d="M 3.00496e-07 35.528L 13.2177 1.09675e-06L 17.5584 1.09675e-06L 30.8011 35.528L 25.7737 35.528L 23.3704 28.5993L 7.5531 28.5993L 5.12519 35.528L 3.00496e-07 35.528ZM 8.73013 25.0858L 22.2422 25.0858L 15.5229 5.6508L 8.73013 25.0858Z"/>
<path id="path1_fill" d="M 8.85286 23.5376C 12.3351 23.5376 14.0762 22.2357 14.0762 19.6309C 14.0762 18.5009 13.9207 17.6616 13.6102 17.1131C 13.2993 16.5641 12.5717 16.0772 11.4278 15.6509L 5.24792 13.3663C 3.35103 12.6951 2.03087 11.896 1.28745 10.9704C 0.543324 10.0452 0.171614 8.88631 0.171614 7.49423C 0.171614 6.10214 0.310169 4.98382 0.588689 4.13997C 0.866154 3.29648 1.32438 2.55515 1.96195 1.91637C 3.23709 0.638789 5.52539 2.02147e-06 8.82824 2.02147e-06C 12.1304 2.02147e-06 14.975 0.475303 17.3625 1.42485L 16.3078 4.96303C 15.474 4.61915 14.3782 4.29571 13.0219 3.9927C 11.6644 3.68968 10.4793 3.53783 9.46581 3.53783C 7.12758 3.53783 5.64812 3.91483 5.02708 4.66812C 4.65079 5.14343 4.46335 5.83965 4.46335 6.75678C 4.46335 7.67427 4.61387 8.32539 4.917 8.7098C 5.21908 9.09561 5.812 9.44301 6.69468 9.75448L 12.801 12.1624C 14.9261 12.9974 16.3237 13.9188 16.9946 14.9264C 17.6646 15.9334 18.0001 17.5182 18.0001 19.6809C 18.0001 21.8428 17.3048 23.6162 15.9154 25.0001C 14.5256 26.3845 12.3755 27.0765 9.46581 27.0765C 7.34034 27.0765 5.45189 26.8471 3.80116 26.3887C 2.14938 25.93 0.882684 25.455 8.15633e-07 24.9638L 1.12814 21.5729C 3.46567 22.8829 6.04093 23.5376 8.85286 23.5376Z"/>
<path id="path2_fill" d="M 14.616 34.2997C 10.9864 34.2997 8.36615 33.7265 6.75622 32.58C 5.14559 31.4335 4.34062 29.4597 4.34062 26.6586L 4.34062 11.5479L 0 11.5479L 0 8.05903L 4.51259 8.05903L 5.07631 6.4515e-07L 8.95097 6.4515e-07L 8.95097 8.05903L 15.4744 8.05903L 15.4744 11.5479L 8.95097 11.5479L 8.95097 26.3637C 8.95097 28.0014 9.4208 29.0869 10.3612 29.6193C 11.3008 30.1517 12.9399 30.4177 15.2782 30.4177L 15.793 30.4177L 15.3028 34.2997L 14.616 34.2997Z"/>
<path id="path3_fill" d="M 8.3134 27.0761C 5.68082 27.0761 3.63729 26.3595 2.1828 24.9258C 0.727248 23.4932 1.33077e-06 21.7114 1.33077e-06 19.5819C 1.33077e-06 18.3702 0.253202 17.3625 0.760306 16.5595C 1.79034 14.9222 4.86355 13.3575 9.98101 11.8671C 12.9396 11.0483 14.6441 10.3439 15.0942 9.75412C 15.5433 9.16431 15.793 8.70204 15.8419 8.36591C 15.8911 8.03048 15.9157 7.49387 15.9157 6.75678C 15.9157 6.01969 15.6168 5.29916 15.0204 4.59484C 14.4233 3.89052 13.1277 3.53818 11.1338 3.53818C 8.32113 3.53818 6.59692 4.07866 5.95934 5.15999C 5.63194 5.71703 5.46877 6.47033 5.46877 7.42024L 5.46877 8.57485L 1.03003 8.57485L 1.03003 7.39557C 1.03003 4.85662 1.87614 2.98959 3.56836 1.7934C 5.26023 0.597918 7.78977 2.02147e-06 11.158 2.02147e-06C 14.5256 2.02147e-06 16.9289 0.765981 18.3679 2.29724C 19.8062 3.82885 20.5261 6.01159 20.5261 8.84509L 20.5261 19.9508C 20.5261 21.3105 20.6973 22.1909 21.0409 22.5919C 21.3841 22.9939 22.1195 23.1941 23.2476 23.1941L 22.7085 26.7319L 21.7766 26.7319C 20.1414 26.7319 18.9235 26.4169 18.1228 25.7862C 17.3213 25.1555 16.708 24.1767 16.2836 22.8498C 14.9261 24.8814 13.2916 26.159 11.3789 26.6829C 10.4631 26.9447 9.44155 27.0761 8.3134 27.0761ZM 10.6312 15.0244C 8.30145 15.7044 6.69081 16.3802 5.80004 17.0514C 4.90892 17.7233 4.46371 18.669 4.46371 19.8891C 4.46371 21.1096 4.87621 22.031 5.70193 22.6532C 6.52729 23.2765 7.52461 23.5869 8.6939 23.5869C 9.86249 23.5869 10.921 23.4358 11.8698 23.1324C 12.8175 22.8297 13.6721 22.3791 14.4324 21.7812C 15.1927 21.1836 15.6868 20.4997 15.9161 19.7295L 15.9161 12.211C 14.7222 13.4072 12.961 14.3444 10.6312 15.0244Z"/>
<path id="path4_fill" d="M 2.40397e-06 26.4136L 2.40397e-06 0.36951L 4.61035 0.36951L 4.61035 4.05496C 5.19904 2.45006 6.7928 1.287 9.39232 0.566115C 10.749 0.172905 12.1634 -0.0152443 13.6345 0.000963208L 13.4875 3.95666C 11.2639 3.95666 9.22844 4.39884 7.38148 5.28356C 5.53347 6.16793 4.61035 7.13475 4.61035 8.1826L 4.61035 26.4136L 2.40397e-06 26.4136Z"/>
<path id="path5_fill" d="M 14.6156 34.2997C 10.9864 34.2997 8.36615 33.7265 6.75587 32.58C 5.14524 31.4335 4.34027 29.4597 4.34027 26.6586L 4.34027 11.5479L 4.46452e-06 11.5479L 4.46452e-06 8.05903L 4.51224 8.05903L 5.07596 6.4515e-07L 8.95097 6.4515e-07L 8.95097 8.05903L 15.4744 8.05903L 15.4744 11.5479L 8.95097 11.5479L 8.95097 26.3637C 8.95097 28.0014 9.4208 29.0869 10.3612 29.6193C 11.3008 30.1517 12.9399 30.4177 15.2778 30.4177L 15.793 30.4177L 15.3024 34.2997L 14.6156 34.2997Z"/>
<path id="path6_fill" d="M 10.8152 27.0761C 7.00555 27.0761 4.25059 26.2819 2.55063 24.6929C 0.849623 23.1042 -5.15137e-07 20.6555 -5.15137e-07 17.3463L -5.15137e-07 8.27994C -5.15137e-07 5.70858 0.874247 3.68545 2.62449 2.21127C 4.37333 0.737091 7.01716 -4.7311e-07 10.5577 -4.7311e-07C 14.0962 -4.7311e-07 16.7288 0.683887 18.4541 2.05166C 20.1783 3.41944 21.0409 5.3728 21.0409 7.91139L 21.0409 14.103L 4.61035 14.103L 4.61035 17.7642C 4.61035 19.9261 5.04325 21.4292 5.91011 22.2727C 6.77626 23.1169 8.33801 23.5379 10.5936 23.5379C 12.8499 23.5379 14.125 23.489 14.4197 23.3907C 14.7137 23.2927 15.0155 23.1778 15.3267 23.0464C 15.6372 22.9157 15.8538 22.76 15.9769 22.5796C 16.0993 22.3999 16.2625 22.1251 16.4671 21.7565C 16.6711 21.388 16.8234 20.6717 16.9211 19.6069L 20.9917 19.6069C 20.8278 21.1632 20.5542 22.4161 20.1702 23.366C 19.7858 24.3159 19.1806 25.0734 18.3556 25.6382C 17.5295 26.2034 16.541 26.5846 15.3882 26.7809C 14.2358 26.9782 12.7106 27.0761 10.8152 27.0761ZM 4.61035 10.9827L 16.5776 10.9827L 16.5776 7.42023C 16.5776 5.94605 16.075 4.93097 15.0696 4.37392C 14.0638 3.81688 12.5883 3.53853 10.6432 3.53853C 8.69707 3.53853 7.20529 3.87431 6.16717 4.54587C 5.12905 5.21742 4.61 6.32306 4.61 7.86312L 4.61 10.9827L 4.61035 10.9827Z"/>
<path id="path7_fill" d="M 2.09441 0L -8.76569e-06 0L -8.76569e-06 46.8015L 2.09441 46.8015L 2.09441 0Z"/>
<path id="path8_fill" d="M 2.09441 0L 4.64066e-06 0L 4.64066e-06 34.3509L 2.09441 34.3509L 2.09441 0Z"/>
<path id="path9_fill" d="M 2.09441 0L 3.69534e-06 0L 3.69534e-06 17.1756L 2.09441 17.1756L 2.09441 0Z"/>
<path id="path10_fill" d="M 4.24462 0.558103C 3.13616 0.558103 2.26368 0.913964 1.62681 1.62428C 0.98959 2.3353 0.671332 3.30845 0.671332 4.54445C 0.671332 5.80864 0.971655 6.78991 1.57195 7.48824C 2.17295 8.18693 3.03137 8.53644 4.14826 8.53644C 4.88957 8.53644 5.57075 8.44131 6.1918 8.2514L 6.1918 8.79717C 5.60733 9.00293 4.87726 9.10582 4.00267 9.10582C 2.76129 9.10582 1.78365 8.7038 1.07047 7.90012C 0.356942 7.09679 3.27326e-07 5.97354 3.27326e-07 4.53177C 3.27326e-07 3.63119 0.170558 2.83773 0.510972 2.15102C 0.851385 1.46467 1.34161 0.934398 1.98023 0.56092C 2.61921 0.18709 3.36193 -2.5806e-07 4.2084 -2.5806e-07C 5.07103 -2.5806e-07 5.84329 0.161725 6.52412 0.484819L 6.27619 1.04222C 5.63124 0.719476 4.95428 0.558103 4.24462 0.558103Z"/>
<path id="path11_fill" d="M 5.50851 5.76742L 1.91693 5.76742L 0.68364 8.89336L -4.82941e-07 8.89336L 3.5557 -2.19351e-06L 3.94851 -2.19351e-06L 7.43142 8.89336L 6.73582 8.89336L 5.50851 5.76742ZM 2.1406 5.21002L 5.30278 5.21002L 4.09973 2.01749C 3.99915 1.76733 3.87818 1.41992 3.73716 0.975626C 3.62779 1.3632 3.50893 1.71447 3.38022 2.02982L 2.1406 5.21002Z"/>
<path id="path12_fill" d="M 5.32072 2.54423C 5.32072 3.40041 5.03059 4.05682 4.45034 4.5131C 3.86974 4.96937 3.04754 5.19769 1.98305 5.19769L 0.616823 5.19769L 0.616823 8.85672L 8.58561e-08 8.85672L 8.58561e-08 -8.1719e-07L 2.16451 -8.1719e-07C 4.26888 -8.1719e-07 5.32072 0.848079 5.32072 2.54423ZM 0.616823 4.6646L 1.83183 4.6646C 2.82775 4.6646 3.54726 4.49971 3.99071 4.17062C 4.43417 3.84154 4.65571 3.3074 4.65571 2.56855C 4.65571 1.88571 4.44612 1.38011 4.02729 1.05067C 3.60775 0.721591 2.95892 0.557398 2.08011 0.557398L 0.616823 0.557398L 0.616823 4.6646Z"/>
<path id="path13_fill" d="M 0.616824 0L 0 0L 0 8.85672L 0.616824 8.85672L 0.616824 0Z"/>
<path id="path14_fill" d="M 3.49486 8.85672L 2.87206 8.85672L 2.87206 0.581709L 2.4469e-06 0.581709L 2.4469e-06 -8.1719e-07L 6.36693 -8.1719e-07L 6.36693 0.581709L 3.49486 0.581709L 3.49486 8.85672Z"/>
<path id="path15_fill" d="M 5.50851 5.76742L 1.91659 5.76742L 0.682935 8.89336L -1.71712e-06 8.89336L 3.555 -2.19351e-06L 3.94852 -2.19351e-06L 7.43107 8.89336L 6.73582 8.89336L 5.50851 5.76742ZM 2.1406 5.21002L 5.30278 5.21002L 4.09973 2.01749C 3.9988 1.76733 3.87748 1.41992 3.73681 0.975626C 3.62779 1.3632 3.50893 1.71447 3.37987 2.02982L 2.1406 5.21002Z"/>
<path id="path16_fill" d="M -2.48983e-06 8.85672L -2.48983e-06 -8.1719e-07L 0.616471 -8.1719e-07L 0.616471 8.27536L 4.8312 8.27536L 4.8312 8.85672L -2.48983e-06 8.85672Z"/>
<path id="path17_fill" d="M 5.32071 2.54423C 5.32071 3.40041 5.03059 4.05682 4.45034 4.5131C 3.86974 4.96937 3.04754 5.19769 1.98305 5.19769L 0.616823 5.19769L 0.616823 8.85672L 8.15633e-07 8.85672L 8.15633e-07 -8.1719e-07L 2.1645 -8.1719e-07C 4.26888 -8.1719e-07 5.32071 0.848079 5.32071 2.54423ZM 0.616823 4.6646L 1.83183 4.6646C 2.82775 4.6646 3.54727 4.49971 3.99072 4.17062C 4.43417 3.84119 4.65572 3.3074 4.65572 2.56855C 4.65572 1.88571 4.44613 1.38011 4.02729 1.05067C 3.60775 0.721591 2.95892 0.557398 2.08011 0.557398L 0.616823 0.557398L 0.616823 4.6646Z"/>
<path id="path18_fill" d="M 5.5085 5.76742L 1.91658 5.76742L 0.682937 8.89336L 5.06551e-06 8.89336L 3.555 -2.19351e-06L 3.94852 -2.19351e-06L 7.43107 8.89336L 6.73583 8.89336L 5.5085 5.76742ZM 2.14059 5.21002L 5.30278 5.21002L 4.09973 2.01749C 3.9988 1.76733 3.87783 1.41992 3.73681 0.975626C 3.62779 1.3632 3.50893 1.71447 3.37987 2.02982L 2.14059 5.21002Z"/>
<path id="path19_fill" d="M 0.616473 4.99756L 0.616473 8.85672L 4.29281e-06 8.85672L 4.29281e-06 -8.1719e-07L 2.10437 -8.1719e-07C 3.20016 -8.1719e-07 4.01076 0.202948 4.53439 0.608489C 5.05837 1.01438 5.32037 1.62569 5.32037 2.441C 5.32037 3.03539 5.16423 3.53571 4.85159 3.94407C 4.53931 4.35137 4.06491 4.64417 3.42769 4.8221L 5.82852 8.85672L 5.09037 8.85672L 2.81122 4.99756L 0.616473 4.99756ZM 0.616473 4.46447L 2.30377 4.46447C 3.0493 4.46447 3.62815 4.29817 4.0396 3.9645C 4.4507 3.63155 4.65607 3.14004 4.65607 2.48962C 4.65607 1.81525 4.45421 1.32409 4.05085 1.0172C 3.64784 0.710315 2.99057 0.557049 2.08011 0.557049L 0.616473 0.557049L 0.616473 4.46447Z"/>
<path id="path20_fill" d="M 3.49487 8.85672L 2.87241 8.85672L 2.87241 0.581709L -1.80298e-06 0.581709L -1.80298e-06 -8.1719e-07L 6.36693 -8.1719e-07L 6.36693 0.581709L 3.49487 0.581709L 3.49487 8.85672Z"/>
<path id="path21_fill" d="M 6.42776 8.85637L 5.80496 8.85637L 0.568297 0.993242L 0.519766 0.993242C 0.568296 1.93011 0.592562 2.63689 0.592562 3.11361L 0.592562 8.85672L 4.29281e-06 8.85672L 4.29281e-06 1.67739e-06L 0.616827 1.67739e-06L 5.84646 7.85079L 5.88303 7.85079C 5.84645 7.12427 5.82887 6.43334 5.82887 5.77904L 5.82887 1.67739e-06L 6.42741 1.67739e-06L 6.42741 8.85637L 6.42776 8.85637Z"/>
<path id="path22_fill" d="M 4.83085 8.85672L 1.28784e-06 8.85672L 1.28784e-06 -8.1719e-07L 4.83085 -8.1719e-07L 4.83085 0.569027L 0.61647 0.569027L 0.61647 3.91941L 4.59522 3.91941L 4.59522 4.48879L 0.61647 4.48879L 0.61647 8.28734L 4.83085 8.28734L 4.83085 8.85672Z"/>
<path id="path23_fill" d="M 0.616823 4.99756L 0.616823 8.85672L 3.43424e-07 8.85672L 3.43424e-07 -8.1719e-07L 2.10402 -8.1719e-07C 3.20087 -8.1719e-07 4.01076 0.202948 4.53474 0.608489C 5.05837 1.01438 5.32036 1.62569 5.32036 2.441C 5.32036 3.03539 5.16458 3.53571 4.85194 3.94407C 4.53931 4.35137 4.06526 4.64417 3.42804 4.8221L 5.82853 8.85672L 5.09073 8.85672L 2.81122 4.99756L 0.616823 4.99756ZM 0.616823 4.46447L 2.30377 4.46447C 3.04965 4.46447 3.62814 4.29817 4.03924 3.9645C 4.45069 3.63155 4.65606 3.14004 4.65606 2.48962C 4.65606 1.81525 4.45456 1.32409 4.05155 1.0172C 3.64819 0.710315 2.99092 0.557049 2.08046 0.557049L 0.617177 0.557049L 0.617177 4.46447L 0.616823 4.46447Z"/>
<path id="path24_fill" d="M 5.45928 6.70041C 5.45928 7.43961 5.18814 8.02555 4.64622 8.45717C 4.10395 8.88984 3.38303 9.10547 2.48452 9.10547C 1.4042 9.10547 0.576029 8.98638 -9.44417e-07 8.74785L -9.44417e-07 8.12985C 0.636867 8.40079 1.44852 8.53609 2.4367 8.53609C 3.16184 8.53609 3.73787 8.36908 4.16268 8.03577C 4.5882 7.70281 4.80025 7.26521 4.80025 6.72437C 4.80025 6.38895 4.72957 6.1113 4.58855 5.89144C 4.44753 5.67123 4.21753 5.4704 3.89963 5.28859C 3.58067 5.10678 3.11366 4.91124 2.49683 4.70089C 1.59375 4.38978 0.969901 4.05365 0.625268 3.6925C 0.280986 3.33135 0.108317 2.84901 0.108317 2.24721C 0.108317 1.58517 0.36749 1.04504 0.885144 0.626811C 1.40315 0.208586 2.06921 -6.4515e-07 2.88367 -6.4515e-07C 3.71396 -6.4515e-07 4.49395 0.157496 5.2233 0.472486L 5 1.00592C 4.26607 0.699036 3.56485 0.545065 2.89563 0.545065C 2.24293 0.545065 1.72282 0.696926 1.33563 0.999584C 0.948446 1.30259 0.755383 1.71413 0.755383 2.23523C 0.755383 2.56291 0.814459 2.83103 0.933674 3.04103C 1.05254 3.25137 1.24736 3.43988 1.51709 3.60724C 1.78787 3.77495 2.25067 3.97613 2.90794 4.21009C 3.5972 4.44827 4.11486 4.67975 4.4616 4.90384C 4.80869 5.12792 5.06119 5.38231 5.22049 5.667C 5.38015 5.9524 5.45928 6.29628 5.45928 6.70041Z"/>
</defs>
</svg>
