<?xml version="1.0" encoding="utf-8"?>
<!-- Generator: Adobe Illustrator 17.0.0, SVG Export Plug-In . SVG Version: 6.00 Build 0)  -->
<!DOCTYPE svg PUBLIC "-//W3C//DTD SVG 1.1//EN" "http://www.w3.org/Graphics/SVG/1.1/DTD/svg11.dtd">
<svg version="1.1" id="Layer_1" xmlns="http://www.w3.org/2000/svg" xmlns:xlink="http://www.w3.org/1999/xlink" x="0px" y="0px"
	 width="214px" height="32px" viewBox="0 0 214 32" enable-background="new 0 0 214 32" xml:space="preserve">
<text transform="matrix(1 0 0 1 -1471.3639 518.201)" font-family="'TimesNewRomanPS-BoldMT'" font-size="143.1446">121 Advisor</text>
<text transform="matrix(1 0 0 1 -1508.0986 -284.8806)" font-family="'AvenirNextLTPro-Regular'" font-size="143.1446">121 </text>
<text transform="matrix(1 0 0 1 -1223.2466 -284.8806)" font-family="'AvenirNextLTPro-Bold'" font-size="143.1446">Advisor</text>
<text transform="matrix(1 0 0 1 -1508.0986 -62.4316)" fill="#50B849" font-family="'AvenirNextLTPro-Regular'" font-size="143.1446">121</text>
<text transform="matrix(1 0 0 1 -1259.0327 -62.4316)" font-family="'AvenirNextLTPro-Regular'" font-size="143.1446"> </text>
<text transform="matrix(1 0 0 1 -1223.2466 -62.4316)" font-family="'AvenirNextLTPro-Bold'" font-size="143.1446">Advisor</text>
<g>
	<text transform="matrix(1 0 0 1 -1508.0986 129.4051)" fill="#50B849" font-family="'AvenirNextLTPro-Bold'" font-size="143.1446">121</text>
	<text transform="matrix(1 0 0 1 -1230.6857 129.4051)" font-family="'AvenirNextLTPro-Bold'" font-size="143.1446"> Advisor</text>
</g>
<g>
	<text transform="matrix(1 0 0 1 -1508.0986 296.752)" fill="#50B849" font-family="'AvenirNextLTPro-Bold'" font-size="143.1446">121</text>
	<text transform="matrix(1 0 0 1 -1230.6857 296.752)" font-family="'AvenirNextLTPro-Bold'" font-size="143.1446"> Advisor</text>
</g>
<image overflow="visible" enable-background="new    " width="2480" height="3508" xlink:href="121-Logo.jpg"  transform="matrix(0.24 0 0 0.24 -8183.6001 -8216.96)">
</image>
<g>
	<g>
		<path fill="#8CBE00" d="M11.271,0.084V23.58c0,1.766,0.078,2.892,0.233,3.379c0.155,0.487,0.48,0.887,0.975,1.197
			c0.494,0.311,1.285,0.466,2.373,0.466h0.657v0.784H0.382v-0.784h0.763c1.229,0,2.105-0.141,2.627-0.424
			c0.522-0.282,0.876-0.671,1.059-1.165c0.184-0.494,0.275-1.645,0.275-3.454V8.686c0-1.327-0.063-2.157-0.191-2.489
			C4.788,5.865,4.551,5.583,4.205,5.35S3.46,5,3.008,5c-0.72,0-1.596,0.226-2.627,0.678L0,4.915l10.572-4.831
			C10.572,0.084,11.271,0.084,11.271,0.084z"/>
		<path fill="#8CBE00" d="M36.801,29.406H19.894V28.94c5.183-6.172,8.33-10.325,9.439-12.457c1.109-2.133,1.663-4.216,1.663-6.25
			c0-1.483-0.459-2.715-1.377-3.697c-0.918-0.981-2.041-1.472-3.369-1.472c-2.175,0-3.863,1.088-5.064,3.263l-0.784-0.275
			c0.763-2.712,1.921-4.717,3.474-6.017c1.554-1.299,3.347-1.949,5.381-1.949c1.455,0,2.782,0.339,3.983,1.017
			c1.2,0.678,2.14,1.607,2.818,2.786s1.017,2.285,1.017,3.316c0,1.879-0.523,3.785-1.568,5.72
			c-1.427,2.613-4.541,6.257-9.343,10.932h6.208c1.526,0,2.518-0.064,2.977-0.191s0.837-0.342,1.133-0.646s0.685-0.943,1.165-1.918
			h0.763L36.801,29.406z"/>
		<path fill="#8CBE00" d="M54.661,0.084V23.58c0,1.766,0.078,2.892,0.233,3.379c0.155,0.487,0.48,0.887,0.975,1.197
			c0.494,0.311,1.285,0.466,2.373,0.466h0.657v0.784H43.772v-0.784h0.763c1.229,0,2.105-0.141,2.627-0.424
			c0.522-0.282,0.876-0.671,1.059-1.165c0.184-0.494,0.275-1.645,0.275-3.454V8.686c0-1.327-0.063-2.157-0.191-2.489
			c-0.127-0.332-0.364-0.614-0.71-0.847S46.85,5,46.398,5c-0.72,0-1.596,0.226-2.627,0.678L43.39,4.915l10.572-4.831
			C53.962,0.084,54.661,0.084,54.661,0.084z"/>
	</g>
	<g>
		<path fill="#FFFFFF" d="M81.729,21.228H71.581l-1.208,2.796c-0.396,0.932-0.593,1.702-0.593,2.31c0,0.805,0.325,1.398,0.974,1.78
			c0.381,0.226,1.321,0.395,2.818,0.509v0.784h-9.555v-0.784c1.031-0.155,1.878-0.583,2.542-1.282s1.483-2.143,2.458-4.332
			L79.293,0.085h0.402l10.36,23.559c0.989,2.232,1.801,3.637,2.436,4.216c0.48,0.438,1.158,0.692,2.034,0.763v0.784H80.627v-0.784
			h0.572c1.116,0,1.899-0.155,2.352-0.466c0.311-0.226,0.466-0.551,0.466-0.974c0-0.254-0.042-0.516-0.127-0.784
			c-0.028-0.127-0.24-0.657-0.636-1.589L81.729,21.228z M81.009,19.66l-4.28-9.894l-4.407,9.894H81.009z"/>
		<path fill="#FFFFFF" d="M115.733,0.678v22.797c0,1.54,0.043,2.45,0.127,2.733c0.113,0.466,0.328,0.813,0.646,1.038
			c0.318,0.226,0.872,0.368,1.663,0.424v0.699L109.8,30v-3.136c-1.003,1.215-1.896,2.041-2.68,2.479S105.45,30,104.461,30
			c-2.528,0-4.527-1.13-5.996-3.39c-1.187-1.836-1.78-4.089-1.78-6.758c0-2.133,0.367-4.043,1.102-5.731
			c0.734-1.688,1.741-2.962,3.019-3.824c1.278-0.861,2.652-1.292,4.121-1.292c0.946,0,1.787,0.184,2.521,0.551
			s1.518,1.01,2.352,1.928V5.509c0-1.511-0.064-2.422-0.191-2.733c-0.17-0.409-0.424-0.713-0.763-0.911s-0.974-0.297-1.907-0.297
			v-0.89C106.939,0.678,115.733,0.678,115.733,0.678z M109.801,14.11c-1.045-2.005-2.323-3.009-3.835-3.009
			c-0.523,0-0.953,0.141-1.292,0.424c-0.523,0.438-0.95,1.208-1.282,2.309c-0.332,1.102-0.498,2.79-0.498,5.063
			c0,2.5,0.183,4.351,0.551,5.551c0.367,1.201,0.868,2.069,1.504,2.606c0.325,0.268,0.77,0.403,1.335,0.403
			c1.243,0,2.415-0.974,3.517-2.924V14.11L109.801,14.11z"/>
		<path fill="#FFFFFF" d="M129.547,30l-6.674-15.36c-0.805-1.85-1.434-3.022-1.886-3.517c-0.325-0.367-0.805-0.614-1.441-0.742
			V9.597h10.53v0.784c-0.664,0-1.116,0.12-1.356,0.36c-0.339,0.311-0.509,0.678-0.509,1.102c0,0.523,0.311,1.504,0.932,2.945
			l3.263,7.436l2.606-6.42c0.748-1.836,1.123-3.136,1.123-3.898c0-0.438-0.159-0.795-0.477-1.07
			c-0.318-0.275-0.879-0.427-1.684-0.456V9.597h6.483v0.784c-0.622,0.085-1.13,0.318-1.525,0.699
			c-0.396,0.381-0.989,1.504-1.78,3.369L130.542,30H129.547z"/>
		<path fill="#FFFFFF" d="M150.034,9.597v15.699c0,1.398,0.162,2.292,0.488,2.68c0.325,0.389,0.96,0.611,1.907,0.667v0.763H141.73
			v-0.763c0.876-0.028,1.525-0.282,1.949-0.763c0.282-0.325,0.424-1.187,0.424-2.585V13.728c0-1.398-0.163-2.291-0.487-2.68
			c-0.325-0.388-0.953-0.611-1.886-0.667V9.597H150.034z M147.068,0c0.918,0,1.695,0.321,2.331,0.964
			c0.636,0.643,0.953,1.416,0.953,2.32s-0.321,1.674-0.964,2.309c-0.643,0.636-1.416,0.953-2.32,0.953s-1.674-0.318-2.309-0.953
			c-0.636-0.636-0.953-1.405-0.953-2.309s0.318-1.677,0.953-2.32C145.394,0.321,146.164,0,147.068,0z"/>
		<path fill="#FFFFFF" d="M166.877,9.046l0.318,6.758h-0.72c-0.862-2.005-1.755-3.376-2.68-4.11
			c-0.925-0.734-1.847-1.102-2.765-1.102c-0.579,0-1.074,0.194-1.483,0.583c-0.41,0.389-0.615,0.837-0.615,1.345
			c0,0.381,0.141,0.749,0.424,1.102c0.452,0.579,1.716,1.572,3.792,2.977c2.076,1.406,3.443,2.599,4.1,3.58
			c0.657,0.982,0.985,2.08,0.985,3.295c0,1.101-0.275,2.182-0.826,3.241c-0.551,1.059-1.328,1.872-2.331,2.436
			c-1.003,0.565-2.112,0.847-3.326,0.847c-0.946,0-2.211-0.297-3.792-0.89c-0.424-0.155-0.713-0.233-0.869-0.233
			c-0.466,0-0.855,0.353-1.165,1.059h-0.699l-0.339-7.119h0.72c0.636,1.864,1.508,3.263,2.616,4.195
			c1.109,0.932,2.158,1.398,3.146,1.398c0.678,0,1.232-0.208,1.663-0.625c0.431-0.416,0.646-0.921,0.646-1.515
			c0-0.678-0.212-1.264-0.636-1.758s-1.37-1.243-2.839-2.246c-2.161-1.497-3.559-2.641-4.195-3.432
			c-0.932-1.158-1.398-2.436-1.398-3.835c0-1.526,0.526-2.906,1.578-4.142s2.574-1.854,4.566-1.854c1.073,0,2.111,0.262,3.114,0.784
			c0.382,0.212,0.692,0.318,0.932,0.318c0.254,0,0.459-0.053,0.614-0.159s0.403-0.406,0.742-0.9h0.722L166.877,9.046L166.877,9.046z
			"/>
		<path fill="#FFFFFF" d="M180.585,9.004c1.723,0,3.326,0.445,4.809,1.335s2.609,2.154,3.379,3.792
			c0.77,1.639,1.154,3.432,1.154,5.381c0,2.811-0.713,5.163-2.14,7.055c-1.723,2.288-4.103,3.432-7.14,3.432
			c-2.981,0-5.276-1.045-6.886-3.136c-1.61-2.09-2.415-4.513-2.415-7.267c0-2.839,0.823-5.314,2.468-7.426
			C175.461,10.06,177.717,9.004,180.585,9.004z M180.669,10.508c-0.72,0-1.338,0.272-1.854,0.816s-0.855,1.617-1.017,3.22
			c-0.163,1.603-0.244,3.831-0.244,6.684c0,1.511,0.099,2.924,0.297,4.237c0.155,1.003,0.487,1.766,0.996,2.288
			c0.509,0.523,1.088,0.784,1.737,0.784c0.636,0,1.165-0.176,1.589-0.53c0.551-0.48,0.918-1.151,1.102-2.013
			c0.282-1.342,0.424-4.054,0.424-8.136c0-2.401-0.134-4.05-0.403-4.947c-0.268-0.897-0.664-1.55-1.186-1.96
			C181.743,10.656,181.262,10.508,180.669,10.508z"/>
		<path fill="#FFFFFF" d="M201.157,9.597v4.491c1.313-2.048,2.464-3.407,3.453-4.078c0.988-0.671,1.942-1.006,2.86-1.006
			c0.791,0,1.423,0.244,1.896,0.731c0.473,0.487,0.71,1.176,0.71,2.066c0,0.946-0.23,1.681-0.689,2.203
			c-0.459,0.523-1.014,0.784-1.663,0.784c-0.749,0-1.398-0.24-1.949-0.72s-0.876-0.748-0.974-0.805
			c-0.141-0.085-0.304-0.127-0.487-0.127c-0.41,0-0.798,0.156-1.165,0.466c-0.579,0.48-1.017,1.165-1.313,2.055
			c-0.452,1.37-0.678,2.881-0.678,4.534v4.555l0.021,1.186c0,0.805,0.049,1.321,0.148,1.547c0.17,0.381,0.42,0.66,0.752,0.837
			s0.893,0.286,1.684,0.328v0.763h-10.699v-0.763c0.861-0.07,1.444-0.307,1.748-0.71c0.303-0.402,0.455-1.465,0.455-3.188V13.792
			c0-1.13-0.057-1.85-0.169-2.161c-0.142-0.395-0.346-0.685-0.615-0.869c-0.268-0.183-0.742-0.311-1.419-0.381V9.597H201.157z"/>
	</g>
</g>
</svg>
