<svg xmlns="http://www.w3.org/2000/svg" width="800" height="180" viewBox="0 0 800 180">
  <defs>
    <linearGradient id="a" x1="70.86%" x2="38.93%" y1="162.99%" y2="-42.03%">
      <stop offset="0%" stop-color="#046996"/>
      <stop offset="100%" stop-color="#0092B0"/>
    </linearGradient>
  </defs>
  <path fill="url(#a)" d="M121.8 130.3c-1.7 1.3-2.7 2-2.7 2 31.6-27.9 30.4-50.8 25-67.9-4.4-14.1-16.7-25.7-38.5-25.8-29.3 0-44.3 19-44.3 19 12.4-21.1 43-28.6 62.9-22.2 31.2 10.1 36.4 41.9 23.1 65.5-6.3 11.1-13.9 19.3-19.6 24.5 24.8-22 35.6-46.2 28.1-67.3-5.3-15-19-24.1-34.4-27.9-10.8-2.8-24.8-1.6-35.4 2-11.6 4-22.8 13.2-31.2 22.1-6.9 7.2-11.4 16.3-15.1 25.5-1.5 3.8-2.9 7.7-4.1 11.6-1.4 4.2-3.1 9.8-4.1 13.7C36.7 5.2 123.7 3.6 155.7 33c24.4 22.5 22.8 61.2 6.7 84.4-21.8 31.4-63.5 47.7-100.3 55.5-15.9 3.4-30.4 5.9-47.7 7l.3-.8c45.4-11.2 82.1-28.8 107.1-48.8zm-96.6 30.8C-10.9 47.3 51.2.4 106.8 11 64.5-24.8-50.3 26.9 25.1 162.3c.4-.4.2-.6.1-1.2zm200.2-91.3v35.7h37.4V69.8h16.1v89h-16.1v-39.2h-37.4v39.2h-16.1v-89h16.1zm78.4 61.4c.4 11.7 9.5 16.7 19.7 16.7 7.5 0 12.9-1.1 17.7-2.9l2.4 11.2c-5.5 2.2-13.1 4.1-22.3 4.1-20.7 0-32.9-13-32.9-32.6 0-17.8 10.7-34.6 31.2-34.6 20.8 0 27.5 17.2 27.5 31.3 0 3-.2 5.4-.5 6.8h-42.8zm28.1-11.3c.1-5.9-2.5-15.7-13.2-15.7-10 0-14.2 9.1-14.9 15.7h28.1zm80.3 23.5c0 5.8.2 11.5.9 15.4h-14.6l-1-7.1h-.4c-4 5-10.6 8.6-18.9 8.6-12.8 0-20.1-9.4-20.1-19.2 0-16.2 14.3-24.4 37.9-24.2v-1.1c0-4.2-1.7-11.2-12.9-11.2-6.3 0-12.9 2-17.2 4.7l-3.2-10.5c4.8-2.9 13-5.7 23.1-5.7 20.5 0 26.4 13.1 26.4 27.1v23.2zm-15.8-16c-11.4-.2-22.3 2.3-22.3 12 0 6.4 4.1 9.3 9.2 9.3 6.4 0 11.2-4.3 12.6-8.9.4-1.2.5-2.5.5-3.5v-8.9zm32-12.1c0-8.7-.1-14.9-.5-20.8h14l.6 12.3h.5c3.1-9.1 10.6-13.7 17.4-13.7 1.6 0 2.5.1 3.8.4v15.3c-1.3-.3-2.7-.5-4.7-.5-7.7 0-13 5-14.4 12.3-.3 1.4-.5 3.1-.5 5v33.2h-16.2v-43.5zm66.3-36.2v16.5H510v12.2h-15.3v28.4c0 7.7 2.1 11.8 8.2 11.8 3.1 0 4.5-.2 6.3-.8l.3 12.5c-2.4.9-6.6 1.7-11.7 1.7-5.9 0-10.9-2.1-13.9-5.4-3.4-3.7-5-9.5-5-18v-30.2h-9.1V95.6h9.1V83.8l15.8-4.7zm35.5-9.3h47.6v9.7h-36.2V109h33.5v9.5h-33.5v40.3h-11.4v-89zm55.8 89v-89h11.6v89H586zm90-32.8c0 23.6-16.3 33.9-31.6 33.9-17.2 0-30.4-12.7-30.4-32.9 0-21.4 13.9-33.9 31.4-33.9 18.2 0 30.6 13.3 30.6 32.9zm-50.4.6c0 14 8 24.6 19.3 24.6 11 0 19.3-10.5 19.3-24.8 0-10.9-5.4-24.6-19-24.6-13.7 0-19.6 12.7-19.6 24.8zm65.3-28.8l8.4 32.4c1.8 7.2 3.5 13.8 4.7 20.4h.4c1.4-6.5 3.5-13.4 5.6-20.4l10.4-32.4h9.7l9.8 31.9c2.4 7.7 4.2 14.4 5.6 20.9h.4c1.1-6.5 2.8-13.2 4.9-20.8l9-32h11.5l-20.5 63.8h-10.5l-9.7-30.5c-2.2-7.1-4.1-13.4-5.6-20.9h-.3c-1.6 7.6-3.5 14.2-5.8 21.1l-10.2 30.3h-10.5l-19.1-63.8h11.8zm109.1 2c0 6.4-5.1 11.5-11.6 11.5s-11.7-5.1-11.7-11.5 5.2-11.4 11.8-11.4c6.4 0 11.5 5 11.5 11.4zm-20.4 0c0 5.1 3.8 9.1 8.9 9.1 4.8.1 8.6-4 8.6-9 0-5.1-3.8-9.2-8.8-9.2-4.9 0-8.7 4.1-8.7 9.1zm7 5.9H784V94.3c1-.1 2.5-.3 4.3-.3 2.2 0 3.1.3 3.9.9.7.5 1.1 1.3 1.1 2.4 0 1.4-1 2.3-2.3 2.7v.2c1.1.3 1.7 1.2 2 2.7.3 1.8.6 2.4.8 2.8h-2.7c-.4-.4-.6-1.4-.9-2.8-.2-1.1-.9-1.7-2.4-1.7h-1.2v4.5zm.1-6.4h1.2c1.5 0 2.6-.5 2.6-1.6s-.7-1.8-2.4-1.8c-.7 0-1.2.1-1.4.2v3.2z"/>
</svg>
