<?xml version="1.0" encoding="UTF-8" standalone="no"?>
<!-- Creator: CorelDRAW -->

<svg
   xmlns:dc="http://purl.org/dc/elements/1.1/"
   xmlns:cc="http://creativecommons.org/ns#"
   xmlns:rdf="http://www.w3.org/1999/02/22-rdf-syntax-ns#"
   xmlns:svg="http://www.w3.org/2000/svg"
   xmlns="http://www.w3.org/2000/svg"
   xmlns:sodipodi="http://sodipodi.sourceforge.net/DTD/sodipodi-0.dtd"
   xmlns:inkscape="http://www.inkscape.org/namespaces/inkscape"
   xml:space="preserve"
   width="428.754mm"
   height="122.4723mm"
   style="clip-rule:evenodd;fill-rule:evenodd;image-rendering:optimizeQuality;shape-rendering:geometricPrecision;text-rendering:geometricPrecision"
   viewBox="0 0 428.754 122.4723"
   version="1.1"
   id="svg3703"
   sodipodi:docname="mynglelogofinal-1.svg"
   inkscape:version="0.92pre2 r"><metadata
     id="metadata3707"><rdf:RDF><cc:Work
         rdf:about=""><dc:format>image/svg+xml</dc:format><dc:type
           rdf:resource="http://purl.org/dc/dcmitype/StillImage" /><dc:title></dc:title></cc:Work></rdf:RDF></metadata><sodipodi:namedview
     pagecolor="#ffffff"
     bordercolor="#666666"
     borderopacity="1"
     objecttolerance="10"
     gridtolerance="10"
     guidetolerance="10"
     inkscape:pageopacity="0"
     inkscape:pageshadow="2"
     inkscape:window-width="1440"
     inkscape:window-height="836"
     id="namedview3705"
     showgrid="false"
     inkscape:showpageshadow="false"
     fit-margin-top="0"
     fit-margin-left="0"
     fit-margin-right="0"
     fit-margin-bottom="0"
     inkscape:zoom="0.27006616"
     inkscape:cx="299.38062"
     inkscape:cy="230.0315"
     inkscape:window-x="0"
     inkscape:window-y="27"
     inkscape:window-maximized="1"
     inkscape:current-layer="svg3703" /><defs
     id="defs3693"><style
       type="text/css"
       id="style3691"><![CDATA[
    .fil1 {fill:#003C8C}
    .fil0 {fill:#DC4600}
   ]]></style></defs><g
     id="Layer_x0020_1"
     transform="translate(-82.6235,-359.264)"><metadata
       id="CorelCorpID_0Corel-Layer" /><path
       class="fil0"
       d="m 259.496,383.681 c 0.6945,-0.9723 0.1388,-1.8057 -0.9723,-1.8057 H 244.494 c -0.8334,0 -1.3891,0.2777 -1.8058,0.9723 l -15.1408,24.8643 c -3.88,6.3719 -6.748,12.5428 -8.8901,18.4066 -0.4975,1.3619 -1.6856,1.3962 -2.2224,0 -2.2407,-5.8268 -4.9645,-11.9 -8.89,-18.4066 l -15.0021,-24.8643 c -0.4167,-0.6946 -0.9723,-0.9723 -1.8057,-0.9723 h -14.0296 c -1.1113,0 -1.6669,0.8334 -0.9723,1.8057 l 20.4192,34.7267 c 9.9292,16.8861 13.4739,24.31 13.4739,40.283 v 21.5176 c 0,0.971 0.5557,1.528 1.528,1.528 h 12.7795 c 0.9723,0 1.528,-0.5556 1.528,-1.528 v -21.5176 c 0,-15.9744 3.5287,-23.4833 13.474,-40.283 z"
       id="path3696"
       inkscape:connector-curvature="0"
       style="fill:#dc4600" /><path
       class="fil1"
       d="m 217.705,359.264 c 7.1972,0 12.3759,5.87 12.3759,13.0672 0,7.1972 -5.1787,16.2269 -12.3759,16.2269 -7.1972,0 -12.3759,-9.0297 -12.3759,-16.2269 0,-7.1972 5.1787,-13.0672 12.3759,-13.0672 z"
       id="path3698"
       inkscape:connector-curvature="0"
       style="fill:#003c8c" /><path
       class="fil1"
       d="m 92.4328,403.693 c -0.1332,-0.9412 -0.6714,-1.3443 -1.6126,-1.3443 h -6.719 c -0.9412,0 -1.4777,0.538 -1.4777,1.4793 v 62.2233 c 0,0.9397 0.5365,1.4777 1.4777,1.4777 h 11.9602 c 0.9413,0 1.4795,-0.538 1.4795,-1.4777 v -31.3139 c 0,-12.3635 4.4348,-20.2936 14.7823,-20.2936 6.854,0 10.6174,5.108 10.6174,13.4396 v 38.1679 c 0,0.9397 0.5364,1.4777 1.4779,1.4777 h 12.095 c 0.9412,0 1.4779,-0.538 1.4779,-1.4777 v -31.3139 c 0,-12.3635 4.5698,-20.2936 14.7839,-20.2936 7.1222,0 10.6173,5.108 10.6173,13.5744 v 38.0331 c 0,0.9397 0.5367,1.4777 1.4779,1.4777 h 12.0951 c 0.9414,0 1.4778,-0.538 1.4778,-1.4777 v -39.6458 c 0,-15.8586 -8.6,-25.3997 -23.6522,-25.3997 -6.4507,0 -12.4984,2.0159 -18.4125,9.0031 -1.6127,1.4793 -2.8223,1.8825 -4.5683,0 -3.6286,-5.2412 -9.8111,-9.0031 -17.4713,-9.0031 -6.4507,0 -12.3634,2.2842 -17.4712,8.0634 -1.6127,1.4777 -2.4192,1.4777 -3.2254,-0.1349 z m 299.788,33.2293 v -3.5868 c 0,-1.2815 -0.5536,-1.8036 -1.8315,-1.8036 h -26.0487 c -0.9143,0 -1.4779,0.5586 -1.4779,1.4778 v 8.6053 c 0,0.92 0.5365,1.4792 1.4779,1.4792 h 13.85 c -2.1257,7.8656 -6.934,12.3398 -14.5321,12.3398 -10.2143,0 -16.2619,-7.6604 -16.2619,-20.5618 0,-12.7681 6.0476,-20.4284 16.2619,-20.4284 4.8828,0 9.3145,1.4607 12.1252,4.8282 0.9653,1.1564 1.7121,1.0342 2.6812,0.0513 l 6.4649,-6.5574 c 1.0027,-1.0171 0.9853,-2.1123 -0.0757,-3.1401 -5.3531,-5.1848 -12.2128,-8.62 -21.1956,-8.62 -19.219,0 -31.0444,13.1697 -31.0444,33.8664 0,20.965 11.8254,34.1568 31.0444,34.1568 19.4714,0 28.5623,-13.5927 28.5623,-32.1067 z m 57.2842,30.7315 c 0.9414,0 1.4779,-0.557 1.4779,-1.4792 v -9.7378 c 0,-0.9223 -0.5629,-1.4779 -1.4779,-1.4779 h -25.0348 c -3.7465,0 -5.8516,-2.5111 -5.8516,-5.4713 v -45.6119 c 0,-0.9414 -0.5627,-1.4779 -1.4792,-1.4779 h -11.9603 c -0.9177,0 -1.4778,0.5601 -1.4778,1.4779 l 6e-4,46.1313 c 2e-4,10.4776 8.083,17.647 17.7541,17.647 z M 272.248,403.693 c -0.2084,-0.9274 -0.6739,-1.3443 -1.6127,-1.3443 h -6.7189 c -0.9389,0 -1.4777,0.5405 -1.4777,1.4793 v 62.2233 c 0,0.9373 0.5364,1.4777 1.4777,1.4777 h 11.9602 c 0.9412,0 1.4794,-0.538 1.4794,-1.4777 v -31.3139 c 0,-13.0365 5.7778,-20.2936 15.7236,-20.2936 7.2572,0 11.692,5.1104 11.692,13.5744 v 38.0331 c 0,0.9373 0.5365,1.4777 1.4777,1.4777 h 11.9603 c 0.9414,0 1.4794,-0.538 1.4794,-1.4777 v -39.6458 c 0,-15.8586 -9.2729,-25.3997 -24.5935,-25.3997 -6.5857,0 -13.1785,2.4008 -18.5459,8.1967 -1.3569,1.4654 -2.6963,1.6258 -3.0919,-0.1333 z m 233.62,61.9551 c 0.9459,-0.2468 1.3265,-0.9367 1.0745,-1.8824 l -2.6872,-10.0794 c -0.2515,-0.9441 -0.9497,-1.3076 -1.8826,-1.0746 l -5.9126,1.4779 c -2.8695,0.717 -6.8539,1.3444 -10.6173,1.3444 -8.4666,0 -13.8413,-4.435 -15.3206,-11.5587 l 21.0999,-3.2254 c 13.4332,-2.0534 19.7554,-7.9284 19.7554,-18.276 0,-13.3047 -9.8111,-21.3681 -25.9379,-21.3681 -19.6206,0 -31.1776,13.0347 -31.1776,33.9998 0,20.8316 11.4222,34.0234 31.7156,34.0234 4.3,0 8.8776,-0.5082 13.7079,-1.7682 z m -36.6887,-33.3299 c 1.0747,-12.3634 7.1222,-17.8744 15.992,-17.8744 7.257,0 11.4236,2.8223 11.4236,8.1983 0,3.4936 -2.562,5.6997 -7.257,6.4508 z"
       id="path3700"
       inkscape:connector-curvature="0"
       style="fill:#003c8c" /></g></svg>