<?xml version="1.0" encoding="utf-8"?>
<!-- Generator: Adobe Illustrator 26.0.2, SVG Export Plug-In . SVG Version: 6.00 Build 0)  -->
<svg version="1.1" id="Layer_1" xmlns="http://www.w3.org/2000/svg" xmlns:xlink="http://www.w3.org/1999/xlink" x="0px" y="0px"
	 viewBox="0 0 1000 283.2" style="enable-background:new 0 0 1000 283.2;" xml:space="preserve">
<style type="text/css">
	.st0{fill:#474E5B;}
	.st1{fill:#F15C34;}
	.st2{fill:#A4ABB7;}
</style>
<g>
	<path class="st0" d="M755.9,84.5h-10.7v11H741V69.6h4.3v11.1h10.7V69.6h4.3v25.9h-4.3V84.5z"/>
	<path class="st0" d="M769.3,69.6h4.4v25.9h-4.4V69.6z"/>
	<path class="st0" d="M830.4,84.5h-10.7v11h-4.3V69.6h4.3v11.1h10.7V69.6h4.3v25.9h-4.3V84.5z"/>
	<path class="st0" d="M848.1,73.4v7.3h10.7v3.8h-10.7v7.1h10.7v3.8h-14.9V69.6h14.9v3.8H848.1z"/>
	<path class="st0" d="M867.7,69.6h9.3c1.4,0,2.6,0.2,3.8,0.7c1.1,0.5,2.1,1.1,2.9,2c0.8,0.8,1.4,1.8,1.8,2.9s0.6,2.3,0.6,3.5
		c0,0.9-0.1,1.8-0.4,2.7c-0.2,0.9-0.6,1.6-1.1,2.4c-0.5,0.7-1.1,1.4-1.7,2c-0.7,0.6-1.4,1-2.3,1.4l5.1,8.4h-4.8l-4.7-7.8h-4.3v7.8
		h-4.3V69.6z M877,83.9c0.7,0,1.4-0.1,2-0.4c0.6-0.3,1.1-0.7,1.5-1.1c0.4-0.5,0.7-1,1-1.7c0.2-0.6,0.4-1.3,0.4-2
		c0-0.7-0.1-1.4-0.4-2c-0.2-0.6-0.6-1.2-1-1.7c-0.4-0.5-0.9-0.9-1.5-1.1c-0.6-0.3-1.3-0.4-2-0.4h-5v10.5H877z"/>
	<path class="st0" d="M744.1,132.4c0,1.7,0.5,3,1.4,3.9s2.1,1.4,3.6,1.4c0.6,0,1.1-0.1,1.7-0.3c0.5-0.2,1-0.4,1.4-0.8
		c0.4-0.3,0.7-0.7,0.9-1.2s0.3-1,0.3-1.6c0-0.7-0.1-1.2-0.4-1.7c-0.3-0.4-0.6-0.8-1-1.1c-0.4-0.3-0.9-0.6-1.3-0.8
		c-0.5-0.2-0.9-0.4-1.4-0.5c-1.2-0.4-2.3-0.8-3.3-1.3c-1-0.4-1.9-0.9-2.7-1.6c-0.8-0.6-1.4-1.3-1.8-2.2c-0.4-0.9-0.7-1.9-0.7-3.3
		c0-1.1,0.2-2,0.6-2.9c0.4-0.9,1-1.6,1.7-2.3c0.7-0.6,1.6-1.1,2.6-1.4c1-0.3,2-0.5,3.1-0.5c1.2,0,2.2,0.2,3.3,0.6
		c1,0.4,1.9,0.9,2.6,1.7c0.7,0.7,1.3,1.6,1.7,2.6c0.4,1,0.6,2.1,0.6,3.3h-4.3c0-1.3-0.3-2.3-1-3.1s-1.6-1.2-2.8-1.2
		c-1.1,0-2,0.3-2.7,0.8c-0.8,0.5-1.1,1.4-1.1,2.5c0,0.5,0.1,1,0.3,1.4c0.2,0.4,0.5,0.8,0.9,1.1s0.8,0.6,1.2,0.8
		c0.4,0.2,0.9,0.4,1.4,0.6c1,0.4,2,0.8,3.1,1.2c1,0.4,2,0.9,2.9,1.6c0.9,0.6,1.6,1.4,2.1,2.2c0.5,0.9,0.8,1.9,0.8,3.1
		c0,1.3-0.2,2.5-0.7,3.5c-0.5,1-1.1,1.9-1.9,2.6s-1.8,1.2-2.8,1.6s-2.2,0.5-3.4,0.5c-1.2,0-2.3-0.2-3.4-0.6c-1.1-0.4-2-1-2.8-1.8
		c-0.8-0.8-1.5-1.7-2-2.8c-0.5-1.1-0.7-2.4-0.7-3.9H744.1z"/>
	<path class="st0" d="M768.3,118.8h-6.4V115H779v3.8h-6.4v22.1h-4.3V118.8z"/>
	<path class="st0" d="M797.8,140.9l-1.1-3.3h-9.7l-1.1,3.3h-4.5l9-25.9h3l9,25.9H797.8z M791.8,122.1l-3.6,11.7h7.1L791.8,122.1z"/>
	<path class="st0" d="M823.7,133.4V115h4.3v25.9h-4.7L813,122.5v18.4h-4.3V115h4.7L823.7,133.4z"/>
	<path class="st0" d="M845.4,115c2.1,0,4.1,0.4,5.7,1.1c1.7,0.7,3.1,1.7,4.2,2.9c1.1,1.2,2,2.6,2.6,4.1c0.6,1.6,0.9,3.1,0.9,4.8
		c0,1.6-0.3,3.2-0.9,4.8s-1.5,2.9-2.6,4.1c-1.1,1.2-2.6,2.2-4.2,2.9c-1.7,0.7-3.6,1.1-5.7,1.1H837V115H845.4z M841.3,118.8v18.3h4.1
		c1.4,0,2.7-0.3,3.8-0.8c1.1-0.5,2.1-1.2,2.8-2.1c0.8-0.9,1.3-1.8,1.8-2.9s0.6-2.2,0.6-3.4c0-1.2-0.2-2.3-0.6-3.4
		c-0.4-1.1-1-2.1-1.8-2.9c-0.8-0.9-1.7-1.5-2.8-2.1c-1.1-0.5-2.4-0.8-3.8-0.8H841.3z"/>
	<path class="st0" d="M879.6,140.9l-1.1-3.3h-9.7l-1.1,3.3h-4.5l9-25.9h3l9,25.9H879.6z M873.6,122.1l-3.6,11.7h7.1L873.6,122.1z"/>
	<path class="st0" d="M890.6,115h9.3c1.4,0,2.6,0.2,3.8,0.7c1.1,0.5,2.1,1.1,2.9,2c0.8,0.8,1.4,1.8,1.8,2.9s0.6,2.3,0.6,3.5
		c0,0.9-0.1,1.8-0.4,2.7c-0.2,0.9-0.6,1.6-1.1,2.4c-0.5,0.7-1.1,1.4-1.7,2c-0.7,0.6-1.4,1-2.3,1.4l5.1,8.4h-4.8l-4.7-7.8h-4.3v7.8
		h-4.3V115z M899.9,129.3c0.7,0,1.4-0.1,2-0.4c0.6-0.3,1.1-0.7,1.5-1.1c0.4-0.5,0.7-1,1-1.7c0.2-0.6,0.4-1.3,0.4-2
		c0-0.7-0.1-1.4-0.4-2c-0.2-0.6-0.6-1.2-1-1.7c-0.4-0.5-0.9-0.9-1.5-1.1c-0.6-0.3-1.3-0.4-2-0.4h-5v10.5H899.9z"/>
	<path class="st0" d="M925.2,115c2.1,0,4.1,0.4,5.7,1.1c1.7,0.7,3.1,1.7,4.2,2.9c1.1,1.2,2,2.6,2.6,4.1c0.6,1.6,0.9,3.1,0.9,4.8
		c0,1.6-0.3,3.2-0.9,4.8s-1.5,2.9-2.6,4.1c-1.1,1.2-2.6,2.2-4.2,2.9c-1.7,0.7-3.6,1.1-5.7,1.1h-8.4V115H925.2z M921.1,118.8v18.3
		h4.1c1.4,0,2.7-0.3,3.8-0.8c1.1-0.5,2.1-1.2,2.8-2.1c0.8-0.9,1.3-1.8,1.8-2.9s0.6-2.2,0.6-3.4c0-1.2-0.2-2.3-0.6-3.4
		c-0.4-1.1-1-2.1-1.8-2.9c-0.8-0.9-1.7-1.5-2.8-2.1c-1.1-0.5-2.4-0.8-3.8-0.8H921.1z"/>
	<path class="st0" d="M949.5,132.4c0,1.7,0.5,3,1.4,3.9s2.1,1.4,3.6,1.4c0.6,0,1.1-0.1,1.7-0.3c0.5-0.2,1-0.4,1.4-0.8
		c0.4-0.3,0.7-0.7,0.9-1.2s0.3-1,0.3-1.6c0-0.7-0.1-1.2-0.4-1.7c-0.3-0.4-0.6-0.8-1-1.1c-0.4-0.3-0.9-0.6-1.3-0.8
		c-0.5-0.2-0.9-0.4-1.4-0.5c-1.2-0.4-2.3-0.8-3.3-1.3c-1-0.4-1.9-0.9-2.7-1.6c-0.8-0.6-1.4-1.3-1.8-2.2c-0.4-0.9-0.7-1.9-0.7-3.3
		c0-1.1,0.2-2,0.6-2.9c0.4-0.9,1-1.6,1.7-2.3c0.7-0.6,1.6-1.1,2.6-1.4c1-0.3,2-0.5,3.1-0.5c1.2,0,2.2,0.2,3.3,0.6
		c1,0.4,1.9,0.9,2.6,1.7c0.7,0.7,1.3,1.6,1.7,2.6c0.4,1,0.6,2.1,0.6,3.3h-4.3c0-1.3-0.3-2.3-1-3.1s-1.6-1.2-2.8-1.2
		c-1.1,0-2,0.3-2.7,0.8c-0.8,0.5-1.1,1.4-1.1,2.5c0,0.5,0.1,1,0.3,1.4c0.2,0.4,0.5,0.8,0.9,1.1s0.8,0.6,1.2,0.8
		c0.4,0.2,0.9,0.4,1.4,0.6c1,0.4,2,0.8,3.1,1.2c1,0.4,2,0.9,2.9,1.6c0.9,0.6,1.6,1.4,2.1,2.2c0.5,0.9,0.8,1.9,0.8,3.1
		c0,1.3-0.2,2.5-0.7,3.5c-0.5,1-1.1,1.9-1.9,2.6s-1.8,1.2-2.8,1.6s-2.2,0.5-3.4,0.5c-1.2,0-2.3-0.2-3.4-0.6c-1.1-0.4-2-1-2.8-1.8
		c-0.8-0.8-1.5-1.7-2-2.8c-0.5-1.1-0.7-2.4-0.7-3.9H949.5z"/>
	<path class="st0" d="M756.5,167.9l-6,18.5h-3.1l-9-25.9h4.5l6,18.5l6-18.5h3.1l6,18.5l6-18.5h4.5l-9,25.9h-3.1L756.5,167.9z"/>
	<path class="st0" d="M785.3,164.3v7.3H796v3.8h-10.7v7.1H796v3.8h-14.9v-25.9H796v3.8H785.3z"/>
	<path class="st0" d="M817.2,182.6v3.8h-12.2v-25.9h4.3v22.1H817.2z"/>
	<path class="st0" d="M847.1,178c-0.3,1.3-0.8,2.4-1.5,3.5c-0.7,1.1-1.6,2-2.7,2.8c-1.1,0.8-2.3,1.4-3.7,1.9s-2.9,0.7-4.4,0.7
		c-2.1,0-4-0.4-5.7-1.1c-1.7-0.7-3.1-1.7-4.3-3c-1.2-1.2-2.1-2.7-2.7-4.3c-0.6-1.6-0.9-3.4-0.9-5.2c0-1.8,0.3-3.4,0.9-5.1
		c0.6-1.6,1.5-3.1,2.6-4.3c1.1-1.3,2.5-2.3,4.1-3c1.6-0.8,3.4-1.1,5.5-1.1c1.9,0,3.6,0.3,5.1,0.8c1.5,0.5,2.8,1.2,3.8,2.1
		s1.9,2,2.5,3.2c0.6,1.2,1,2.5,1.2,3.9h-4.5c-0.1-0.9-0.4-1.7-0.9-2.5s-1-1.4-1.6-2s-1.4-1-2.3-1.3c-0.9-0.3-1.8-0.5-2.9-0.5
		c-1.5,0-2.8,0.3-4,0.8c-1.2,0.5-2.2,1.3-2.9,2.2c-0.8,0.9-1.4,1.9-1.8,3.1c-0.4,1.2-0.6,2.4-0.6,3.6c0,1.3,0.2,2.6,0.6,3.8
		c0.4,1.2,1.1,2.2,1.9,3.1c0.8,0.9,1.8,1.6,3.1,2.1c1.2,0.5,2.6,0.8,4.2,0.8c0.7,0,1.5-0.1,2.2-0.4c0.8-0.3,1.4-0.6,2.1-1.1
		c0.6-0.5,1.2-1,1.7-1.6c0.5-0.6,0.8-1.3,1.1-2.1H847.1z"/>
	<path class="st0" d="M866.9,187c-2.1,0-3.9-0.4-5.6-1.1s-3.1-1.8-4.2-3c-1.1-1.3-2-2.7-2.6-4.3c-0.6-1.6-0.9-3.3-0.9-5.1
		s0.3-3.4,0.9-5.1c0.6-1.6,1.5-3.1,2.6-4.3c1.1-1.3,2.6-2.3,4.2-3c1.7-0.8,3.5-1.1,5.6-1.1s3.9,0.4,5.6,1.1c1.7,0.8,3.1,1.8,4.2,3
		c1.1,1.3,2,2.7,2.6,4.3c0.6,1.6,0.9,3.3,0.9,5.1s-0.3,3.4-0.9,5.1s-1.5,3.1-2.6,4.3c-1.1,1.3-2.6,2.3-4.2,3
		C870.9,186.6,869,187,866.9,187z M866.9,183.2c1.4,0,2.6-0.3,3.7-0.8c1.1-0.5,2-1.3,2.8-2.2c0.8-0.9,1.4-2,1.8-3.1
		c0.4-1.2,0.6-2.4,0.6-3.6s-0.2-2.5-0.6-3.6c-0.4-1.2-1-2.2-1.8-3.1c-0.8-0.9-1.7-1.6-2.8-2.2c-1.1-0.5-2.3-0.8-3.7-0.8
		c-1.4,0-2.6,0.3-3.7,0.8c-1.1,0.5-2,1.3-2.8,2.2c-0.8,0.9-1.4,2-1.8,3.1c-0.4,1.2-0.6,2.4-0.6,3.6s0.2,2.5,0.6,3.6
		c0.4,1.2,1,2.2,1.8,3.1c0.8,0.9,1.7,1.6,2.8,2.2C864.3,182.9,865.5,183.2,866.9,183.2z"/>
	<path class="st0" d="M912.8,186.4h-4.3v-16l-6.5,16h-3.2l-6.5-16v16h-4.3v-25.9h4.1l8.3,19.3l8.2-19.3h4.1V186.4z"/>
	<path class="st0" d="M926.2,164.3v7.3h10.7v3.8h-10.7v7.1h10.7v3.8h-14.9v-25.9h14.9v3.8H926.2z"/>
	<g>
		<path class="st1" d="M307.4,211.9c-10.9,0-20.5,8.4-20.5,20.5c0,11.7,9.6,20.2,20.5,20.3c11,0,20.5-8.6,20.5-20.3
			C327.9,220.3,318.3,212,307.4,211.9z M646.5,71.9c-8.6-9.5-21.2-14.7-36.4-14.6c-17.3,0-31.9,7.8-42,20.8
			c-7.2-13.2-19.7-21-36.8-20.8c-13.6-0.1-25.2,5.8-33.7,16.5l0.4-13.8h-35.7v52.6c-2.5-14.1-9.2-26.6-19-36
			c-12.5-12.1-29.9-19.3-49.5-19.3c-19.5,0-37,7.2-49.6,19.3c-9.3,8.9-15.9,20.5-18.8,33.6V59.6h-34.2l0,0h-40l-18.6,25.1
			c-2.1,3-3.9,6.4-5.2,9.4c-1.4-3-3.2-6.4-5.2-9.3l-17.7-25.2H162l0,0h-34.6l0.2,15.3c-8.7-11.1-21.9-18.1-39.5-18
			c-17.1,0-32.2,7.2-43,19.2C34.4,88.2,28,105,28,124.3c0,19.4,6.6,36.4,17.4,48.5c10.8,12.1,25.9,19.4,42.5,19.4H88
			c17.3,0,31-7.4,39.7-18.3l-0.2,15.6h35.7v-0.1h32.5l23.6-32.2c2.6-3.6,4.9-8.1,6.6-11.7c1.7,3.6,4.1,8.1,6.7,11.7l23,32.2h33.8v0
			h35.9v-50c2.8,13.2,9.5,24.7,18.8,33.6c12.6,12.1,30.1,19.3,49.6,19.3c19.6,0,37-7.2,49.5-19.3c9.8-9.4,16.5-21.9,19-36v52.6h35.6
			v-70.8c0-9.9,2.5-16.9,6.6-21.4c4.1-4.5,10.2-6.9,18.5-7c8.1,0,12.7,2.1,15.7,5.8c3,3.7,4.5,9.6,4.5,17.9v75.5h35.6v-70.8
			c0-9.9,2.5-16.9,6.6-21.4c4.1-4.5,10.1-6.9,18.2-6.9c8.1,0,12.8,2.1,15.8,5.8c3.1,3.7,4.6,9.6,4.6,17.9v75.5h35.6v-78.5
			C659.6,94.9,655.1,81.4,646.5,71.9z M128.1,124.6c-0.2,21.6-12,35.3-32.2,35.5c-19.6-0.2-30.8-13.7-31.1-35.8
			c0.2-21.4,11.4-34.7,31.1-34.9C116.2,89.6,127.9,103.3,128.1,124.6L128.1,124.6z M163.2,179.3V61.2l43.1,60L163.2,179.3z
			 M289.4,177.2l-41.7-58.2L289.4,62V177.2z M393.7,160.9c-20.6-0.1-33.2-14.5-33.4-36.1c0.2-21.5,12.8-35.6,33.4-35.8
			c20.6,0.2,32.9,14.2,33.1,35.8C426.6,146.4,414.2,160.7,393.7,160.9z"/>
	</g>
	<rect x="700.3" y="63.9" class="st2" width="1.7" height="125.9"/>
	<path class="st0" d="M807.7,82.5H798v0h-2.5v3.8h2.5v0h5c-0.1,0.8-0.4,1.5-0.8,2.3c-0.4,0.7-0.9,1.4-1.5,1.9s-1.4,1-2.3,1.3
		c-0.9,0.3-1.9,0.5-3,0.5c-1.6,0-3-0.3-4.2-0.8c-1.2-0.5-2.2-1.3-3-2.2s-1.4-1.9-1.8-3.1c-0.4-1.2-0.6-2.4-0.6-3.7s0.2-2.5,0.6-3.7
		c0.4-1.2,1-2.2,1.8-3.1c0.8-0.9,1.7-1.6,2.8-2.2c1.1-0.5,2.4-0.8,3.7-0.8c0.9,0,1.7,0.1,2.5,0.4c0.8,0.2,1.5,0.6,2.1,1
		c0.6,0.4,1.1,0.9,1.4,1.5c0.4,0.6,0.6,1.2,0.7,1.8h4.3c-0.1-1.1-0.4-2.2-1-3.2c-0.6-1-1.4-1.9-2.3-2.7c-1-0.8-2.1-1.4-3.4-1.8
		c-1.3-0.4-2.7-0.7-4.2-0.7c-2,0-3.9,0.4-5.5,1.1c-1.6,0.8-3,1.8-4.2,3s-2,2.7-2.7,4.3c-0.6,1.6-0.9,3.3-0.9,5.1
		c0,1.8,0.3,3.4,0.9,5.1c0.6,1.6,1.5,3.1,2.6,4.3c1.1,1.3,2.5,2.3,4.2,3s3.5,1.1,5.7,1.1c1.8,0,3.4-0.2,4.8-0.7
		c1.4-0.5,2.7-1.2,3.7-2c1-0.9,1.9-1.9,2.6-3.1c0-0.1,0.1-0.1,0.1-0.2C807.9,86.3,807.8,83.1,807.7,82.5z"/>
</g>
</svg>
