<?xml version="1.0" encoding="UTF-8"?> <svg xmlns="http://www.w3.org/2000/svg" width="175" height="37" viewBox="0 0 175 37" fill="none"><g clip-path="url(#clip0_881_6909)"><path d="M25.7111 36.3685C25.4045 36.4967 25.0978 36.5581 24.7912 36.5581C24.3006 36.5581 23.8602 36.4744 23.47 36.3016C23.0797 36.1344 22.7508 35.9002 22.4832 35.5992C22.2156 35.3037 22.0094 34.9525 21.8644 34.5511C21.7195 34.1497 21.6526 33.7149 21.6526 33.2522C21.6526 32.7895 21.7251 32.3323 21.8644 31.9254C22.0094 31.5184 22.2156 31.1616 22.4832 30.855C22.7508 30.5484 23.0797 30.3142 23.47 30.1414C23.8602 29.9686 24.3006 29.8794 24.7912 29.8794C25.1201 29.8794 25.4379 29.9296 25.7445 30.0243C26.0511 30.1247 26.3299 30.2696 26.5752 30.4592C26.8205 30.6487 27.0267 30.8829 27.1884 31.1672C27.3501 31.4459 27.4504 31.7693 27.4839 32.1316H26.1403C26.0567 31.7748 25.895 31.5072 25.6553 31.3289C25.4156 31.1505 25.1257 31.0613 24.7857 31.0613C24.4679 31.0613 24.2003 31.1226 23.9829 31.2452C23.7655 31.3679 23.5815 31.5295 23.4477 31.7358C23.3083 31.9421 23.2135 32.1762 23.1466 32.4382C23.0853 32.7003 23.0519 32.9734 23.0519 33.2522C23.0519 33.5309 23.0853 33.7818 23.1466 34.0327C23.208 34.2835 23.3083 34.5121 23.4477 34.7184C23.5871 34.9191 23.7655 35.0863 23.9829 35.2089C24.2003 35.3316 24.4735 35.3929 24.7857 35.3929C25.2539 35.3929 25.6107 35.2758 25.8616 35.0417C26.1125 34.8076 26.263 34.4619 26.302 34.0159H24.8916V32.9679H27.5731V36.4187H26.6811L26.5362 35.694C26.2853 36.0173 26.0065 36.2403 25.7055 36.3685" fill="black"></path><path d="M34.4078 34.0326C34.4692 34.2835 34.5695 34.5121 34.7089 34.7183C34.8482 34.919 35.0266 35.0863 35.2441 35.2089C35.4671 35.3316 35.7347 35.3929 36.0468 35.3929C36.359 35.3929 36.6322 35.3316 36.8496 35.2089C37.0726 35.0863 37.251 34.9246 37.3848 34.7183C37.5186 34.5121 37.6245 34.2891 37.6858 34.0326C37.7472 33.7817 37.7806 33.5197 37.7806 33.2521C37.7806 32.9845 37.7472 32.7002 37.6858 32.4382C37.6245 32.1762 37.5242 31.942 37.3848 31.7358C37.2454 31.5295 37.067 31.3678 36.8496 31.2452C36.6266 31.1225 36.359 31.0612 36.0468 31.0612C35.7347 31.0612 35.4615 31.1225 35.2441 31.2452C35.0211 31.3678 34.8427 31.5295 34.7089 31.7358C34.5695 31.942 34.4747 32.1762 34.4078 32.4382C34.3465 32.7002 34.3131 32.9734 34.3131 33.2521C34.3131 33.5309 34.3465 33.7817 34.4078 34.0326ZM33.1256 31.9197C33.2706 31.5128 33.4768 31.156 33.7444 30.8494C34.012 30.5428 34.3409 30.3086 34.7312 30.1358C35.1214 29.963 35.5618 29.8738 36.0524 29.8738C36.543 29.8738 36.989 29.9574 37.3792 30.1358C37.7639 30.3086 38.0928 30.5483 38.3604 30.8494C38.628 31.156 38.8343 31.5128 38.9792 31.9197C39.1242 32.3267 39.1911 32.7727 39.1911 33.2466C39.1911 33.7204 39.1186 34.1441 38.9792 34.5455C38.8343 34.9469 38.628 35.2981 38.3604 35.5991C38.0928 35.8946 37.7639 36.1288 37.3792 36.3016C36.989 36.4688 36.5486 36.558 36.0524 36.558C35.5563 36.558 35.1214 36.4744 34.7312 36.3016C34.3409 36.1343 34.012 35.9002 33.7444 35.5991C33.4768 35.2981 33.2706 34.9525 33.1256 34.5455C32.9807 34.1441 32.9082 33.7093 32.9082 33.2466C32.9082 32.7839 32.9807 32.3267 33.1256 31.9197Z" fill="black"></path><path d="M51.5784 30.03V36.4188H56.4285V35.2369H52.9832V33.6704H56.0773V32.5833H52.9832V31.2119H56.356V30.03H51.5784Z" fill="black"></path><path d="M65.4877 30.03L64.0494 34.5234H64.0327L62.6111 30.03H61.1672L63.2355 36.4188H64.8188L66.9372 30.03H65.4877Z" fill="black"></path><path d="M71.9602 30.03V36.4188H76.8047V35.2369H73.3595V33.6704H76.4591V32.5833H73.3595V31.2119H76.7323V30.03H71.9602Z" fill="black"></path><path d="M85.1669 32.9234C85.4902 32.9234 85.73 32.8509 85.8916 32.706C86.0533 32.561 86.1314 32.3324 86.1314 32.0091C86.1314 31.6858 86.0477 31.4739 85.8916 31.3345C85.73 31.1952 85.4902 31.1227 85.1669 31.1227H83.6282V32.9178H85.1669V32.9234ZM85.6686 30.0356C85.953 30.0356 86.215 30.0802 86.4435 30.175C86.6721 30.2697 86.8728 30.3924 87.0345 30.5541C87.1961 30.7157 87.3244 30.8997 87.408 31.1115C87.4916 31.3234 87.5362 31.552 87.5362 31.7973C87.5362 32.1708 87.4582 32.4997 87.2965 32.7729C87.1404 33.046 86.8784 33.2579 86.5216 33.3972V33.414C86.6944 33.4641 86.8394 33.5366 86.9509 33.6314C87.0624 33.7317 87.1571 33.8432 87.2296 33.977C87.3021 34.1108 87.3522 34.2613 87.3857 34.423C87.4191 34.5847 87.4414 34.7463 87.4526 34.908C87.4526 35.0084 87.4637 35.131 87.4693 35.2648C87.4693 35.4042 87.486 35.5436 87.5028 35.6829C87.5195 35.8279 87.5418 35.9617 87.5752 36.0899C87.6087 36.2181 87.6589 36.324 87.7258 36.4188H86.3209C86.2428 36.2181 86.1927 35.9728 86.176 35.6941C86.1592 35.4153 86.1313 35.1477 86.0923 34.8913C86.0477 34.5568 85.9418 34.3115 85.7913 34.1554C85.6352 33.9993 85.3843 33.9213 85.0331 33.9213H83.6282V36.4188H82.2234V30.03H85.6686V30.0356Z" fill="black"></path><path d="M96.6901 30.03L95.2072 32.5554L93.7132 30.03H92.1355L94.4825 33.9324V36.4188H95.8874V33.9659L98.2567 30.03H96.6901Z" fill="black"></path><path d="M109.685 30.03L108.643 34.4342H108.626L107.533 30.03H106.217L105.108 34.3784H105.091L104.077 30.03H102.672L104.367 36.4188H105.788L106.853 32.0704H106.87L107.951 36.4188H109.351L111.068 30.03H109.685Z" fill="black"></path><path d="M120.171 30.03V32.483H117.585V30.03H116.18V36.4188H117.585V33.6648H120.171V36.4188H121.576V30.03H120.171Z" fill="black"></path><path d="M127.285 30.03V36.4188H132.129V35.2369H128.684V33.6704H131.784V32.5833H128.684V31.2119H132.057V30.03H127.285Z" fill="black"></path><path d="M140.492 32.9234C140.815 32.9234 141.055 32.8509 141.216 32.706C141.378 32.561 141.456 32.3324 141.456 32.0091C141.456 31.6858 141.378 31.4739 141.216 31.3345C141.055 31.1952 140.815 31.1227 140.492 31.1227H138.953V32.9178H140.492V32.9234ZM140.993 30.0356C141.278 30.0356 141.54 30.0802 141.768 30.175C141.997 30.2697 142.192 30.3924 142.359 30.5541C142.521 30.7157 142.649 30.8997 142.733 31.1115C142.822 31.3234 142.861 31.552 142.861 31.7973C142.861 32.1708 142.783 32.4997 142.627 32.7729C142.471 33.046 142.209 33.2579 141.852 33.3972V33.414C142.025 33.4641 142.17 33.5366 142.281 33.6314C142.393 33.7317 142.487 33.8432 142.56 33.977C142.632 34.1108 142.683 34.2613 142.716 34.423C142.749 34.5847 142.772 34.7463 142.783 34.908C142.783 35.0084 142.794 35.131 142.8 35.2648C142.805 35.4042 142.816 35.5436 142.833 35.6829C142.85 35.8223 142.872 35.9617 142.906 36.0899C142.939 36.2181 142.989 36.324 143.056 36.4188H141.651C141.573 36.2181 141.529 35.9728 141.506 35.6941C141.49 35.4153 141.462 35.1477 141.428 34.8913C141.384 34.5568 141.278 34.3115 141.122 34.1554C140.966 33.9993 140.715 33.9213 140.363 33.9213H138.959V36.4188H137.554V30.03H140.999L140.993 30.0356Z" fill="black"></path><path d="M148.48 30.03V36.4188H153.331V35.2369H149.885V33.6704H152.979V32.5833H149.885V31.2119H153.258V30.03H148.48Z" fill="black"></path><path d="M87.4748 29.1714L87.5194 29.2829C87.5027 29.2439 87.486 29.2104 87.4692 29.1714" fill="black"></path><path d="M17.0089 16.8231H13.3183C13.3016 16.7841 13.2849 16.7506 13.2681 16.7116C13.2681 16.7116 13.2626 16.7005 13.2626 16.6949C11.9748 13.8517 9.64448 11.5716 6.76229 10.3563H10.6926L10.5866 10.0998L8.45147 4.8985L6.32188 10.0998L6.294 10.1667L6.22153 10.3507L5.06196 13.2162L3.59578 16.812H0L2.75397 10.3507L3.13864 9.43643L6.87379 0.661621H10.1295L14.2549 10.3563L17.0089 16.8175V16.8231Z" fill="black"></path><path d="M49.4878 8.5724C51.2049 8.5724 52.1916 7.65255 52.1916 6.25884C52.1916 4.74806 51.138 3.96758 49.4153 3.96758H45.9088V8.5724H49.4822H49.4878ZM42.3799 0.773193H49.7164C51.7568 0.773193 53.34 1.3474 54.3937 2.40105C55.2857 3.29302 55.7707 4.55294 55.7707 6.1139C55.7707 8.7062 54.3714 10.3285 52.331 11.0867L56.2501 16.8176H52.1247L48.6404 11.6832H45.9143V16.8176H42.3855V0.773193H42.3799Z" fill="black"></path><path d="M81.3538 8.80095C81.3538 4.24072 84.9049 0.5 89.7662 0.5C92.654 0.5 94.3989 1.28048 96.0714 2.70206L93.847 5.38357C92.6094 4.35222 91.5056 3.75571 89.6491 3.75571C87.0791 3.75571 85.0443 6.02467 85.0443 8.80095C85.0443 11.7333 87.0624 13.8908 89.9056 13.8908C91.1878 13.8908 92.3362 13.5674 93.2282 12.9263V10.6351H89.677V7.58563H96.6456V14.5542C94.9954 15.9535 92.7265 17.0963 89.7941 17.0963C84.799 17.0963 81.3593 13.5897 81.3593 8.79537" fill="black"></path><path d="M122.736 9.94382V0.773193H126.265V9.85462C126.265 12.4692 127.569 13.8183 129.727 13.8183C131.884 13.8183 133.189 12.5138 133.189 9.96611V0.773193H136.718V9.83232C136.718 14.6936 133.991 17.074 129.682 17.074C125.373 17.074 122.736 14.6657 122.736 9.94382Z" fill="black"></path><path d="M162.301 14.4818L164.386 11.9842C165.829 13.1772 167.34 13.9298 169.174 13.9298C170.618 13.9298 171.488 13.3556 171.488 12.3689C171.488 11.4769 170.936 11.0142 168.254 10.3285C165.021 9.50342 162.936 8.61144 162.936 5.37803C162.936 2.46796 165.278 0.539062 168.556 0.539062C170.891 0.539062 172.887 1.26937 174.515 2.57946L172.681 5.23866C171.259 4.25191 169.86 3.6554 168.511 3.6554C167.162 3.6554 166.448 4.27421 166.448 5.09929C166.448 6.15293 167.134 6.49857 169.91 7.20658C173.166 8.05396 175 9.22467 175 12.0678C175 15.2567 172.569 17.0406 169.107 17.0406C166.677 17.0406 164.224 16.1932 162.301 14.4706" fill="black"></path></g><defs><clipPath id="clip0_881_6909"><rect width="175" height="36.0637" fill="white" transform="translate(0 0.5)"></rect></clipPath></defs></svg> 