<svg id="Layer_1" data-name="Layer 1" xmlns="http://www.w3.org/2000/svg" viewBox="0 0 1762.79005 492.27808"><defs><style>.cls-1{fill:#00c0ee;}.cls-2{fill:#45454c;}</style></defs><path class="cls-1" d="M1574.72205,481.139c-99.20715-.00006-179.918-80.71817-179.918-179.93408,0-99.20706,80.71082-179.91787,179.918-179.91787,99.216,0,179.93408,80.71081,179.93408,179.91787C1754.65613,400.421,1673.938,481.139,1574.72205,481.139Zm0-291.88677A111.96075,111.96075,0,1,0,1686.6908,301.205,112.08115,112.08115,0,0,0,1574.72205,189.25227Z"/><circle class="cls-2" cx="1306.88612" cy="54.2526" r="37.45373"/><path class="cls-2" d="M291.39558,130.21916A170.5769,170.5769,0,0,0,120.83321,298.577c-1.18224,92.74221,72.98047,169.49685,165.67455,172.70981,1.65228.05728,3.27646.0751,4.88791.075v.01043c.45321,0,.91015-.01525,1.36419-.01867.61148-.00614,1.22416-.01062,1.82975-.025,53.62149-.92681,112.64886-25.05578,143.69976-62.48025a19.64486,19.64486,0,0,0-2.75137-27.60184l-18.58053-15.24112a18.50174,18.50174,0,0,0-24.625.932c-22.76236,22.20987-60.05823,39.81073-100.9368,39.81073a106.13237,106.13237,0,0,1-102.43645-78.8945H447.73353a13.69333,13.69333,0,0,0,13.62668-12.57086q.60643-7.16324.612-14.487A170.57663,170.57663,0,0,0,291.39558,130.21916ZM196.2428,270.05731a3.94706,3.94706,0,0,1-3.73355-5.26893,105.4063,105.4063,0,0,1,197.998.10615,3.86911,3.86911,0,0,1-3.65918,5.16278Z"/><path class="cls-2" d="M52.61024,471.37232H28.822A20.68808,20.68808,0,0,1,8.13392,450.68424V31.82713A20.68808,20.68808,0,0,1,28.822,11.139H52.61024A20.68808,20.68808,0,0,1,73.29833,31.82713V450.68427A20.68807,20.68807,0,0,1,52.61024,471.37232Z"/><path class="cls-2" d="M1203.92335,31.82712A20.68813,20.68813,0,0,0,1183.23524,11.139h-23.78833a20.688,20.688,0,0,0-20.688,20.68808V167.00073a170.796,170.796,0,0,0-28.40772-18.15834,169.083,169.083,0,0,0-51.23925-16.44145c-.11817-.01793-.23719-.03436-.35621-.05038l-.08459-.01154c-1.42529-.21291-2.61646-.37884-3.74561-.52177-.25988-.033-.52111-.06218-.78247-.09089-.1361-.015-.27221-.02989-.4104-.04649l-.18518-.02208c-.92261-.11031-1.87634-.22436-2.85693-.32371-.46826-.04748-.91174-.08525-1.34058-.12161-.20691-.01759-.41406-.03511-.62207-.05387q-.312-.028-.62378-.05719c-.54016-.05-1.09875-.10176-1.68554-.1465-.79773-.06059-1.57593-.10641-2.32825-.15066l-.47693-.02813c-.17358-.01038-.3468-.02217-.5199-.03379-.32727-.02216-.65466-.04382-.98425-.06067-1.20508-.06109-2.49341-.11032-3.938-.15041l-.0603-.00257c-.115-.0049-.23023-.00954-.3468-.01245-1.4596-.0371-2.93286-.05586-4.37879-.05586l-.059.00016c-.11316.00042-.22607.00216-.339.00424l-.07922.0014c-1.49127.00408-2.73547.02-3.91547.05a169.7542,169.7542,0,0,0-97.18548,33.57029,171.20843,171.20843,0,0,0-60.38153,83.42433,170.0675,170.0675,0,0,0,23.06909,152.36851,171.3546,171.3546,0,0,0,80.79114,61.472,169.56314,169.56314,0,0,0,58.00872,10.19467h.0907c1.44239,0,2.91407-.01874,4.37415-.05569.19934-.005.398-.0131.59643-.02173.09082-.00382.18152-.00806.27381-.01081,1.28418-.03918,2.36621-.07669,3.47436-.13281.39954-.02032.79749-.04672,1.19532-.07352.19751-.01336.39526-.02673.59375-.03884l.59912-.03586c.61938-.03678,1.26-.07465,1.921-.12494.66772-.05078,1.30786-.11014,1.92675-.16757l.587-.0542c.19263-.01761.38538-.03388.57837-.05024.39441-.03335.78857-.06723,1.17944-.1069,1.09034-.11047,2.16553-.23849,3.26209-.371.10681-.01288.21387-.02457.32129-.03629.21606-.0238.43213-.04788.64673-.0751,1.19531-.15134,2.46106-.32755,3.874-.53946l.0321-.0043c.098-.01322.19593-.02692.28785-.04093a169.06948,169.06948,0,0,0,51.24-16.44107,170.80269,170.80269,0,0,0,28.40991-18.16021V450.6842a20.688,20.688,0,0,0,20.688,20.68808h23.78833a20.68813,20.68813,0,0,0,20.68811-20.68808ZM1033.38319,406.37824a104.26625,104.26625,0,0,1-44.0257-9.64933,105.858,105.858,0,0,1-44.25208-38.24728,105.34919,105.34919,0,1,1,88.27778,47.89661Z"/><path class="cls-2" d="M1318.78028,130.39272h-23.78821a20.68812,20.68812,0,0,0-20.68811,20.68815V450.6842a20.688,20.688,0,0,0,20.68811,20.68808h23.78821a20.68813,20.68813,0,0,0,20.68811-20.68808V151.08087A20.68819,20.68819,0,0,0,1318.78028,130.39272Z"/><path class="cls-2" d="M824.6178,294.87946c.37085-24.66327-3.13195-47.559-10.41149-68.05429a142.84922,142.84922,0,0,0-32.66455-52.994c-27.75013-28.1782-67.02869-43.07237-113.58906-43.07237-35.62377,0-68.78369,10.96446-95.23407,31.1985V151.31761a21.09848,21.09848,0,0,0-21.09851-21.09845h-22.9674a21.0985,21.0985,0,0,0-21.09854,21.09845V450.27387a21.0985,21.0985,0,0,0,21.09854,21.09845h22.9674a21.09847,21.09847,0,0,0,21.09851-21.09845V290.26349a92.86925,92.86925,0,0,1,8.71637-39.82636,94.553,94.553,0,0,1,22.47712-30.0713c17.85742-16.09831,41.6214-25.70929,63.56842-25.70929a104.78278,104.78278,0,0,1,37.77331,6.62587,80.91966,80.91966,0,0,1,47.44177,47.56766,107.86076,107.86076,0,0,1,6.75489,38.798l.02954,163.03614a20.688,20.688,0,0,0,20.688,20.68808h23.78827a20.688,20.688,0,0,0,20.688-20.68808Z"/></svg>