<?xml version="1.0" encoding="utf-8"?>
<!-- Generator: Adobe Illustrator 23.0.3, SVG Export Plug-In . SVG Version: 6.00 Build 0)  -->
<svg version="1.1" xmlns="http://www.w3.org/2000/svg" xmlns:xlink="http://www.w3.org/1999/xlink" x="0px" y="0px" width="479.5px"
	 height="83.1px" viewBox="0 0 479.5 83.1" style="enable-background:new 0 0 479.5 83.1;" xml:space="preserve">
<style type="text/css">
	.st0{display:none;}
	.st1{display:inline;}
	.st2{fill:#2E8ECD;}
	.st3{display:inline;fill:#FFFFFF;}
	
		.st4{display:inline;fill:#FFFFFF;stroke:#FFFFFF;stroke-width:12;stroke-linecap:round;stroke-linejoin:round;stroke-miterlimit:10;}
	.st5{display:inline;fill:none;stroke:#FFFFFF;stroke-width:12;stroke-miterlimit:10;}
	.st6{display:inline;fill:none;stroke:#FFFFFF;stroke-width:2;stroke-miterlimit:10;}
	.st7{display:inline;fill:none;stroke:#FFFFFF;stroke-width:13;stroke-linecap:round;stroke-linejoin:round;stroke-miterlimit:10;}
	.st8{display:inline;fill:#2E8ECD;}
	.st9{fill:#FFFFFF;}
	.st10{clip-path:url(#SVGID_2_);fill:#2E8ECD;}
	.st11{clip-path:url(#SVGID_2_);}
	.st12{clip-path:url(#SVGID_4_);fill:url(#SVGID_5_);}
	.st13{clip-path:url(#SVGID_4_);fill:url(#SVGID_6_);}
	
		.st14{display:inline;fill:none;stroke:url(#SVGID_7_);stroke-width:0.25;stroke-linecap:round;stroke-linejoin:round;stroke-miterlimit:10;}
	
		.st15{display:inline;fill:none;stroke:url(#SVGID_8_);stroke-width:0.25;stroke-linecap:round;stroke-linejoin:round;stroke-miterlimit:10;}
	
		.st16{display:inline;fill:none;stroke:url(#SVGID_9_);stroke-width:0.25;stroke-linecap:round;stroke-linejoin:round;stroke-miterlimit:10;}
	
		.st17{display:inline;fill:none;stroke:url(#SVGID_10_);stroke-width:0.25;stroke-linecap:round;stroke-linejoin:round;stroke-miterlimit:10;}
	.st18{fill:#ED1C24;}
	.st19{fill:url(#SVGID_11_);}
</style>
<g id="template">
</g>
<g id="original" class="st0">
</g>
<g id="logo_options">
</g>
<g id="maybe_x27_s_x3F_" class="st0">
</g>
<g id="maybe_fonts_x3F_">
	<g>
		<g>
			<g>
				<path d="M117.7,52.7c0.8-0.4,1.5-0.9,2-1.6c0.6-0.6,1-1.3,1.4-2.1c0.3-0.7,0.6-1.4,0.8-2.1h0.3l-0.4,4.8
					c-0.3,0.2-0.7,0.4-1.2,0.6c-0.5,0.2-1,0.4-1.5,0.6c-0.6,0.2-1.2,0.4-1.9,0.5c-0.7,0.1-1.5,0.2-2.3,0.2c-1.7,0-3.2-0.3-4.6-0.9
					c-1.4-0.6-2.7-1.4-3.7-2.4c-1-1-1.9-2.3-2.5-3.7c-0.6-1.4-0.9-3-0.9-4.7c0-1.7,0.3-3.3,0.9-4.7c0.6-1.4,1.4-2.7,2.5-3.7
					c1-1,2.3-1.8,3.7-2.4c1.4-0.6,3-0.9,4.6-0.9c0.8,0,1.5,0.1,2.3,0.2c0.7,0.1,1.3,0.3,1.9,0.5c0.6,0.2,1.1,0.4,1.5,0.6
					c0.5,0.2,0.8,0.4,1.2,0.6l0.3,4.8h-0.3c-0.2-0.7-0.4-1.4-0.8-2.1c-0.4-0.8-0.8-1.4-1.4-2.1c-0.6-0.6-1.2-1.1-2-1.6
					c-0.8-0.4-1.7-0.6-2.6-0.6c-0.9,0-1.8,0.2-2.7,0.7s-1.5,1.1-2.1,2.1c-0.6,0.9-1.1,2.1-1.4,3.5c-0.3,1.4-0.5,3.1-0.5,5.1
					c0,2,0.2,3.7,0.5,5.2c0.3,1.4,0.8,2.6,1.4,3.5c0.6,0.9,1.3,1.6,2.1,2s1.7,0.6,2.7,0.6C116,53.4,116.9,53.1,117.7,52.7z"/>
				<path d="M125.1,52.9c0.3,0,0.5-0.1,0.7-0.2c0.2-0.1,0.2-0.2,0.3-0.4c0-0.2,0.1-0.4,0.1-0.6V32.3c0-0.3,0-0.6-0.1-0.8
					c0-0.2-0.1-0.3-0.3-0.4c-0.2-0.1-0.4-0.2-0.7-0.2c-0.3,0-0.7-0.1-1.2-0.1v-0.3l6.4-0.7h0.3l-0.2,10.5h0.2c0.8-1,1.6-1.8,2.6-2.4
					c1-0.6,2.1-1,3.3-1c0.6,0,1.1,0.1,1.7,0.3c0.5,0.2,1,0.5,1.4,0.8c0.4,0.4,0.7,0.9,0.9,1.5c0.2,0.6,0.4,1.4,0.4,2.2v10
					c0,0.3,0,0.5,0.1,0.6c0,0.2,0.1,0.3,0.3,0.4c0.2,0.1,0.4,0.2,0.7,0.2c0.3,0,0.7,0.1,1.2,0.1v0.3h-8.4V53c0.4,0,0.7-0.1,0.9-0.1
					c0.2,0,0.4-0.1,0.5-0.2c0.1-0.1,0.2-0.2,0.2-0.4c0-0.2,0.1-0.4,0.1-0.6V41.5c0-0.8-0.2-1.5-0.5-2c-0.4-0.5-1-0.7-1.9-0.7
					c-0.7,0-1.3,0.2-1.9,0.6c-0.6,0.4-1.1,0.8-1.5,1.2v11.1c0,0.3,0,0.5,0.1,0.6c0,0.2,0.1,0.3,0.3,0.4c0.2,0.1,0.4,0.2,0.7,0.2
					c0.3,0,0.7,0.1,1.2,0.1v0.3h-8.9V53C124.4,53,124.8,53,125.1,52.9z"/>
				<path d="M145.3,52.9c0.3,0,0.5-0.1,0.7-0.2c0.2-0.1,0.2-0.2,0.3-0.4c0-0.2,0.1-0.4,0.1-0.6V39.4c0-0.3,0-0.6-0.1-0.8
					c0-0.2-0.1-0.3-0.3-0.4c-0.2-0.1-0.4-0.2-0.7-0.2c-0.3,0-0.7-0.1-1.2-0.1v-0.3l6.4-0.7h0.3l-0.2,3.7h0.2c0.6-1.1,1.3-2,2-2.7
					c0.7-0.7,1.5-1,2.5-1c0.5,0,1,0.2,1.5,0.6s0.6,0.9,0.6,1.7c0,0.5-0.2,1-0.5,1.4c-0.4,0.4-0.8,0.6-1.3,0.6
					c-0.3,0-0.6-0.1-0.9-0.3c-0.2-0.2-0.4-0.4-0.6-0.6c-0.2-0.2-0.4-0.4-0.5-0.5c-0.2-0.2-0.4-0.3-0.6-0.3c-0.3,0-0.7,0.1-1,0.4
					c-0.3,0.2-0.7,0.6-1.1,1.1v10.8c0,0.3,0,0.5,0.1,0.6c0.1,0.2,0.2,0.3,0.4,0.4c0.2,0.1,0.5,0.2,0.9,0.2c0.4,0,0.9,0.1,1.5,0.1
					v0.3h-9.5V53C144.6,53,145,53,145.3,52.9z"/>
				<path d="M164.8,52.3c0,0.2,0.1,0.3,0.3,0.4c0.2,0.1,0.4,0.2,0.7,0.2c0.3,0,0.7,0.1,1.2,0.1v0.3h-8.9V53c0.5,0,0.9-0.1,1.2-0.1
					c0.3,0,0.5-0.1,0.7-0.2c0.2-0.1,0.2-0.2,0.3-0.4c0-0.2,0.1-0.4,0.1-0.6V39.4c0-0.3,0-0.6-0.1-0.8c0-0.2-0.1-0.3-0.3-0.4
					c-0.2-0.1-0.4-0.2-0.7-0.2c-0.3,0-0.7-0.1-1.2-0.1v-0.3l6.4-0.7h0.3v14.9C164.8,52,164.8,52.2,164.8,52.3z M160.5,31.3
					c0.5-0.4,1.2-0.6,1.9-0.6c0.8,0,1.4,0.2,1.9,0.6c0.5,0.4,0.8,1,0.8,1.8c0,0.8-0.3,1.3-0.8,1.7c-0.5,0.4-1.2,0.6-1.9,0.6
					c-0.8,0-1.4-0.2-1.9-0.6s-0.8-1-0.8-1.7C159.6,32.3,159.9,31.7,160.5,31.3z"/>
				<path d="M178.3,40.3c-0.3-0.6-0.7-1.1-1.1-1.6s-0.9-0.8-1.4-1.1c-0.5-0.3-1-0.4-1.5-0.4c-0.8,0-1.4,0.2-1.8,0.6
					c-0.4,0.4-0.6,0.9-0.6,1.6c0,0.7,0.2,1.3,0.6,1.8c0.4,0.5,0.9,0.9,1.6,1.3c0.6,0.4,1.3,0.7,2,1.1c0.7,0.3,1.4,0.7,2,1.2
					c0.6,0.5,1.1,1,1.6,1.6c0.4,0.6,0.6,1.4,0.6,2.3c0,1.6-0.6,2.8-1.7,3.7c-1.2,0.9-2.7,1.3-4.7,1.3c-0.4,0-0.9,0-1.4-0.1
					c-0.5-0.1-1-0.1-1.4-0.2c-0.5-0.1-0.9-0.2-1.4-0.4c-0.4-0.1-0.8-0.3-1.1-0.5l-0.4-4.4h0.3c0.5,1.8,1.2,3.1,2.2,3.9
					c1,0.8,2.1,1.2,3.2,1.2c0.9,0,1.7-0.2,2.2-0.7c0.5-0.5,0.8-1.1,0.8-1.8c0-0.7-0.2-1.3-0.6-1.7c-0.4-0.5-1-0.9-1.6-1.2
					c-0.6-0.4-1.3-0.7-2.1-1.1c-0.7-0.3-1.4-0.7-2.1-1.2c-0.6-0.5-1.2-1-1.6-1.7c-0.4-0.6-0.6-1.4-0.6-2.4c0-0.6,0.1-1.3,0.4-1.8
					c0.2-0.6,0.6-1.1,1.1-1.5c0.5-0.4,1.1-0.8,1.9-1c0.7-0.2,1.6-0.4,2.6-0.4c0.8,0,1.6,0.1,2.5,0.3c0.9,0.2,1.7,0.4,2.3,0.7
					l0.3,4.2h-0.3C178.9,41.4,178.6,40.9,178.3,40.3z"/>
				<path d="M188.7,52c0.3,0.5,0.7,0.7,1.4,0.7c0.5,0,1-0.1,1.4-0.4c0.4-0.3,0.8-0.5,1.1-0.7l0.1,0.2c-0.8,0.6-1.6,1.1-2.5,1.4
					c-0.9,0.3-1.8,0.5-2.6,0.5c-1.2,0-2.1-0.3-2.8-0.9c-0.7-0.6-1-1.6-1-3V37.5h-2.2v-0.2l2.2-0.2l4.2-4.9h0.3v4.9h3.9v0.3h-3.9V50
					C188.3,50.9,188.5,51.6,188.7,52z"/>
				<path d="M200.3,52.3c0,0.2,0.1,0.3,0.3,0.4c0.2,0.1,0.4,0.2,0.7,0.2c0.3,0,0.7,0.1,1.2,0.1v0.3h-8.9V53c0.5,0,0.9-0.1,1.2-0.1
					c0.3,0,0.5-0.1,0.7-0.2c0.2-0.1,0.2-0.2,0.3-0.4c0-0.2,0.1-0.4,0.1-0.6V39.4c0-0.3,0-0.6-0.1-0.8c0-0.2-0.1-0.3-0.3-0.4
					c-0.2-0.1-0.4-0.2-0.7-0.2c-0.3,0-0.7-0.1-1.2-0.1v-0.3l6.4-0.7h0.3v14.9C200.2,52,200.2,52.2,200.3,52.3z M195.9,31.3
					c0.5-0.4,1.2-0.6,1.9-0.6c0.8,0,1.4,0.2,1.9,0.6c0.5,0.4,0.8,1,0.8,1.8c0,0.8-0.3,1.3-0.8,1.7c-0.5,0.4-1.2,0.6-1.9,0.6
					c-0.8,0-1.4-0.2-1.9-0.6s-0.8-1-0.8-1.7C195.1,32.3,195.4,31.7,195.9,31.3z"/>
				<path d="M204.6,52.9c0.3,0,0.5-0.1,0.7-0.2c0.2-0.1,0.2-0.2,0.3-0.4c0-0.2,0.1-0.4,0.1-0.6V39.4c0-0.3,0-0.6-0.1-0.8
					c0-0.2-0.1-0.3-0.3-0.4c-0.2-0.1-0.4-0.2-0.7-0.2c-0.3,0-0.7-0.1-1.2-0.1v-0.3l6.4-0.7h0.3l-0.2,3.4h0.2c0.8-1,1.6-1.8,2.6-2.4
					c1-0.6,2.1-1,3.3-1c0.6,0,1.1,0.1,1.7,0.3c0.5,0.2,1,0.5,1.4,0.8c0.4,0.4,0.7,0.9,0.9,1.5c0.2,0.6,0.4,1.4,0.4,2.2v10
					c0,0.3,0,0.5,0.1,0.6s0.1,0.3,0.3,0.4c0.2,0.1,0.4,0.2,0.7,0.2c0.3,0,0.7,0.1,1.2,0.1v0.3h-8.4V53c0.4,0,0.7-0.1,0.9-0.1
					c0.2,0,0.4-0.1,0.5-0.2c0.1-0.1,0.2-0.2,0.2-0.4c0-0.2,0.1-0.4,0.1-0.6V41.5c0-0.8-0.2-1.5-0.5-2c-0.4-0.5-1-0.7-1.9-0.7
					c-0.7,0-1.3,0.2-1.9,0.6c-0.6,0.4-1.1,0.8-1.5,1.2v11.1c0,0.3,0,0.5,0.1,0.6c0,0.2,0.1,0.3,0.3,0.4c0.2,0.1,0.4,0.2,0.7,0.2
					c0.3,0,0.7,0.1,1.2,0.1v0.3h-8.9V53C203.9,53,204.3,53,204.6,52.9z"/>
				<path d="M238,52.2c0.2,0,0.5-0.1,0.7-0.2c0.3-0.1,0.5-0.3,0.8-0.5l0,0.2c-0.6,0.5-1.4,0.9-2.2,1.3c-0.8,0.4-1.6,0.6-2.4,0.6
					c-0.8,0-1.4-0.2-1.8-0.6c-0.4-0.4-0.5-0.9-0.5-1.5v-0.5h-0.1c-0.6,0.8-1.3,1.4-2.2,1.9c-0.8,0.5-1.7,0.7-2.7,0.7
					c-1.2,0-2.2-0.4-2.8-1.1c-0.7-0.7-1-1.6-1-2.7c0-0.5,0.1-1,0.4-1.6c0.2-0.6,0.7-1.1,1.3-1.6c0.6-0.5,1.5-0.9,2.7-1.3
					c1.1-0.4,2.6-0.6,4.4-0.7v-3.3c0-0.5-0.1-1-0.2-1.4c-0.1-0.5-0.3-0.8-0.6-1.2c-0.3-0.3-0.6-0.6-1-0.8c-0.4-0.2-0.9-0.3-1.5-0.3
					c-0.4,0-0.8,0.1-1.1,0.2c-0.3,0.1-0.7,0.3-0.9,0.5c-0.3,0.2-0.5,0.4-0.6,0.7c-0.2,0.3-0.2,0.5-0.2,0.8c0,0.3,0.1,0.6,0.3,0.7
					c0.2,0.2,0.4,0.4,0.6,0.5c0.2,0.2,0.4,0.3,0.6,0.5c0.2,0.2,0.3,0.4,0.3,0.6c0,0.4-0.2,0.7-0.5,0.9c-0.3,0.2-0.8,0.4-1.3,0.4
					c-0.5,0-0.9-0.1-1.3-0.4c-0.4-0.2-0.6-0.7-0.6-1.2c0-0.4,0.2-0.9,0.5-1.5c0.3-0.6,0.7-1.2,1.3-1.7c0.6-0.5,1.3-1,2.2-1.3
					c0.9-0.4,1.9-0.6,3-0.6c0.9,0,1.8,0.1,2.5,0.4c0.7,0.2,1.3,0.6,1.8,1c0.5,0.4,0.8,1,1.1,1.6c0.2,0.6,0.4,1.2,0.4,1.9v9.6
					C237.2,51.9,237.5,52.2,238,52.2z M229.5,46.3c-0.6,0.6-1,1.5-1,2.6c0,1.8,0.7,2.7,2,2.7c0.4,0,0.8-0.1,1.1-0.3
					c0.3-0.2,0.7-0.4,1-0.6v-5.6C231.2,45.3,230.1,45.7,229.5,46.3z"/>
				<path class="st18" d="M255.1,41.9v9.8c0,0.3,0,0.5,0.1,0.6c0,0.2,0.1,0.3,0.3,0.4c0.2,0.1,0.4,0.2,0.7,0.2
					c0.3,0,0.7,0.1,1.2,0.1v0.3h-9.1V53c0.5,0,0.9-0.1,1.2-0.1c0.3,0,0.5-0.1,0.7-0.2c0.2-0.1,0.2-0.2,0.3-0.4
					c0-0.2,0.1-0.4,0.1-0.6V32.4c0-0.3,0-0.5-0.1-0.6c0-0.2-0.1-0.3-0.3-0.4c-0.2-0.1-0.4-0.2-0.7-0.2c-0.3,0-0.7-0.1-1.2-0.1v-0.3
					h9.1V31c-0.5,0-0.9,0.1-1.2,0.1c-0.3,0-0.5,0.1-0.7,0.2c-0.2,0.1-0.2,0.2-0.3,0.4c0,0.2-0.1,0.4-0.1,0.6v9.2h9.5v-9.2
					c0-0.3,0-0.5-0.1-0.6c0-0.2-0.1-0.3-0.3-0.4c-0.2-0.1-0.4-0.2-0.7-0.2c-0.3,0-0.7-0.1-1.2-0.1v-0.3h9.1V31
					c-0.5,0-0.9,0.1-1.2,0.1c-0.3,0-0.5,0.1-0.7,0.2c-0.2,0.1-0.2,0.2-0.3,0.4c0,0.2-0.1,0.4-0.1,0.6v19.4c0,0.3,0,0.5,0.1,0.6
					c0,0.2,0.1,0.3,0.3,0.4c0.2,0.1,0.4,0.2,0.7,0.2c0.3,0,0.7,0.1,1.2,0.1v0.3h-9.1V53c0.5,0,0.9-0.1,1.2-0.1
					c0.3,0,0.5-0.1,0.7-0.2c0.2-0.1,0.2-0.2,0.3-0.4c0-0.2,0.1-0.4,0.1-0.6v-9.8H255.1z"/>
				<path class="st18" d="M284.2,38.7c-0.1-0.2-0.2-0.3-0.4-0.4c-0.2-0.1-0.5-0.2-0.9-0.2c-0.4,0-0.9-0.1-1.5-0.1v-0.3l6.8-0.7h0.5
					v14.2c0,0.3,0,0.6,0.1,0.8c0,0.2,0.1,0.3,0.3,0.4c0.2,0.1,0.4,0.2,0.7,0.2c0.3,0,0.7,0.1,1.2,0.1v0.3l-6.1,0.7h-0.3l-0.1-3.4
					h-0.2c-0.8,1-1.6,1.8-2.6,2.4c-1,0.6-2.1,1-3.3,1c-0.6,0-1.1-0.1-1.7-0.3c-0.5-0.2-1-0.5-1.4-0.8c-0.4-0.4-0.7-0.9-0.9-1.5
					c-0.2-0.6-0.4-1.4-0.4-2.2v-9.4c0-0.3,0-0.6-0.1-0.8c0-0.2-0.1-0.3-0.3-0.4c-0.2-0.1-0.4-0.2-0.7-0.2c-0.3,0-0.7-0.1-1.2-0.1
					v-0.3l6.2-0.7h0.5v12.4c0,0.7,0.2,1.3,0.5,1.7c0.3,0.4,0.8,0.6,1.5,0.6c0.8,0,1.6-0.2,2.2-0.5c0.6-0.4,1.1-0.7,1.5-1.1V39.4
					C284.3,39.1,284.3,38.9,284.2,38.7z"/>
				<path class="st18" d="M293.2,52.9c0.3,0,0.5-0.1,0.7-0.2c0.2-0.1,0.2-0.2,0.3-0.4c0-0.2,0.1-0.4,0.1-0.6V39.4
					c0-0.3,0-0.6-0.1-0.8c0-0.2-0.1-0.3-0.3-0.4c-0.2-0.1-0.4-0.2-0.7-0.2c-0.3,0-0.7-0.1-1.2-0.1v-0.3l6.4-0.7h0.3l-0.2,3.4h0.2
					c0.8-1,1.6-1.8,2.5-2.4c0.9-0.6,1.9-1,3.1-1c2.2,0,3.6,1.1,4.3,3.3h0.1c0.8-0.9,1.6-1.7,2.5-2.4s1.9-1,3.1-1
					c0.6,0,1.1,0.1,1.7,0.3c0.5,0.2,1,0.5,1.4,0.8c0.4,0.4,0.7,0.9,0.9,1.5c0.2,0.6,0.4,1.4,0.4,2.2v10c0,0.3,0,0.5,0.1,0.6
					c0,0.2,0.1,0.3,0.3,0.4c0.2,0.1,0.4,0.2,0.7,0.2c0.3,0,0.7,0.1,1.2,0.1v0.3h-8.1V53c0.3,0,0.5-0.1,0.7-0.1
					c0.2,0,0.3-0.1,0.4-0.2c0.1-0.1,0.2-0.2,0.2-0.4c0-0.2,0-0.4,0-0.6V41.1c0-0.7-0.2-1.3-0.5-1.7c-0.3-0.4-0.8-0.6-1.5-0.6
					c-0.6,0-1.3,0.2-1.9,0.6c-0.6,0.4-1.2,0.8-1.6,1.2v11.2c0,0.3,0,0.5,0.1,0.6s0.1,0.3,0.3,0.4c0.2,0.1,0.4,0.2,0.7,0.2
					c0.3,0,0.7,0.1,1.2,0.1v0.3h-8.1V53c0.3,0,0.5-0.1,0.7-0.1c0.2,0,0.3-0.1,0.4-0.2c0.1-0.1,0.2-0.2,0.2-0.4c0-0.2,0-0.4,0-0.6
					V41.1c0-0.7-0.2-1.3-0.5-1.7c-0.3-0.4-0.8-0.6-1.5-0.6c-0.7,0-1.4,0.2-2,0.6c-0.6,0.4-1.1,0.8-1.5,1.2v11.1c0,0.3,0,0.5,0.1,0.6
					c0,0.2,0.1,0.3,0.3,0.4c0.2,0.1,0.4,0.2,0.7,0.2c0.3,0,0.7,0.1,1.2,0.1v0.3h-8.9V53C292.6,53,292.9,53,293.2,52.9z"/>
				<path class="st18" d="M330.4,37.5c0.8-0.4,1.7-0.7,2.6-0.7c1,0,2,0.2,2.8,0.6c0.8,0.4,1.5,1,2.1,1.7c0.6,0.7,1,1.6,1.3,2.7
					c0.3,1,0.4,2.2,0.4,3.4c0,1.3-0.2,2.5-0.6,3.5c-0.4,1-1,1.9-1.7,2.6c-0.7,0.7-1.5,1.3-2.5,1.7s-1.9,0.6-2.9,0.6
					c-0.5,0-1.1-0.1-1.7-0.2c-0.6-0.1-1.2-0.4-1.7-0.7v5.4c0,0.3,0,0.5,0.1,0.6c0,0.2,0.1,0.3,0.3,0.4c0.2,0.1,0.4,0.2,0.7,0.2
					c0.3,0,0.7,0.1,1.2,0.1v0.3h-8.9v-0.3c0.5,0,0.9-0.1,1.2-0.1c0.3,0,0.5-0.1,0.7-0.2c0.2-0.1,0.2-0.2,0.3-0.4
					c0-0.2,0.1-0.4,0.1-0.6V39.4c0-0.3,0-0.6-0.1-0.8c0-0.2-0.1-0.3-0.3-0.4c-0.2-0.1-0.4-0.2-0.7-0.2c-0.3,0-0.7-0.1-1.2-0.1v-0.3
					l6.4-0.7h0.3l-0.2,2.4h0.2C328.9,38.5,329.6,38,330.4,37.5z M329.5,38.8c-0.4,0.2-0.8,0.5-1.2,0.8v9.6c0,0.9,0.1,1.6,0.3,2.1
					c0.2,0.5,0.4,1,0.7,1.3c0.3,0.3,0.6,0.5,0.9,0.6c0.3,0.1,0.6,0.2,0.9,0.2c0.6,0,1.2-0.2,1.7-0.6c0.5-0.4,0.8-0.9,1.1-1.6
					c0.3-0.7,0.5-1.5,0.6-2.5c0.1-1,0.2-2,0.2-3.2c0-1.2-0.1-2.3-0.3-3.2c-0.2-0.9-0.5-1.6-0.8-2.2c-0.3-0.6-0.8-1-1.2-1.2
					c-0.5-0.3-1-0.4-1.5-0.4C330.4,38.5,330,38.6,329.5,38.8z"/>
				<path class="st18" d="M342.4,52.9c0.3,0,0.5-0.1,0.7-0.2c0.2-0.1,0.2-0.2,0.3-0.4c0-0.2,0.1-0.4,0.1-0.6V32.3
					c0-0.3,0-0.6-0.1-0.8c0-0.2-0.1-0.3-0.3-0.4c-0.2-0.1-0.4-0.2-0.7-0.2c-0.3,0-0.7-0.1-1.2-0.1v-0.3l6.4-0.7h0.3l-0.2,10.5h0.2
					c0.8-1,1.6-1.8,2.6-2.4c1-0.6,2.1-1,3.3-1c0.6,0,1.1,0.1,1.7,0.3c0.5,0.2,1,0.5,1.4,0.8c0.4,0.4,0.7,0.9,0.9,1.5
					c0.2,0.6,0.4,1.4,0.4,2.2v10c0,0.3,0,0.5,0.1,0.6c0,0.2,0.1,0.3,0.3,0.4c0.2,0.1,0.4,0.2,0.7,0.2c0.3,0,0.7,0.1,1.2,0.1v0.3
					h-8.4V53c0.4,0,0.7-0.1,0.9-0.1c0.2,0,0.4-0.1,0.5-0.2c0.1-0.1,0.2-0.2,0.2-0.4c0-0.2,0.1-0.4,0.1-0.6V41.5c0-0.8-0.2-1.5-0.5-2
					c-0.4-0.5-1-0.7-1.9-0.7c-0.7,0-1.3,0.2-1.9,0.6c-0.6,0.4-1.1,0.8-1.5,1.2v11.1c0,0.3,0,0.5,0.1,0.6c0,0.2,0.1,0.3,0.3,0.4
					c0.2,0.1,0.4,0.2,0.7,0.2c0.3,0,0.7,0.1,1.2,0.1v0.3h-8.9V53C341.7,53,342.1,53,342.4,52.9z"/>
				<path class="st18" d="M362.6,52.9c0.3,0,0.5-0.1,0.7-0.2c0.2-0.1,0.2-0.2,0.3-0.4c0-0.2,0.1-0.4,0.1-0.6V39.4
					c0-0.3,0-0.6-0.1-0.8c0-0.2-0.1-0.3-0.3-0.4c-0.2-0.1-0.4-0.2-0.7-0.2c-0.3,0-0.7-0.1-1.2-0.1v-0.3l6.4-0.7h0.3l-0.2,3.7h0.2
					c0.6-1.1,1.3-2,2-2.7c0.7-0.7,1.5-1,2.5-1c0.5,0,1,0.2,1.5,0.6c0.4,0.4,0.6,0.9,0.6,1.7c0,0.5-0.2,1-0.5,1.4
					c-0.4,0.4-0.8,0.6-1.3,0.6c-0.3,0-0.6-0.1-0.9-0.3c-0.2-0.2-0.4-0.4-0.6-0.6c-0.2-0.2-0.4-0.4-0.5-0.5c-0.2-0.2-0.4-0.3-0.6-0.3
					c-0.3,0-0.7,0.1-1,0.4c-0.3,0.2-0.7,0.6-1.1,1.1v10.8c0,0.3,0,0.5,0.1,0.6c0.1,0.2,0.2,0.3,0.4,0.4c0.2,0.1,0.5,0.2,0.9,0.2
					c0.4,0,0.9,0.1,1.5,0.1v0.3h-9.5V53C361.9,53,362.3,53,362.6,52.9z"/>
				<path class="st18" d="M386.4,37.1c0.7,0.2,1.4,0.5,2,0.9c0.6,0.4,1,1,1.4,1.6c0.3,0.7,0.5,1.5,0.5,2.5c0,0.6-0.1,1.3-0.3,1.9
					h-9.7v0.6c0,1.3,0.2,2.5,0.5,3.4c0.3,0.9,0.7,1.7,1.3,2.3c0.5,0.6,1.1,1.1,1.8,1.3c0.7,0.3,1.4,0.4,2.1,0.4
					c0.9,0,1.7-0.2,2.4-0.5c0.7-0.3,1.2-0.7,1.7-1l0.1,0.3c-0.1,0.2-0.4,0.4-0.7,0.7c-0.3,0.3-0.7,0.6-1.3,0.9
					c-0.5,0.3-1.1,0.6-1.9,0.8c-0.7,0.2-1.6,0.4-2.5,0.4c-1.3,0-2.5-0.2-3.5-0.7c-1-0.5-1.8-1.1-2.5-1.8c-0.7-0.8-1.2-1.6-1.5-2.6
					c-0.3-1-0.5-2-0.5-3.1c0-1.4,0.2-2.6,0.7-3.7c0.5-1.1,1.1-2,1.9-2.7s1.7-1.3,2.7-1.7c1-0.4,2-0.6,3-0.6
					C384.9,36.9,385.6,36.9,386.4,37.1z M381.4,38.9c-0.7,1.1-1,2.8-1.1,4.9h5.8c0.1-0.2,0.1-0.5,0.1-0.8c0-0.3,0.1-0.6,0.1-0.9
					s0.1-0.5,0.1-0.8c0-0.2,0-0.4,0-0.5c0-1.4-0.3-2.3-0.7-2.9c-0.5-0.5-1-0.8-1.7-0.8C382.9,37.2,382.1,37.7,381.4,38.9z"/>
				<path class="st18" d="M399.9,56.4c-0.7,1-1.4,1.8-2.2,2.3s-1.5,0.9-2.2,1.1s-1.4,0.3-2.1,0.3c-0.7,0-1.2-0.2-1.6-0.5
					c-0.4-0.3-0.6-0.7-0.6-1.2c0-0.4,0.1-0.8,0.4-1.1c0.3-0.3,0.7-0.5,1.2-0.5c0.3,0,0.6,0.1,0.8,0.2c0.2,0.2,0.5,0.3,0.7,0.5
					c0.2,0.2,0.5,0.3,0.7,0.5c0.2,0.2,0.5,0.2,0.8,0.2c0.9,0,1.7-0.2,2.3-0.6c0.7-0.4,1.3-1.2,1.8-2.2l-6.8-15.8
					c-0.2-0.5-0.5-1-0.8-1.4c-0.3-0.4-0.7-0.6-1.3-0.7v-0.3h9v0.3c-0.5,0.1-1,0.2-1.3,0.3c-0.3,0.1-0.5,0.3-0.6,0.5
					c-0.1,0.2-0.2,0.4-0.1,0.7c0,0.3,0.1,0.5,0.2,0.8l4,10h0.1l3.8-10c0.1-0.3,0.2-0.7,0.2-0.9c0-0.3-0.1-0.5-0.4-0.7
					c-0.2-0.2-0.6-0.4-1.1-0.5c-0.5-0.1-1.2-0.2-2.1-0.3v-0.3h6.2v0.3c-0.4,0.1-0.7,0.2-0.9,0.3c-0.2,0.1-0.5,0.3-0.6,0.5
					c-0.2,0.2-0.3,0.4-0.4,0.6c-0.1,0.2-0.2,0.5-0.4,0.8l-4.9,12.9C401.3,54.1,400.6,55.4,399.9,56.4z"/>
				<path d="M419.7,31.7c0-0.2-0.1-0.3-0.3-0.4c-0.2-0.1-0.4-0.2-0.7-0.2c-0.3,0-0.7-0.1-1.2-0.1v-0.3h9.1V31
					c-0.5,0-0.9,0.1-1.2,0.1c-0.3,0-0.5,0.1-0.7,0.2c-0.2,0.1-0.2,0.2-0.3,0.4c0,0.2-0.1,0.4-0.1,0.6V53h4.2c1.5,0,2.7-0.5,3.6-1.4
					c0.9-0.9,1.6-2.2,2-3.8h0.3l-0.3,5.5h-16.7V53c0.5,0,0.9-0.1,1.2-0.1c0.3,0,0.5-0.1,0.7-0.2c0.2-0.1,0.2-0.2,0.3-0.4
					c0-0.2,0.1-0.4,0.1-0.6V32.4C419.8,32.1,419.8,31.9,419.7,31.7z"/>
				<path d="M450.2,52.2c0.2,0,0.5-0.1,0.7-0.2c0.3-0.1,0.5-0.3,0.8-0.5l0,0.2c-0.6,0.5-1.4,0.9-2.2,1.3c-0.8,0.4-1.6,0.6-2.4,0.6
					c-0.8,0-1.4-0.2-1.8-0.6c-0.4-0.4-0.5-0.9-0.5-1.5v-0.5h-0.1c-0.6,0.8-1.3,1.4-2.2,1.9c-0.8,0.5-1.7,0.7-2.7,0.7
					c-1.2,0-2.2-0.4-2.8-1.1c-0.7-0.7-1-1.6-1-2.7c0-0.5,0.1-1,0.4-1.6c0.2-0.6,0.7-1.1,1.3-1.6c0.6-0.5,1.5-0.9,2.7-1.3
					c1.1-0.4,2.6-0.6,4.4-0.7v-3.3c0-0.5-0.1-1-0.2-1.4c-0.1-0.5-0.3-0.8-0.6-1.2c-0.3-0.3-0.6-0.6-1-0.8c-0.4-0.2-0.9-0.3-1.5-0.3
					c-0.4,0-0.8,0.1-1.1,0.2c-0.3,0.1-0.7,0.3-0.9,0.5c-0.3,0.2-0.5,0.4-0.6,0.7c-0.2,0.3-0.2,0.5-0.2,0.8c0,0.3,0.1,0.6,0.3,0.7
					c0.2,0.2,0.4,0.4,0.6,0.5c0.2,0.2,0.4,0.3,0.6,0.5c0.2,0.2,0.3,0.4,0.3,0.6c0,0.4-0.2,0.7-0.5,0.9c-0.3,0.2-0.8,0.4-1.3,0.4
					c-0.5,0-0.9-0.1-1.3-0.4c-0.4-0.2-0.6-0.7-0.6-1.2c0-0.4,0.2-0.9,0.5-1.5c0.3-0.6,0.7-1.2,1.3-1.7c0.6-0.5,1.3-1,2.2-1.3
					s1.9-0.6,3-0.6c0.9,0,1.8,0.1,2.5,0.4c0.7,0.2,1.3,0.6,1.8,1c0.5,0.4,0.8,1,1.1,1.6c0.2,0.6,0.4,1.2,0.4,1.9v9.6
					C449.4,51.9,449.6,52.2,450.2,52.2z M441.7,46.3c-0.6,0.6-1,1.5-1,2.6c0,1.8,0.7,2.7,2,2.7c0.4,0,0.8-0.1,1.1-0.3
					c0.3-0.2,0.7-0.4,1-0.6v-5.6C443.4,45.3,442.3,45.7,441.7,46.3z"/>
				<path d="M461.8,53.5h-2.4l-5.5-14.3c-0.2-0.6-0.5-1-0.7-1.2c-0.2-0.3-0.6-0.4-1.2-0.5v-0.3h9v0.3c-0.5,0.1-1,0.2-1.3,0.3
					c-0.3,0.1-0.5,0.3-0.7,0.5c-0.1,0.2-0.2,0.4-0.2,0.7c0,0.3,0.1,0.5,0.2,0.8l3.4,9.7h0.1l4-12.6h1.8l5,12.7h0.1l3.3-9.9
					c0.1-0.3,0.1-0.7,0.1-0.9c0-0.3-0.2-0.5-0.4-0.7s-0.6-0.4-1.1-0.5c-0.5-0.1-1.2-0.2-2-0.3v-0.3h6.2v0.3
					c-0.8,0.1-1.3,0.4-1.6,0.7c-0.3,0.3-0.6,0.8-0.8,1.5l-4.5,13.8h-2.4l-4.8-11.8L461.8,53.5z"/>
			</g>
		</g>
		<linearGradient id="SVGID_2_" gradientUnits="userSpaceOnUse" x1="90.6523" y1="13.1633" x2="-7.5998" y2="69.8892">
			<stop  offset="0" style="stop-color:#690C0D"/>
			<stop  offset="2.604043e-02" style="stop-color:#6E0E0F"/>
			<stop  offset="0.2172" style="stop-color:#95171A"/>
			<stop  offset="0.4028" style="stop-color:#B81B20"/>
			<stop  offset="0.5787" style="stop-color:#D21C23"/>
			<stop  offset="0.7411" style="stop-color:#E41D24"/>
			<stop  offset="0.8771" style="stop-color:#ED1C24"/>
		</linearGradient>
		<rect style="fill:url(#SVGID_2_);" width="83.1" height="83.1"/>
		
			<rect x="6.6" y="40.4" transform="matrix(0.7071 -0.7071 0.7071 0.7071 -16.492 41.5645)" class="st9" width="70.6" height="0.6"/>
		<g>
			<path class="st9" d="M38,60.3c0,0.2-0.1,0.3-0.3,0.4s-0.3,0.2-0.6,0.2c-0.3,0.1-0.6,0.1-1.1,0.2v0.4h12.7v-0.4
				c-0.5-0.1-0.8-0.1-1.1-0.2c-0.3-0.1-0.5-0.1-0.6-0.2c-0.1-0.1-0.2-0.2-0.3-0.4c0-0.2-0.1-0.4-0.1-0.6V46.8h9.8v12.9
				c0,0.2,0,0.5-0.1,0.6c0,0.2-0.1,0.3-0.3,0.4c-0.1,0.1-0.3,0.2-0.6,0.2c-0.3,0.1-0.7,0.1-1.1,0.2v0.4h12.7v-0.4
				c-0.5-0.1-0.8-0.1-1.1-0.2c-0.3-0.1-0.5-0.1-0.6-0.2s-0.2-0.2-0.3-0.4c0-0.2-0.1-0.4-0.1-0.6V34.4c0-0.2,0-0.5,0.1-0.6
				c0-0.2,0.1-0.3,0.3-0.4c0.1-0.1,0.3-0.2,0.6-0.3c0.3-0.1,0.7-0.1,1.1-0.2v-0.4H54.2v0.4c0.5,0.1,0.8,0.1,1.1,0.2
				c0.3,0.1,0.5,0.1,0.6,0.3c0.1,0.1,0.2,0.2,0.3,0.4c0,0.2,0.1,0.4,0.1,0.6v12h-9.8v-9.9L38,45v14.7C38,60,38,60.2,38,60.3z"/>
		</g>
		<g>
			<path class="st9" d="M26.9,47.6c-0.6-1.1-1.1-2.6-1.5-4.5c-0.4-1.9-0.5-4.2-0.5-7c0-2.7,0.2-5,0.5-6.8c0.4-1.9,0.9-3.4,1.5-4.5
				c0.6-1.1,1.4-2,2.2-2.5c0.9-0.5,1.8-0.7,2.8-0.7c1.2,0,2.4,0.3,3.3,0.9c1,0.6,1.8,1.3,2.6,2.1c0.7,0.8,1.3,1.8,1.8,2.8
				c0.5,1,0.8,1.9,1,2.7H41l-0.4-6.4c-0.4-0.2-0.9-0.5-1.5-0.8c-0.6-0.3-1.2-0.6-2-0.8c-0.7-0.2-1.5-0.5-2.4-0.6
				c-0.9-0.2-1.8-0.2-2.9-0.2c-2.3,0-4.4,0.4-6.4,1.1c-2,0.7-3.6,1.8-5.1,3.1c-1.4,1.3-2.5,2.9-3.3,4.7c-0.8,1.8-1.2,3.8-1.2,6
				s0.4,4.2,1.2,6c0.8,1.8,1.9,3.4,3.3,4.7c1.4,1.3,3.1,2.4,5.1,3.1c1.7,0.7,3.6,1,5.7,1.1c0,0,0,0,0,0c0.1,0,0.5-0.4,0.4-0.4
				c0,0,0,0,0,0c-0.9,0-1.7-0.3-2.5-0.7C28.3,49.5,27.5,48.7,26.9,47.6z"/>
		</g>
	</g>
</g>
<g id="Layer_6">
</g>
<g id="Layer_7">
</g>
<g id="Layer_8">
</g>
<g id="Layer_9">
</g>
</svg>
