<svg id="Layer_1" data-name="Layer 1" xmlns="http://www.w3.org/2000/svg" viewBox="0 0 243.5935 66"><defs><style>.cls-1{fill:#fff;}</style></defs><path class="cls-1" d="M82.59,8.6064h5.143V30.1777h13.2457v4.0694H82.59Z"/><path class="cls-1" d="M108.4524,8.6064h5.0322V23.2588a13.5957,13.5957,0,0,0,.2774,2.7744,5.9122,5.9122,0,0,0,1.0546,2.3682,5.4848,5.4848,0,0,0,2.127,1.665,8.3194,8.3194,0,0,0,3.4961.6289,8.088,8.088,0,0,0,3.3672-.61,5.6084,5.6084,0,0,0,2.1289-1.628,6.0325,6.0325,0,0,0,1.1094-2.3681,12.4864,12.4864,0,0,0,.3144-2.83V8.6064h5.0684V23.665a14.5477,14.5477,0,0,1-.666,4.5518,8.4677,8.4677,0,0,1-2.1094,3.459,9.4331,9.4331,0,0,1-3.6992,2.1826,17.1661,17.1661,0,0,1-5.4395.7588,17.5136,17.5136,0,0,1-5.92-.8506,9.1458,9.1458,0,0,1-3.6992-2.35,8.28,8.28,0,0,1-1.9053-3.4785,16.25,16.25,0,0,1-.5371-4.2735Z"/><path class="cls-1" d="M156.3293,28.4014l8.6582-19.795h5.9942V34.2471h-5.1055V16.2285l-7.77,18.0186h-3.5889l-7.77-18.0186V34.2471H141.678V8.6064h5.9941Z"/><path class="cls-1" d="M199.5832,12.6768H185.5969V19.41h13.1719v3.996H185.5969v6.7715h14.3565v4.0694H180.4543V8.6064h19.1289Z"/><path class="cls-1" d="M231.9954,34.2471h-5.6612L213.31,15.34V34.2471h-5.1055V8.6064h5.6983l12.9492,18.9444V8.6064h5.1436Z"/><path class="cls-1" d="M93.157,55.6064A2.7526,2.7526,0,0,1,91.95,58.1016a6.7878,6.7878,0,0,1-3.6381.78H82.906v-11.78h4.76a7.4431,7.4431,0,0,1,3.7827.7656,3.0429,3.0429,0,0,1,.8076,4.0781,2.8729,2.8729,0,0,1-1.1563.9785,3.9624,3.9624,0,0,1,1.4454.9932A2.55,2.55,0,0,1,93.157,55.6064Zm-4.9981-7.2128h-3.57v3.9433h3.57a4.07,4.07,0,0,0,2.1421-.4433,1.9237,1.9237,0,0,0-.0512-3.0049A3.7657,3.7657,0,0,0,88.1589,48.3936Zm.4082,5.2011h-3.978V57.624h3.978a4.012,4.012,0,0,0,2.125-.4609,1.9118,1.9118,0,0,0-.0512-3.0469A3.6833,3.6833,0,0,0,88.5671,53.5947Z"/><path class="cls-1" d="M102.1838,47.1016v11.78h-1.7v-11.78Z"/><path class="cls-1" d="M115.02,46.9141a6.8172,6.8172,0,0,1,2.8291.51,4.5529,4.5529,0,0,1,1.76,1.3516,4.9894,4.9894,0,0,1,.9024,1.93,9.88,9.88,0,0,1,.2539,2.2607,9.2354,9.2354,0,0,1-.2813,2.3037,5.116,5.116,0,0,1-.9433,1.9385,4.64,4.64,0,0,1-1.7676,1.3428,6.6656,6.6656,0,0,1-2.7529.501,6.5033,6.5033,0,0,1-2.7207-.501,4.5933,4.5933,0,0,1-1.7422-1.3428,5.2175,5.2175,0,0,1-.9346-1.9385,9.2354,9.2354,0,0,1-.2812-2.3037,9.88,9.88,0,0,1,.2548-2.2607,5.0754,5.0754,0,0,1,.8926-1.93,4.5152,4.5152,0,0,1,1.7344-1.3516A6.6515,6.6515,0,0,1,115.02,46.9141Zm.1357,10.7783a4.1758,4.1758,0,0,0,1.9707-.4082,3.1563,3.1563,0,0,0,1.1992-1.08,4.1014,4.1014,0,0,0,.586-1.5215,9.5306,9.5306,0,0,0,.1543-1.7168,8.8656,8.8656,0,0,0-.17-1.7588,4.0825,4.0825,0,0,0-.6132-1.4961,3.1206,3.1206,0,0,0-1.1895-1.0371,4.2115,4.2115,0,0,0-1.9209-.3828h-.2715a4.1713,4.1713,0,0,0-1.9043.3828,3.116,3.116,0,0,0-1.19,1.0371,4.0988,4.0988,0,0,0-.6113,1.4961,8.8657,8.8657,0,0,0-.17,1.7588,9.7045,9.7045,0,0,0,.1523,1.7168,4.1182,4.1182,0,0,0,.5869,1.5215,3.1983,3.1983,0,0,0,1.1817,1.08,4.0763,4.0763,0,0,0,1.955.4082Z"/><path class="cls-1" d="M128.8225,55.3633a2.2251,2.2251,0,0,0,.3486,1.0527,2.5813,2.5813,0,0,0,.7735.7617,3.5342,3.5342,0,0,0,1.122.4619,6.0189,6.0189,0,0,0,1.41.1543,5.1944,5.1944,0,0,0,1.1143-.1279,4.197,4.197,0,0,0,1.07-.3828,2.5576,2.5576,0,0,0,.8-.6387,1.3916,1.3916,0,0,0,.3144-.91,1.6909,1.6909,0,0,0-.23-.9112,1.86,1.86,0,0,0-.6211-.6045,3.7693,3.7693,0,0,0-.9267-.3916q-.5348-.1538-1.1475-.2724l-1.8017-.3574a5.9348,5.9348,0,0,1-2.6094-1.0645,2.5354,2.5354,0,0,1-.9268-2.1025,2.4663,2.4663,0,0,1,.3662-1.3457,3.0319,3.0319,0,0,1,1.003-.97,5.0671,5.0671,0,0,1,1.5127-.5966,8.2785,8.2785,0,0,1,1.8789-.2041,8.7855,8.7855,0,0,1,2.3027.2636,4.5611,4.5611,0,0,1,1.5733.73,2.9135,2.9135,0,0,1,.9,1.0967,3.2254,3.2254,0,0,1,.2891,1.36h-1.7168a2.108,2.108,0,0,0-.918-1.6494,4.0493,4.0493,0,0,0-2.3291-.5781,4.653,4.653,0,0,0-2.32.5019,1.5027,1.5027,0,0,0-.8759,1.334,1.4029,1.4029,0,0,0,.706,1.2588,5.7745,5.7745,0,0,0,1.9971.68l1.8017.34a8.495,8.495,0,0,1,1.59.4248,4.4118,4.4118,0,0,1,1.207.6806,2.74,2.74,0,0,1,.7647.9688,3.09,3.09,0,0,1,.2636,1.3261,2.7672,2.7672,0,0,1-.4082,1.5127,3.2711,3.2711,0,0,1-1.0957,1.0625,5.2894,5.2894,0,0,1-1.5986.62,8.754,8.754,0,0,1-1.93.2041,7.41,7.41,0,0,1-3.8584-.8663,3.465,3.465,0,0,1-1.6152-2.8222Z"/><path class="cls-1" d="M154.7649,55.1084a4.7032,4.7032,0,0,1-.4336,1.6064,3.5632,3.5632,0,0,1-.9941,1.2413,4.7019,4.7019,0,0,1-1.6153.8066,8.054,8.054,0,0,1-2.2949.2891,6.4984,6.4984,0,0,1-2.72-.501,4.5969,4.5969,0,0,1-1.7432-1.3428A5.2191,5.2191,0,0,1,144.03,55.27a9.2355,9.2355,0,0,1-.28-2.3037,9.88,9.88,0,0,1,.2548-2.2607,5.06,5.06,0,0,1,.8926-1.93,4.5117,4.5117,0,0,1,1.7334-1.3516,6.6546,6.6546,0,0,1,2.7969-.51,8.0869,8.0869,0,0,1,2.252.28,4.789,4.789,0,0,1,1.6152.7911,3.4559,3.4559,0,0,1,.9951,1.1982,4.4218,4.4218,0,0,1,.4248,1.5049h-1.751a2.6632,2.6632,0,0,0-.3066-.91,2.5269,2.5269,0,0,0-.6543-.7646,3.2322,3.2322,0,0,0-1.0195-.5274,4.574,4.574,0,0,0-1.4034-.1953h-.2714a4.1736,4.1736,0,0,0-1.9043.3828,3.1059,3.1059,0,0,0-1.19,1.0371,4.0829,4.0829,0,0,0-.6123,1.4961,8.8657,8.8657,0,0,0-.17,1.7588,9.6214,9.6214,0,0,0,.1533,1.7168,4.103,4.103,0,0,0,.5859,1.5215,3.1991,3.1991,0,0,0,1.1817,1.08,4.08,4.08,0,0,0,1.9551.4082h.2548a4.534,4.534,0,0,0,1.5127-.23,3.1519,3.1519,0,0,0,1.0625-.6035,2.56,2.56,0,0,0,.6289-.833,2.1739,2.1739,0,0,0,.2129-.918Z"/><path class="cls-1" d="M163.6213,47.1016v11.78h-1.7v-11.78Z"/><path class="cls-1" d="M180.179,48.3936h-7.14v3.9609h6.7314v1.2578h-6.7314V57.59h7.3272v1.292h-9.0108v-11.78h8.8233Z"/><path class="cls-1" d="M198.3352,58.8818H196.21l-7.0557-9.707v9.707h-1.6826v-11.78h2.125l7.0547,9.706v-9.706h1.6836Z"/><path class="cls-1" d="M216.4231,55.1084a4.7009,4.7009,0,0,1-.4336,1.6064,3.5632,3.5632,0,0,1-.9941,1.2413,4.7019,4.7019,0,0,1-1.6153.8066,8.054,8.054,0,0,1-2.2949.2891,6.4984,6.4984,0,0,1-2.72-.501,4.5969,4.5969,0,0,1-1.7432-1.3428,5.2191,5.2191,0,0,1-.9346-1.9385,9.2355,9.2355,0,0,1-.28-2.3037,9.88,9.88,0,0,1,.2548-2.2607,5.06,5.06,0,0,1,.8926-1.93,4.5117,4.5117,0,0,1,1.7334-1.3516,6.6546,6.6546,0,0,1,2.7969-.51,8.0869,8.0869,0,0,1,2.252.28,4.789,4.789,0,0,1,1.6152.7911,3.4559,3.4559,0,0,1,.9951,1.1982,4.4218,4.4218,0,0,1,.4248,1.5049h-1.751a2.6632,2.6632,0,0,0-.3066-.91,2.5269,2.5269,0,0,0-.6543-.7646,3.2311,3.2311,0,0,0-1.02-.5274,4.574,4.574,0,0,0-1.4034-.1953h-.2714a4.1739,4.1739,0,0,0-1.9043.3828,3.1059,3.1059,0,0,0-1.19,1.0371,4.0829,4.0829,0,0,0-.6123,1.4961,8.8657,8.8657,0,0,0-.17,1.7588,9.6214,9.6214,0,0,0,.1533,1.7168,4.103,4.103,0,0,0,.5859,1.5215,3.1991,3.1991,0,0,0,1.1817,1.08,4.08,4.08,0,0,0,1.9551.4082h.2548a4.534,4.534,0,0,0,1.5127-.23,3.1519,3.1519,0,0,0,1.0625-.6035,2.56,2.56,0,0,0,.6289-.833,2.1739,2.1739,0,0,0,.2129-.918Z"/><path class="cls-1" d="M232.2493,48.3936h-7.14v3.9609h6.7315v1.2578H225.11V57.59h7.3272v1.292H223.426v-11.78h8.8233Z"/><path class="cls-1" d="M10.0652,35a4.0582,4.0582,0,0,1-1.9-.4,26.86,26.86,0,0,0,3,11h0a8.6655,8.6655,0,0,1,4.4-7l-3.4-4.1A5.3742,5.3742,0,0,1,10.0652,35Z"/><path class="cls-1" d="M39.0652,56l-11.6-4.5a9.0393,9.0393,0,0,1-7.4,3.9h-.7a28.0289,28.0289,0,0,0,16.8,5.6,29.5708,29.5708,0,0,0,5.2-.5A6.3968,6.3968,0,0,1,39.0652,56Z"/><path class="cls-1" d="M46.2652,6.9h0a6.2526,6.2526,0,0,1,1.9,4.6,6.7129,6.7129,0,0,1-1.8,4.5l4.7,5.4a7.4566,7.4566,0,0,1,2.6-.4,8.4082,8.4082,0,0,1,8.5,8.4,8.5216,8.5216,0,0,1-16.8,2l-7.5-.9a4.9706,4.9706,0,1,1-4.7-6.5,5.0772,5.0772,0,0,1,5,4.5l7,.9a8.3589,8.3589,0,0,1,4-7.1l-4.4-5.1a6.4808,6.4808,0,0,1-9.6-5.7,6.3367,6.3367,0,0,1,4.8-6.2h0a23.402,23.402,0,0,0-3.8-.3,27.7644,27.7644,0,0,0-12.5,3,7.2573,7.2573,0,0,1-.5,14.5l-1,15.2a9.1009,9.1009,0,0,1,7,8.8,8.8084,8.8084,0,0,1-.6,3.3l10.8,4.2a6.5407,6.5407,0,0,1,6.3-4.9,6.3409,6.3409,0,0,1,6.4,6.5v.5l5.5-4.9h-.3a4.9428,4.9428,0,0,1-5-4.6l-8.7-2.1a5.3064,5.3064,0,0,1-4.4,2.5,5,5,0,1,1,5-5v.4l8.3,2a4.8633,4.8633,0,0,1,4.7-3.4,5.2723,5.2723,0,0,1,4.7,3.2,28.08,28.08,0,0,0-15.6-37.3Z"/><path class="cls-1" d="M20.9652,22.2a7.3209,7.3209,0,0,1-5.2-7,9.9713,9.9713,0,0,1,.2-1.6v-.1a28.1106,28.1106,0,0,0-6.7,11.6c.3,0,.6-.1.8-.1a4.9514,4.9514,0,0,1,5,5,4.762,4.762,0,0,1-1.4,3.4l3.7,4.5a7.4566,7.4566,0,0,1,2.6-.4Z"/></svg>