<?xml version="1.0" encoding="utf-8"?>
<!-- Generator: Adobe Illustrator 18.0.0, SVG Export Plug-In . SVG Version: 6.00 Build 0)  -->
<!DOCTYPE svg PUBLIC "-//W3C//DTD SVG 1.1//EN" "http://www.w3.org/Graphics/SVG/1.1/DTD/svg11.dtd">
<svg version="1.1" id="Layer_1" xmlns="http://www.w3.org/2000/svg" xmlns:xlink="http://www.w3.org/1999/xlink" x="0px" y="0px"
	 viewBox="0 0 262.5 56.4" enable-background="new 0 0 262.5 56.4" xml:space="preserve">
<g>
	<g>
		<g>
			<path fill="#007589" d="M107.3,54.9v-4.1c0-0.3,0-0.6,0-0.9V28c0-4.8,0-14.7-19.1-14.7c-4.2,0-9.9,0.4-14.4,2.7
				c-5.7,3-6.6,7.8-7.2,11.3h15c0.5-2.8,1.6-4.7,5.2-4.7c4.6,0,5.3,1.9,5.4,4.6c-2.4,0.7-4.1,1.1-8.5,1.7
				c-7.1,0.9-11.4,1.6-15.1,5.3c-2.9,2.9-3.4,6.2-3.4,8.6c0,0.3,0,0.6,0,0.9c-0.7,0.1-1.4,0.2-2.1,0.2c-4.3,0-4.3-2.6-4.3-4.2
				l0.2-12.4h7V13.8H59V0H43l-0.1,13.8h-5.6v3.5c-1.8-1.1-4.1-2.2-7.9-3.2c-3-0.7-6.1-1.1-9.1-1.1c-2.6,0-9.5,0.2-14.2,4.7
				c-2.4,2.3-4,5.6-4,9.2c0,8.5,7.4,10.7,11.1,11.8c3.7,1.1,7,1.6,8.4,1.9c1.6,0.2,4,0.6,4,2.6c0,1.8-2.2,2.5-4.2,2.5
				c-1.3,0-3.5-0.2-6.4-1.3c-3.1-1.3-4.6-2.6-6.1-4.1L0,48.4c3.4,2.8,10,8.1,21.5,8.1c12.5,0,19.1-7,19.1-14.9
				c0-4.6-2.3-8.3-6.3-10.5c-2-1-3.7-1.4-10.8-3c-5.4-1.3-6.5-1.6-6.5-3c0-2.1,2.8-2.1,3.4-2.1c4.3,0,7.6,2.1,10.3,3.8l6.4-5.8v6.4
				h5.5l-0.2,16.5c0,2,0,5.6,2.7,8.3c3.2,3.3,8.9,3.3,10.5,3.3c3.3,0,6.5-0.4,10.1-0.9v-7c1.7,4.7,6.1,8.2,13.7,8.2
				c7.5,0,11.3-2.6,13.3-4v3.1H107.3z M91.2,40.9c-1.4,3.1-5.1,4.6-7.4,4.6c-3,0-4-2-4-3.1c0-0.5,0.2-2.3,3.3-3.6
				c1.4-0.5,2.8-0.8,4.1-1.1c1.6-0.5,3.2-1,4.7-1.6C92,37.6,92,39.2,91.2,40.9z"/>
			<g>
				<path fill="#007589" d="M138.7,13.8h-3.6v0c-4.8,0.1-7.6,0.9-11.4,4.3v-3.7h-15.4v39.9c0,0,0,0,0-0.1v0.6h0h0.4h15.5V35.9
					c0.1-2.6,0.2-8.6,9.6-8.6c0.6,0,1.2,0,1.8-0.1h1.3c0.1,0,0.2,0,0.3,0v0h1.5V13.8z"/>
				<path fill="#007589" d="M159.9,11.7h2.9V0.1h-8.4c-8.9,0-9.8,1.3-11.9,2.8c-2.8,3-2.8,5.6-3,8.6v2.3h0v13.5h0v27.6h16V27h7.2
					V13.8h-7.2C155.7,11.7,156.5,11.7,159.9,11.7z"/>
			</g>
		</g>
		<path fill="#007589" d="M258.9,17c-2.5-2.5-6.6-4-11.2-4c-8.3,0-11.4,2.5-12.9,4.3V0h-15.9v38c-0.9-3-2.9-5.4-5.8-7
			c-1.9-1-3.6-1.4-10.8-3c-5.4-1.3-6.4-1.6-6.4-3c0-2.1,2.8-2.1,3.4-2.1c4.3,0,7.6,2.1,10.3,3.8l8.6-7.9c-2.2-1.7-4.6-3.4-10.1-4.7
			c-3-0.7-6.1-1.1-9.1-1.1c-2.6,0-9.5,0.2-14.2,4.7c-2.4,2.3-4,5.6-4,9.2c0,8.5,7.4,10.7,11.1,11.8c3.6,1.1,7,1.6,8.4,1.9
			c1.6,0.2,4,0.6,4,2.6c0,1.8-2.3,2.5-4.2,2.5c-1.3,0-3.5-0.2-6.4-1.3c-3.1-1.3-4.6-2.6-6.1-4.1l-7.9,7.2V13.8h-16v41.1h16v-5.7
			c3.6,2.9,10,7.3,20.5,7.3c10.5,0,16.9-4.9,18.6-11.2v9.7h16V32.2c0-1.9,0.1-6.1,6-6.1c5.6,0,5.7,4,5.7,5.7v23h15.9V28.6
			C262.4,25,262.2,20.5,258.9,17"/>
	</g>
</g>
</svg>
