<svg xmlns="http://www.w3.org/2000/svg" width="196.344" height="20.928" viewBox="0 0 196.344 20.928">
    <defs>
        <style>
            .cls-1{fill:#071d49}.cls-2{fill:none;stroke:#071d49;stroke-width:1.061px;opacity:.25}.cls-3{fill:#0086d6}
        </style>
    </defs>
    <g id="Group_1548" data-name="Group 1548" transform="translate(-34.801 -30)">
        <path id="path" d="M62.554 2.971h-4.283v3.8H57.2V1.9h11.876v4.867H68.1v-3.8h-4.378V16.6h2.628v.876h-6.327V16.6h2.531z" class="cls-1" transform="translate(33.282 29.95)"/>
        <g id="group" transform="translate(103.526 31.85)">
            <path id="path-2" d="M70.6 16.6h1.752V2.776H70.6V1.9h2.92v6.133a3.249 3.249 0 0 1 3.31-2.044c2.336 0 3.407 1.363 3.407 4.186V16.6h1.655v.876h-4.673V16.6h1.85v-6.426c0-2.336-.876-3.31-2.628-3.31s-2.92 1.655-2.92 4.186v5.55h1.752v.876H70.6z" class="cls-1" data-name="path" transform="translate(-70.6 -1.9)"/>
            <path id="path-3" d="M91.48 11.259c-.1-2.628-1.265-4.283-3.5-4.283-1.947 0-3.31 1.752-3.5 4.283zm-7.009.973c0 2.92 1.363 4.77 3.6 4.77a3.084 3.084 0 0 0 3.31-2.726h1.071a4.07 4.07 0 0 1-4.283 3.7c-3.31 0-4.77-2.434-4.77-5.938 0-3.407 1.558-5.938 4.77-5.938 3.31 0 4.575 3.018 4.575 6.133z" class="cls-1" data-name="path" transform="translate(-70.94 -2.012)"/>
            <path id="path-4" d="M102.567 3.847v5.062h1.557a3.577 3.577 0 0 0 2.434-.681 2.708 2.708 0 0 0 .779-2.044 2.594 2.594 0 0 0-.876-1.947 3.2 3.2 0 0 0-1.947-.389h-1.947zM97.7 17.475v-1.947h1.85V3.847H97.7V1.9h7.5a6.152 6.152 0 0 1 3.7.876 4.049 4.049 0 0 1 1.46 3.31 3.754 3.754 0 0 1-3.407 3.894c1.85.195 2.142.876 2.531 2.531l.876 3.018h1.265v1.947h-3.894c-.487-1.46-1.071-5.062-2.044-6.133-.487-.487-1.071-.389-1.655-.389h-1.46v4.575h1.85v1.947z" class="cls-1" data-name="path" transform="translate(-71.32 -1.9)"/>
            <path id="path-5" d="M119.914 15.528a3.385 3.385 0 0 0 2.336-.584 2.651 2.651 0 0 0 .876-2.044 2.446 2.446 0 0 0-.973-2.044 4.375 4.375 0 0 0-2.239-.389h-1.947v5.062zM117.87 3.847v4.672h1.752a3.918 3.918 0 0 0 2.336-.487 2.894 2.894 0 0 0 .779-1.947 2.032 2.032 0 0 0-1.168-2.044 6.879 6.879 0 0 0-2.434-.195h-1.265zm3.115-1.947a5.142 5.142 0 0 1 3.407.876 3.9 3.9 0 0 1 1.266 3.018 3.359 3.359 0 0 1-3.018 3.6 3.684 3.684 0 0 1 3.407 3.894 4.024 4.024 0 0 1-2.142 3.6 8.839 8.839 0 0 1-3.894.584H113.1v-1.944h1.752V3.847H113.1V1.9h7.885z" class="cls-1" data-name="path" transform="translate(-71.729 -1.9)"/>
        </g>
        <path id="path-6" d="M127.8 17.475v-1.947h1.85V3.847h-1.85V1.9h7.2v1.947h-2.336v11.681h4.575v-3.6h2.628v5.549z" class="cls-1" data-name="path" transform="translate(31.407 29.95)"/>
        <path id="path-7" d="M155.189 1.889h1.071v5.452h-1.071c-.1-2.823-1.85-4.673-4.478-4.673-3.115 0-5.549 2.336-5.549 7.009s2.434 7.009 5.354 7.009 4.673-1.947 4.673-4.867v-1.071h-2.531v-.876h5.549v.876h-1.85v6.717h-1.168v-2.531h-.1c-.487 1.655-2.628 2.726-4.478 2.726-4.575 0-6.814-3.7-6.814-8.08 0-4.283 2.239-8.08 6.911-8.08a4.4 4.4 0 0 1 4.38 2.628V1.889z" class="cls-1" data-name="path" transform="translate(30.982 29.96)"/>
        <path id="path-8" d="M159.5 16.711h1.752V7.268H159.5v-.876h2.92v2.044a3.162 3.162 0 0 1 2.92-2.336c.292 0 .487 0 .584.1v1.068c-.1 0-.389-.1-.487-.1-2.044 0-3.018 1.752-3.018 4.088v5.451h2.142v.876H159.5z" class="cls-1" data-name="path" transform="translate(30.565 29.838)"/>
        <path id="path-9" d="M171.97 17c2.044 0 3.6-1.85 3.6-4.965 0-2.726-1.168-4.965-3.6-4.965-2.044 0-3.6 1.85-3.6 4.965-.1 2.726 1.168 4.965 3.6 4.965m0-10.9c3.31 0 4.77 2.434 4.77 5.938 0 3.407-1.85 5.938-4.77 5.938-3.018 0-4.77-2.434-4.77-5.938-.1-3.5 1.752-5.938 4.77-5.938" class="cls-1" data-name="path" transform="translate(30.361 29.838)"/>
        <path id="path-10" d="M178.1 6.4h2.823v7.4c0 2.239.876 3.212 2.531 3.212s2.92-1.558 2.92-4.088V7.276h-1.752V6.4h2.92v10.319h1.752v.876h-2.92v-1.85a3.41 3.41 0 0 1-3.31 2.142c-2.336 0-3.407-1.363-3.407-4.186V7.276H178V6.4z" class="cls-1" data-name="path" transform="translate(30.074 29.83)"/>
        <path id="path-11" d="M196.53 6.973c-2.628 0-3.5 2.628-3.5 5.159 0 3.7 1.947 4.77 3.5 4.77 2.434 0 3.6-2.239 3.6-4.965s-1.265-4.965-3.6-4.965m-6.23-.584h2.92v2.046A3.72 3.72 0 0 1 196.919 6c1.85 0 4.478 1.168 4.478 5.938 0 3.407-1.558 5.938-4.478 5.938a3.824 3.824 0 0 1-3.7-2.239v4.575h1.752v.876H190.3v-.876h1.752V7.265H190.3z" class="cls-1" data-name="path" transform="translate(29.747 29.841)"/>
        <path id="line" d="M0 0v20.053" class="cls-2" transform="translate(79.774 30)"/>
        <path id="path-12" d="M34.265 15.38v1.947h-2.628a5.374 5.374 0 0 1-3.8-1.558 5.436 5.436 0 0 1-1.558-3.894V0h1.951v11.876a3.457 3.457 0 0 0 .97 2.434 3.164 3.164 0 0 0 2.434 1.071zm-2.628 2.726h2.628v1.947h-2.628a8.007 8.007 0 0 1-7.009-4.283 8.007 8.007 0 0 1-7.009 4.283 8.228 8.228 0 0 1-8.08-8.274V8.372H8.08a3.318 3.318 0 0 0-2.434 1.07 3.64 3.64 0 0 0-.973 2.434v7.788H2.726v-7.788a5.436 5.436 0 0 1 1.557-3.894 5.374 5.374 0 0 1 3.8-1.558H9.54v-.875H8.08a6.213 6.213 0 0 0-6.133 6.327v7.788H0v-7.788A8.165 8.165 0 0 1 8.08 3.6h1.46V0h1.947v11.876a6.133 6.133 0 1 0 12.265 0 6.129 6.129 0 0 0-6.133-6.23h-3.407v.779h3.31a5.374 5.374 0 0 1 3.8 1.558 5.436 5.436 0 0 1 1.558 3.894 5.436 5.436 0 0 1-1.558 3.894 5.374 5.374 0 0 1-3.8 1.558 5.374 5.374 0 0 1-3.8-1.558 5.436 5.436 0 0 1-1.558-3.894V0h1.947v3.6h3.407a7.774 7.774 0 0 1 6.035 2.823V0H25.5v11.876a6.191 6.191 0 0 0 6.137 6.23zM14.115 8.372v3.5a3.457 3.457 0 0 0 .973 2.434 3.164 3.164 0 0 0 2.434 1.071 3.318 3.318 0 0 0 2.434-1.071 3.64 3.64 0 0 0 .973-2.434 3.457 3.457 0 0 0-.973-2.434 3.318 3.318 0 0 0-2.434-1.071z" class="cls-3" data-name="path" transform="translate(34.801 30)"/>
    </g>
</svg>
