<?xml version="1.0" encoding="utf-8"?>
<!-- Generator: Adobe Illustrator 23.0.1, SVG Export Plug-In . SVG Version: 6.00 Build 0)  -->
<svg version="1.1" id="Layer_1" xmlns="http://www.w3.org/2000/svg" xmlns:xlink="http://www.w3.org/1999/xlink" x="0px" y="0px"
	 viewBox="0 0 230 55" style="enable-background:new 0 0 230 55;" xml:space="preserve">
<style type="text/css">
	.st0{fill:#005984;}
	.st1{fill:#FF4713;}
	.st2{fill:#383942;}
</style>
<path class="st0" d="M32.005,8.398 M42.129,12.892l10.579,18.329L39.531,54.044H13.177L0,31.221L13.177,8.398h16.334l-5.435,9.415
	h-5.463l-7.741,13.408l7.741,13.408h15.482l7.741-13.408l-5.143-8.914L42.129,12.892z"/>
<path class="st1" d="M39.538,35.227l-5.15-8.926l7.739-13.407h15.478l7.739,13.407l-7.739,13.407h-5.81l-5.442,9.415h16.694
	l13.171-22.822L63.048,3.479H36.685L23.513,26.302l10.582,18.327L39.538,35.227z"/>
<path class="st2" d="M98.85,7.171c-3.08,0-5.683,0.598-8.7,1.999l-0.324,0.15l1.307,3.61l0.362-0.18
	c1.942-0.883,4.129-1.7,6.972-1.7c2.133,0,3.782,0.519,4.904,1.544c1.147,1.022,1.729,2.553,1.729,4.551v0.346
	c-2.307-0.628-4.368-0.897-6.846-0.897c-3.071,0-5.658,0.702-7.481,2.031c-1.927,1.414-2.945,3.509-2.945,6.057
	c0,3.064,1.578,4.901,2.901,5.901c1.673,1.255,3.892,1.946,6.25,1.946c4.028,0,6.607-1.797,8.121-3.437v2.144
	c0,0.432,0.351,0.783,0.783,0.783h2.539c0.432,0,0.783-0.351,0.783-0.783V17.116c0-3.208-0.908-5.699-2.702-7.405
	C104.717,8.026,102.142,7.171,98.85,7.171z M104.55,20.727c0.348,0.088,0.594,0.41,0.594,0.769l0,1.416
	c0,1.673-0.768,3.211-2.162,4.332c-1.406,1.118-3.29,1.734-5.308,1.734c-1.524,0-2.922-0.421-3.935-1.183
	c-1.051-0.818-1.606-1.938-1.606-3.24c0-1.392,0.545-2.511,1.617-3.322c1.121-0.822,2.801-1.257,4.86-1.257
	C100.609,19.976,102.56,20.222,104.55,20.727z M126.943,6.978c-0.002,0-0.003,0-0.006,0c-2.772,0-5.206,1.008-7.262,3.001
	c-0.504,0.489-1.342,0.162-1.342-0.541l0-6.403c0-0.258-0.127-0.5-0.341-0.646l-2.697-1.846c-0.52-0.356-1.225,0.016-1.225,0.646
	v30.047c0,0.432,0.351,0.783,0.783,0.783h2.697c0.432,0,0.783-0.351,0.783-0.783v-1.364c0-0.566,0.677-0.839,1.08-0.442
	c2.087,2.057,4.609,3.097,7.522,3.097c0.003,0,0.006,0,0.008,0c2.968,0,5.888-1.236,8.01-3.39c1.638-1.663,3.591-4.644,3.589-9.403
	c0.001-4.782-1.961-7.756-3.606-9.408C132.819,8.198,129.906,6.978,126.943,6.978z M134.203,19.772
	c-0.01,5.269-3.18,8.816-7.886,8.827c-3.99-0.001-8.119-3.318-8.121-8.865c0.002-5.523,4.131-8.825,8.121-8.827
	C130.229,10.912,134.195,13.96,134.203,19.772z M147.523,10.403c2.047-2.308,4.78-3.52,7.8-3.389l0.42,0.019v4.521h-0.694
	c-5.395,0-8.882,4.164-8.882,10.607v9.134c0,0.432-0.351,0.783-0.783,0.783h-2.56c-0.432,0-0.783-0.351-0.783-0.783V8.208
	c0-0.432,0.351-0.783,0.783-0.783h2.56c0.432,0,0.783,0.351,0.783,0.783v1.675C146.166,10.598,147.049,10.938,147.523,10.403z
	 M159.528,31.296V8.208c0-0.432,0.351-0.783,0.783-0.783h2.868c0.432,0,0.783,0.351,0.783,0.783v23.088
	c0,0.432-0.351,0.783-0.783,0.783h-2.868C159.878,32.079,159.528,31.728,159.528,31.296z M188.542,9.505
	c0,0.555-0.657,0.836-1.064,0.458c-2.14-1.983-4.727-2.985-7.714-2.985c-0.003,0-0.005,0-0.008,0
	c-2.91,0.001-5.783,1.135-7.882,3.112c-2.285,2.15-3.542,5.179-3.541,8.528c-0.001,3.334,1.251,6.344,3.526,8.474
	c2.093,1.961,4.971,3.086,7.897,3.086c0.003,0,0.005,0,0.008,0c3.491,0,6.386-1.415,8.838-4.324v1.305
	c-0.001,2.617-0.745,4.656-2.214,6.059c-1.87,1.787-4.919,2.447-8.615,1.798c-1.177-0.207-2.318-0.6-3.407-1.091l-0.281-0.127
	l-1.415,3.612l0.339,0.144c2.324,0.98,4.838,1.478,7.472,1.478c0.001,0,0.002,0,0.003,0c3.726,0,6.817-1.041,8.937-3.009
	c2.215-2.055,3.385-5.147,3.383-8.943V8.271c0-0.432-0.351-0.783-0.783-0.783h-2.696c-0.432,0-0.783,0.351-0.783,0.783V9.505z
	 M186.166,24.167c-1.524,1.348-3.61,2.121-5.723,2.121c-4.427-0.006-7.767-3.337-7.769-7.749c0.007-4.505,3.202-7.66,7.769-7.671
	c2.119,0,4.205,0.768,5.724,2.106c1.643,1.45,2.512,3.387,2.513,5.604C188.677,20.749,187.785,22.734,186.166,24.167z
	 M218.234,10.748c-2.346-2.432-5.544-3.771-9.006-3.771c-0.001,0-0.003,0-0.005,0c-3.486,0-6.706,1.354-9.069,3.813
	c-2.312,2.406-3.587,5.617-3.586,9.04c-0.001,3.411,1.261,6.598,3.552,8.975c2.337,2.425,5.535,3.761,9.005,3.761
	c0.002-0.001,0.004,0,0.005,0c3.486,0,6.71-1.352,9.078-3.809c2.319-2.406,3.597-5.611,3.596-9.024
	C221.804,16.325,220.537,13.134,218.234,10.748z M209.226,28.637c-4.649-0.001-8.293-3.912-8.297-8.903
	c0.008-5.133,3.457-8.862,8.199-8.866c4.67,0.001,8.331,3.939,8.336,8.963C217.457,24.849,213.915,28.634,209.226,28.637z
	 M98.752,52.751v-3.448c0-1.252-0.648-1.98-1.719-1.98c-0.978,0-1.832,0.751-1.832,2.049v3.379h-0.558v-3.482
	c0-1.207-0.66-1.946-1.696-1.946c-1.036,0-1.855,0.911-1.855,2.083v3.345h-0.558v-5.803h0.558v1.035
	c0.375-0.604,0.899-1.172,1.934-1.172c1.013,0,1.639,0.58,1.958,1.251c0.375-0.648,1.001-1.251,2.093-1.251
	c1.377,0,2.231,0.967,2.231,2.424v3.516H98.752z M105.168,52.751v-0.967c-0.399,0.558-1.116,1.104-2.22,1.104
	c-1.081,0-2.242-0.614-2.242-1.82v-0.024c0-1.206,1.036-1.889,2.538-1.889c0.808,0,1.366,0.102,1.924,0.251v-0.251
	c0-1.172-0.718-1.776-1.912-1.776c-0.706,0-1.286,0.194-1.822,0.467l-0.205-0.49c0.638-0.297,1.264-0.501,2.06-0.501
	c1.491,0,2.424,0.774,2.424,2.277v3.618H105.168z M105.179,49.918c-0.489-0.125-1.138-0.261-1.969-0.261
	c-1.229,0-1.912,0.546-1.912,1.353v0.024c0,0.843,0.797,1.331,1.685,1.331c1.183,0,2.196-0.728,2.196-1.786V49.918z M111.813,52.751
	l-2.299-2.833l-1.411,1.423v1.411h-0.558v-8.308h0.558v6.225l3.596-3.721h0.74l-2.538,2.571l2.617,3.232H111.813z M115.931,52.364
	c0.899,0,1.513-0.398,1.991-0.909l0.387,0.341c-0.592,0.637-1.286,1.092-2.401,1.092c-1.525,0-2.845-1.218-2.845-3.026v-0.024
	c0-1.684,1.183-3.026,2.754-3.026c1.627,0,2.663,1.319,2.663,3.038v0.022c0,0.08,0,0.114-0.01,0.205h-4.815
	C113.757,51.523,114.793,52.364,115.931,52.364z M117.878,49.576c-0.08-1.172-0.752-2.253-2.083-2.253
	c-1.15,0-2.037,0.967-2.14,2.253H117.878z M126.126,52.888c-1.161,0-1.913-0.66-2.391-1.389v1.252h-0.556v-8.308h0.556v3.801
	c0.501-0.763,1.242-1.433,2.391-1.433c1.399,0,2.822,1.126,2.822,3.016v0.022C128.948,51.738,127.525,52.888,126.126,52.888z
	 M128.344,49.849c0-1.525-1.058-2.504-2.276-2.504c-1.206,0-2.368,1.013-2.368,2.492v0.024c0,1.491,1.161,2.492,2.368,2.492
	c1.264,0,2.276-0.923,2.276-2.482V49.849z M130.528,45.433v-0.763h0.694v0.763H130.528z M130.596,52.751v-5.803h0.558v5.803H130.596
	z M135.728,54.595c-0.967,0-1.866-0.295-2.663-0.887l0.329-0.455c0.696,0.534,1.491,0.819,2.345,0.819
	c1.332,0,2.276-0.763,2.276-2.253v-0.843c-0.5,0.718-1.274,1.344-2.424,1.344c-1.399,0-2.788-1.07-2.788-2.732v-0.022
	c0-1.673,1.389-2.753,2.788-2.753c1.161,0,1.946,0.614,2.424,1.297v-1.16h0.558v4.904C138.573,53.616,137.379,54.595,135.728,54.595
	z M138.049,49.553c0-1.343-1.194-2.207-2.4-2.207c-1.218,0-2.243,0.843-2.243,2.197v0.022c0,1.308,1.047,2.219,2.243,2.219
	c1.206,0,2.4-0.887,2.4-2.207V49.553z M145.694,52.853c-0.898,0-1.627-0.49-1.627-1.593V47.46h-0.841v-0.512h0.841v-1.856h0.558
	v1.856h2.038v0.512h-2.038v3.744c0,0.831,0.49,1.126,1.161,1.126c0.283,0,0.524-0.056,0.853-0.205v0.524
	C146.344,52.785,146.059,52.853,145.694,52.853z M152.557,52.751v-3.448c0-1.196-0.672-1.98-1.844-1.98
	c-1.138,0-2.015,0.865-2.015,2.071v3.357h-0.558v-8.308h0.558v3.584c0.387-0.682,1.035-1.217,2.093-1.217
	c1.469,0,2.323,1.001,2.323,2.39v3.55H152.557z M154.956,45.433v-0.763h0.694v0.763H154.956z M155.024,52.751v-5.803h0.558v5.803
	H155.024z M162.023,52.751v-3.448c0-1.196-0.672-1.98-1.844-1.98c-1.138,0-2.015,0.865-2.015,2.071v3.357h-0.558v-5.803h0.558v1.08
	c0.387-0.682,1.035-1.217,2.095-1.217c1.467,0,2.32,1.001,2.32,2.39v3.55H162.023z M166.96,54.595c-0.969,0-1.866-0.295-2.664-0.887
	l0.331-0.455c0.694,0.534,1.491,0.819,2.344,0.819c1.332,0,2.277-0.763,2.277-2.253v-0.843c-0.501,0.718-1.274,1.344-2.424,1.344
	c-1.4,0-2.789-1.07-2.789-2.732v-0.022c0-1.673,1.389-2.753,2.789-2.753c1.16,0,1.945,0.614,2.424,1.297v-1.16h0.558v4.904
	C169.805,53.616,168.61,54.595,166.96,54.595z M169.282,49.553c0-1.343-1.196-2.207-2.402-2.207c-1.218,0-2.242,0.843-2.242,2.197
	v0.022c0,1.308,1.046,2.219,2.242,2.219c1.206,0,2.402-0.887,2.402-2.207V49.553z M173.627,52.865c-0.843,0-1.764-0.341-2.378-0.843
	l0.329-0.444c0.637,0.49,1.343,0.763,2.083,0.763c0.785,0,1.399-0.432,1.399-1.104v-0.022c0-0.684-0.727-0.934-1.536-1.161
	c-0.945-0.273-1.992-0.558-1.992-1.593v-0.022c0-0.933,0.785-1.605,1.912-1.605c0.694,0,1.479,0.251,2.06,0.638l-0.297,0.466
	c-0.534-0.353-1.172-0.58-1.786-0.58c-0.797,0-1.32,0.432-1.32,1.013v0.022c0,0.648,0.785,0.887,1.616,1.126
	c0.933,0.262,1.912,0.604,1.912,1.629v0.022C175.63,52.205,174.743,52.865,173.627,52.865z M184.892,52.751v-3.448
	c0-1.196-0.672-1.98-1.844-1.98c-1.138,0-2.015,0.865-2.015,2.071v3.357h-0.558v-8.308h0.558v3.584
	c0.387-0.682,1.035-1.217,2.095-1.217c1.469,0,2.322,1.001,2.322,2.39v3.55H184.892z M191.263,52.751v-0.967
	c-0.399,0.558-1.116,1.104-2.221,1.104c-1.08,0-2.242-0.614-2.242-1.82v-0.024c0-1.206,1.037-1.889,2.538-1.889
	c0.808,0,1.366,0.102,1.924,0.251v-0.251c0-1.172-0.718-1.776-1.912-1.776c-0.706,0-1.286,0.194-1.822,0.467l-0.205-0.49
	c0.638-0.297,1.264-0.501,2.06-0.501c1.491,0,2.424,0.774,2.424,2.277v3.618H191.263z M191.274,49.918
	c-0.488-0.125-1.138-0.261-1.969-0.261c-1.228,0-1.912,0.546-1.912,1.353v0.024c0,0.843,0.797,1.331,1.685,1.331
	c1.182,0,2.196-0.728,2.196-1.786V49.918z M196.588,52.888c-1.161,0-1.912-0.66-2.39-1.389v3.074h-0.558v-7.625h0.558v1.297
	c0.5-0.763,1.24-1.433,2.39-1.433c1.4,0,2.823,1.126,2.823,3.016v0.022C199.411,51.738,197.988,52.888,196.588,52.888z
	 M198.807,49.849c0-1.525-1.059-2.504-2.276-2.504c-1.207,0-2.368,1.013-2.368,2.492v0.024c0,1.491,1.16,2.492,2.368,2.492
	c1.263,0,2.276-0.923,2.276-2.482V49.849z M203.925,52.888c-1.16,0-1.911-0.66-2.389-1.389v3.074h-0.559v-7.625h0.559v1.297
	c0.5-0.763,1.24-1.433,2.389-1.433c1.4,0,2.823,1.126,2.823,3.016v0.022C206.748,51.738,205.326,52.888,203.925,52.888z
	 M206.146,49.849c0-1.525-1.059-2.504-2.277-2.504c-1.206,0-2.366,1.013-2.366,2.492v0.024c0,1.491,1.16,2.492,2.366,2.492
	c1.264,0,2.277-0.923,2.277-2.482V49.849z M210.787,52.364c0.899,0,1.513-0.398,1.991-0.909l0.387,0.341
	c-0.592,0.637-1.286,1.092-2.402,1.092c-1.525,0-2.845-1.218-2.845-3.026v-0.024c0-1.684,1.184-3.026,2.755-3.026
	c1.627,0,2.663,1.319,2.663,3.038v0.022c0,0.08,0,0.114-0.01,0.205h-4.814C208.613,51.523,209.647,52.364,210.787,52.364z
	 M212.733,49.576c-0.08-1.172-0.752-2.253-2.083-2.253c-1.15,0-2.037,0.967-2.139,2.253H212.733z M219.207,52.751v-3.448
	c0-1.196-0.672-1.98-1.844-1.98c-1.138,0-2.015,0.865-2.015,2.071v3.357h-0.558v-5.803h0.558v1.08
	c0.387-0.682,1.035-1.217,2.095-1.217c1.467,0,2.32,1.001,2.32,2.39v3.55H219.207z M221.469,52.751v-0.967h0.751v0.967H221.469z
	 M163.962,3.135v1.403c0,0.432-0.351,0.783-0.783,0.783h-2.868c-0.432,0-0.783-0.351-0.783-0.783V3.464v-2.25V1.182
	c0-0.027,0.013-0.049,0.015-0.075c0.005-0.053,0.016-0.105,0.031-0.155c0.019-0.056,0.041-0.109,0.071-0.157
	c0.006-0.011,0.014-0.021,0.021-0.031c0.103-0.158,0.256-0.272,0.443-0.323c0.045-0.012,0.09-0.024,0.138-0.028
	c0.185-0.023,0.38,0.011,0.555,0.131l2.805,1.92C163.829,2.615,163.962,2.866,163.962,3.135z M220.855,3.839h3.687v0.261h-1.687
	v4.062h-0.302V4.099h-1.698V3.839z M230,3.839v4.322h-0.292V4.391l-2,3.187h-0.156l-2.01-3.156v3.739h-0.281V3.839h0.25l2.114,3.374
	l2.114-3.374H230z"/>
</svg>
