<?xml version="1.0" encoding="UTF-8"?>
<svg width="150px" height="23px" viewBox="0 0 150 23" version="1.1" xmlns="http://www.w3.org/2000/svg" xmlns:xlink="http://www.w3.org/1999/xlink">
    <title>Logo</title>
    <g id="Page-1" stroke="none" stroke-width="1" fill="none" fill-rule="evenodd">
        <g id="01_Homepage" transform="translate(-215.000000, -24.000000)" fill-rule="nonzero">
            <g id="Logo" transform="translate(215.000000, 24.000000)">
                <path d="M74.4575163,21.1437908 C73.1851852,22.3405955 71.5809731,22.9389978 69.6448802,22.9389978 C67.7087872,22.9389978 66.1045752,22.3435004 64.832244,21.1525054 C63.5628177,19.9615105 62.9281046,18.4669572 62.9281046,16.6688453 L62.9281046,6.33660131 C62.9281046,4.55010893 63.5628177,3.05846042 64.832244,1.86165577 C66.1016703,0.664851126 67.7058824,0.0664488017 69.6448802,0.0664488017 C71.5824256,0.0664488017 73.1866376,0.664851126 74.4575163,1.86165577 C75.7283951,3.05846042 76.3631082,4.55010893 76.3616583,6.33660131 L76.3616583,16.6666667 C76.3616583,18.4546115 75.7269426,19.9469862 74.4575163,21.1437908 Z M67.6470588,19.0566449 C68.7908997,20.0531215 70.4945033,20.0531215 71.6383442,19.0566449 C72.1975309,18.5591866 72.4771242,17.8119099 72.4771242,16.8148148 L72.4771242,6.19063181 C72.4771242,5.19426289 72.1975309,4.4469862 71.6383442,3.94880174 C70.4945033,2.95232508 68.7908997,2.95232508 67.6470588,3.94880174 C67.0885984,4.44625999 66.8090051,5.19353667 66.8082789,6.19063181 L66.8082789,16.8148148 C66.8097313,17.8119099 67.0893246,18.5591866 67.6470588,19.0566449 Z" id="Shape" fill="#142D4B"></path>
                <path d="M20.7461874,22.4575163 L20.7461874,0.58496732 C20.7461874,0.444188855 20.8603109,0.330065359 21.0010893,0.330065359 L25.0054466,0.330065359 C25.1462251,0.330065359 25.2603486,0.444188855 25.2603486,0.58496732 L25.2603486,22.4575163 C25.2603486,22.6013029 25.1437866,22.7178649 25,22.7178649 L21.0065359,22.7178649 C20.8627494,22.7178649 20.7461874,22.6013029 20.7461874,22.4575163 Z" id="Path" fill="#37640A"></path>
                <path d="M13.839869,22.4575163 L13.839869,8.22875817 C13.8396829,8.04017775 13.9476919,7.8682105 14.1176471,7.78649237 L17.8649237,5.98148148 C17.9714942,5.93000727 18.0970683,5.93708498 18.1971798,6.00020835 C18.2972912,6.06333172 18.3578071,6.1735895 18.3573017,6.291939 L18.3573017,22.4575163 C18.3573017,22.6013029 18.2407364,22.7178649 18.0969499,22.7178649 L14.1002179,22.7178649 C14.0311691,22.7178649 13.9649484,22.6904354 13.9161236,22.6416106 C13.8672988,22.5927858 13.839869,22.5265651 13.839869,22.4575163 Z" id="Path" fill="#509128"></path>
                <path d="M18.3605687,0.578431373 L18.3605687,3.50980392 C18.3606919,3.69806214 18.2532267,3.86983721 18.083878,3.95206972 L14.332244,5.75599129 C14.2258482,5.80737987 14.1004977,5.8004138 14.0004511,5.73755264 C13.9004045,5.67469147 13.8397371,5.56477909 13.8398691,5.44662309 L13.8398691,0.58496732 C13.8401507,0.516501549 13.8678466,0.451001688 13.9167687,0.403103109 C13.9656907,0.35520453 14.0317614,0.328899396 14.1002179,0.330065359 L18.1002179,0.316993464 C18.1694558,0.316993464 18.2358421,0.344571845 18.2846983,0.39363253 C18.3335546,0.442693214 18.3608561,0.509194088 18.3605687,0.578431373 L18.3605687,0.578431373 Z" id="Path" fill="#41D2F5"></path>
                <path d="M6.94117623,22.4575163 L6.94117623,11.4891068 C6.9409901,11.3005263 7.04899909,11.1285591 7.21895425,11.046841 L10.9694989,9.24183007 C11.0760694,9.19035586 11.2016435,9.19743356 11.3017549,9.26055693 C11.4018664,9.3236803 11.4623823,9.43393808 11.4618768,9.55228758 L11.4618768,22.4575163 C11.4618768,22.6013029 11.3453116,22.7178649 11.2015251,22.7178649 L7.20152505,22.7178649 C7.0577385,22.7178649 6.94117623,22.6013029 6.94117623,22.4575163 Z" id="Path" fill="#96B964"></path>
                <path d="M11.4901984,0.578431373 L11.4901984,6.77015251 C11.4903824,6.95873293 11.3823735,7.13070017 11.2124183,7.2124183 L7.46187364,9.01742919 C7.35516509,9.06876785 7.22955969,9.06165429 7.12932994,8.99859583 C7.02910018,8.93553738 6.96831881,8.82538774 6.96840948,8.70697168 L6.96840948,0.58496732 C6.968691,0.516501549 6.99638695,0.451001688 7.045309,0.403103109 C7.09423105,0.35520453 7.16030175,0.328899396 7.22875817,0.330065359 L11.2287582,0.316991172 C11.2981846,0.316702364 11.3648517,0.344153147 11.413944,0.39324551 C11.4630364,0.442337873 11.4904872,0.509004897 11.4901984,0.578431373 Z" id="Path" fill="#41D2F5"></path>
                <path d="M0.0413943355,22.4575163 L0.0413943355,14.7494553 C0.0417324745,14.5610261 0.149580878,14.3893145 0.319172113,14.3071895 L4.06971678,12.5021786 C4.17642532,12.45084 4.30203072,12.4579536 4.40226047,12.521012 C4.50249023,12.5840705 4.56327161,12.6942201 4.56318093,12.8126362 L4.56318093,22.4575163 C4.56318093,22.6013029 4.4466188,22.7178649 4.30283224,22.7178649 L0.302832244,22.7178649 C0.158868414,22.7178649 0.0419941848,22.6014789 0.0413943355,22.4575163 Z" id="Path" fill="#B4E66E"></path>
                <path d="M4.56318083,0.729847495 L4.56318083,10.1830065 C4.5093197,10.3104321 4.41044166,10.4135754 4.28540305,10.4727669 L0.534858388,12.2777778 C0.428149839,12.3291164 0.302544443,12.3220029 0.202314689,12.2589444 C0.102084934,12.195886 0.041303555,12.0857363 0.041394234,11.9673203 L0.041394234,0.58496732 C0.0419655268,0.516402122 0.0699036216,0.450906172 0.118998017,0.403039137 C0.168092411,0.355172102 0.234274557,0.328900818 0.302832244,0.330065359 L4.30283224,0.316993464 C4.44662309,0.316993464 4.56318083,0.435729847 4.56318083,0.729847495 Z" id="Path" fill="#41D2F5"></path>
                <path d="M38,3.42265795 L38,10.3278867 L42.4477124,10.3278867 C42.775236,10.3278867 42.9389978,10.4920116 42.9389978,10.8202614 L42.9389978,12.9346405 C42.9389978,13.2621641 42.775236,13.426289 42.4477124,13.4270153 L38,13.4270153 L38,19.5882353 L44.2701525,19.5882353 C44.5976761,19.5882353 44.761801,19.7519971 44.7625272,20.0795207 L44.7625272,22.2309368 C44.7625272,22.5584604 44.5984023,22.7225853 44.2701525,22.7233225 L34.754902,22.7233225 C34.5875815,22.7243004 34.4267967,22.6584179 34.3082789,22.540305 C34.1826096,22.4227248 34.113231,22.2570091 34.1176471,22.0849673 L34.1176471,0.961873638 C34.1256799,0.613128489 34.406171,0.332157853 34.754902,0.323529412 L44.2701525,0.323529412 C44.5976761,0.323529412 44.761801,0.487654321 44.7625272,0.815904139 L44.7625272,2.94880174 C44.7625272,3.27705156 44.5984023,3.43500363 44.2701525,3.42265795 L38,3.42265795 Z" id="Path" fill="#142D4B"></path>
                <path d="M60.412854,16.9084967 C60.2915759,18.6456064 59.6016703,20.0853304 58.3431373,21.2276688 C57.0846042,22.3700073 55.5381264,22.9415396 53.7037037,22.9422658 C51.7588962,22.9422658 50.157589,22.3525781 48.8997821,21.1732026 C47.6419753,19.9938272 47.0130719,18.5050835 47.0130719,16.7069717 L47.0130719,6.33877996 C47.0130719,4.55228758 47.6419753,3.06063907 48.8997821,1.86383442 C50.157589,0.667029775 51.7588962,0.068627451 53.7037037,0.068627451 C55.550472,0.068627451 57.1056645,0.645606391 58.369281,1.79956427 C59.6083936,2.90253238 60.3453692,4.46221484 60.4106754,6.11982571 C60.4119533,6.28698954 60.3464719,6.44775229 60.2287582,6.5664488 C60.111209,6.69228596 59.9455772,6.76202566 59.7734205,6.75816993 L57.1688453,6.75816993 C56.819689,6.75011371 56.5385573,6.46898206 56.5305011,6.11982571 C56.5065359,5.12418301 56.2211329,4.389252 55.6742919,3.91503268 C55.1260978,3.44049785 54.4209363,3.18693479 53.6960784,3.2037037 C52.9653001,3.1883376 52.2568769,3.45609426 51.7189542,3.95098039 C51.1721133,4.44989107 50.8986928,5.19716776 50.8986928,6.19281046 L50.8986928,16.8169935 C50.8986928,17.8133624 51.1721133,18.5606391 51.7189542,19.0588235 C52.8421142,20.0551529 54.5326135,20.0551529 55.6557734,19.0588235 C56.2149601,18.5613653 56.5054466,17.8445897 56.5272331,16.9084967 C56.5352893,16.5593404 56.816421,16.2782087 57.1655773,16.2701525 L59.7723312,16.2701525 C60.1210621,16.2787809 60.4015532,16.5597516 60.4095861,16.9084967 L60.412854,16.9084967 Z" id="Path" fill="#142D4B"></path>
                <path d="M110.633987,0.295206972 L114.51634,0.295206972 C114.845316,0.295206972 115.058097,0.502178649 115.154684,0.916122004 L120.043573,22.1023965 C120.140523,22.4825708 119.881264,22.7233115 119.624183,22.7233115 L116.835512,22.7233115 C116.482571,22.7233115 116.25817,22.5163399 116.160131,22.1023965 L115.522876,19.3039216 L109.599129,19.3039216 L108.996732,22.1023965 C108.900145,22.5163399 108.675381,22.7233115 108.32244,22.7233115 L105.655773,22.7233115 C105.238562,22.7233115 105.050109,22.3965142 105.111111,22.1023965 L109.996732,0.916122004 C110.094045,0.502178649 110.306463,0.295206972 110.633987,0.295206972 Z M112.566449,5.82244009 L110.251634,16.2570806 L114.845316,16.2570806 L112.566449,5.82244009 Z" id="Shape" fill="#142D4B"></path>
                <path d="M131.798475,12.9270153 L131.798475,0.916122004 C131.798267,0.750381029 131.86786,0.592213659 131.990196,0.480392157 C132.107753,0.360455707 132.26888,0.293254017 132.436819,0.294117647 L135.043573,0.294117647 C135.211512,0.293254017 135.372639,0.360455707 135.490196,0.480392157 C135.612242,0.592326404 135.681451,0.75052009 135.680838,0.916122004 L135.680838,22.1023965 C135.681759,22.2662942 135.616106,22.4235465 135.498911,22.5381264 C135.379854,22.6611543 135.214721,22.7287086 135.043573,22.7244009 L132.728758,22.7244009 C132.44426,22.7384894 132.187511,22.5548392 132.108932,22.2810458 L126.385621,10.4302832 L126.385621,22.1023965 C126.386645,22.2665296 126.32053,22.4239478 126.202614,22.5381264 C126.083712,22.6613814 125.918474,22.7289784 125.747277,22.7244009 L123.140523,22.7244009 C122.974223,22.725545 122.81402,22.6618545 122.6939,22.546841 C122.568392,22.4340888 122.498369,22.272159 122.502179,22.1034858 L122.502179,0.916122004 C122.502031,0.750381029 122.571564,0.592213659 122.6939,0.480392157 C122.811457,0.360455707 122.972584,0.293254017 123.140523,0.294117647 L125.455338,0.294117647 C125.743169,0.283052016 126.003547,0.46389497 126.093682,0.737472767 L131.798475,12.9270153 Z" id="Path" fill="#142D4B"></path>
                <path d="M142.117647,22.0849673 L142.117647,3.42265795 L138.727669,3.42265795 C138.580259,3.42224912 138.439105,3.36304275 138.335512,3.25816993 C138.225553,3.16150254 138.162462,3.02222591 138.162309,2.87581699 L138.162309,0.888888889 C138.162718,0.741479161 138.221925,0.600324914 138.326797,0.496732026 C138.429361,0.384127659 138.575377,0.321039387 138.727669,0.323458391 L149.389978,0.323458391 C149.696105,0.337816301 149.941051,0.58276248 149.955342,0.888888889 L149.955342,2.87581699 C149.955938,3.02034935 149.896809,3.15871043 149.791939,3.25816993 C149.686553,3.36635898 149.540976,3.42593135 149.389978,3.42265795 L146,3.42265795 L146,22.0849673 C145.991944,22.4341237 145.710812,22.7152553 145.361656,22.7233115 L142.755991,22.7233115 C142.406835,22.7152553 142.125703,22.4341237 142.117647,22.0849673 L142.117647,22.0849673 Z" id="Path" fill="#142D4B"></path>
                <path d="M79.9455338,0.326797386 L85.8518519,0.326797386 C87.6368918,0.326797386 89.1768337,0.907770516 90.4716776,2.06971678 C91.7665214,3.23166304 92.4135802,4.78395062 92.4128546,6.72657952 L92.4128546,10.5882353 C92.4128546,12.5083515 91.7592593,14.0424837 90.4520697,15.1906318 C89.1887851,16.3226519 87.5457822,16.9378544 85.8496732,16.9139434 L83.1895425,16.9139434 L83.1895425,22.0904139 C83.1910634,22.2576243 83.1255453,22.418477 83.0076253,22.537037 C82.8900451,22.6627063 82.7243293,22.7320849 82.5522876,22.7278675 L79.9455338,22.7278675 C79.7783234,22.7291897 79.6174707,22.6636717 79.4989107,22.5457516 C79.3730735,22.4282024 79.3033338,22.2625707 79.3071895,22.0904139 L79.3071895,0.958605664 C79.3186592,0.61200385 79.5988323,0.334699464 79.9455338,0.326797386 L79.9455338,0.326797386 Z M88.5305025,10.4400871 L88.5305025,6.791939 C88.5305025,5.74691358 88.245098,4.92374728 87.6742919,4.32244009 C87.1034858,3.7211329 86.4473493,3.42011619 85.7058824,3.41938998 L83.1895425,3.41938998 L83.1895425,13.8431373 L85.7058824,13.8431373 C86.4466231,13.8431373 87.1027596,13.5363108 87.6742919,12.922658 C88.2458243,12.3090051 88.5312273,11.4796659 88.5305025,10.4346405 L88.5305025,10.4400871 Z" id="Shape" fill="#142D4B"></path>
                <path d="M99.0664488,0.993464052 L99.0664488,19.5882353 L102.832244,19.5882353 C102.925477,19.588098 103.013653,19.6306099 103.07161,19.7036402 C103.129568,19.7766705 103.15094,19.8721977 103.12963,19.962963 L102.593682,22.2570806 C102.529949,22.5299606 102.28676,22.7230681 102.006536,22.723332 L95.8202614,22.723332 C95.6528702,22.7246662 95.4919499,22.6587281 95.3736383,22.540305 C95.2475673,22.4229191 95.1777812,22.2571773 95.1819172,22.0849673 L95.1819172,0.993464052 C95.1819172,0.616851576 95.4872219,0.311543347 95.8638344,0.311543347 L98.3834423,0.311543347 C98.5645752,0.310966979 98.7384723,0.382590473 98.8666554,0.510569165 C98.9948386,0.638547857 99.0667395,0.812330466 99.0664488,0.993464052 Z" id="Path" fill="#142D4B"></path>
            </g>
        </g>
    </g>
</svg>