<?xml version="1.0" encoding="utf-8"?>
<!-- Generator: Adobe Illustrator 24.2.0, SVG Export Plug-In . SVG Version: 6.00 Build 0)  -->
<svg version="1.1" id="Layer_1" xmlns="http://www.w3.org/2000/svg" xmlns:xlink="http://www.w3.org/1999/xlink" x="0px" y="0px"
	 viewBox="0 0 1920 1080" style="enable-background:new 0 0 1920 1080;" xml:space="preserve">
<style type="text/css">
	.st0{fill:#FFFFFF;}
</style>
<g>
	<g>
		<g>
			<path class="st0" d="M351.6,372.9c97.9,0,125.8,61.4,125.8,61.4h1.6c0,0,0-6.2,0-12.4c0-23.3,12.4-39.6,43.5-39.6h73v64.5h-31.1
				c-10.1,0-17.1,5.4-17.1,15.5V759c0,129.7-98.6,179.4-198,179.4c-47.4,0-95.5-13.2-134.4-32.6l25.6-60.6c0,0,48.2,26.4,107.2,26.4
				c68.3,0,124.3-30.3,124.3-109.5v-26.4c0-12.4,1.6-24.9,1.6-24.9H472c-23.3,38.1-59.8,59.8-117.3,59.8
				c-108.7,0-175.5-87.8-175.5-201.1C179.2,456.8,242.1,372.9,351.6,372.9z M474.3,570.2c0-102.5-50.5-132-111.1-132
				c-68.3,0-107.2,49.7-107.2,129.7c0,81.5,42.7,137.5,113.4,137.5C423.8,705.3,474.3,672.7,474.3,570.2z"/>
			<path class="st0" d="M812.9,372.9c47.4,0,141.3,19.4,141.3,86.2v40.4h-68.3v-21.7c0-28-44.3-40.4-73-40.4
				c-76.9,0-134.4,57.5-134.4,140.6c0,89.3,65.2,139.8,138.2,139.8c73.8,0,121.9-54.4,121.9-54.4l32.6,53.6c0,0-55.9,67.6-160,67.6
				c-123.5,0-209.7-87.8-209.7-205.8C601.7,463,686.3,372.9,812.9,372.9z"/>
			<path class="st0" d="M1044.2,664.9c0,0,46.6,58.2,118.8,58.2c36.5,0,68.3-16.3,68.3-50.5c0-70.7-214.4-62.9-214.4-189.5
				c0-75.3,66-110.3,146-110.3c47.4,0,128.9,16.3,128.9,76.1v37.3h-67.6v-19.4c0-23.3-34.9-33.4-59-33.4c-44.3,0-73,15.5-73,46.6
				c0,74.6,214.4,58.2,214.4,189.5c0,69.9-62.1,114.9-144.5,114.9c-104.9,0-156.9-69.1-156.9-69.1L1044.2,664.9z"/>
			<path class="st0" d="M1379.9,382.2h75.3v393h-75.3V382.2z"/>
			<path class="st0" d="M1563.7,442.8h-51.3v-60.6h52.8v-108h73.8v108h94v60.6h-94V623c0,78.4,54.4,88.5,83.1,88.5
				c10.9,0,17.9-1.6,17.9-1.6v66.8c0,0-10.1,1.6-26.4,1.6c-49.7,0-149.9-15.5-149.9-146.8V442.8z"/>
		</g>
		<path class="st0" d="M1399,344.6c-0.6,0-1.2-0.1-1.8-0.3c-2-0.7-3.3-2.7-3.3-4.9l2.9-107.1l-95.7-36.3c-2-0.8-3.4-2.8-3.2-5
			c0.1-2.2,1.6-4,3.7-4.6l277.2-74.3c0.4-0.1,0.9-0.2,1.3-0.2c1.7,0,3.3,0.9,4.2,2.3c1,1.5,0.8,3.1,0.6,3.9c-0.2,0.8-0.5,1.4-1,2
			l-181.3,222.5C1402,344,1400.6,344.6,1399,344.6z"/>
	</g>
</g>
</svg>
