<?xml version="1.0" encoding="UTF-8"?><svg width="483px" height="56px" viewBox="0 0 483 56" version="1.1" xmlns="http://www.w3.org/2000/svg" xmlns:xlink="http://www.w3.org/1999/xlink">        <title>ochsner_health_horizontal_blue_gold</title>    <desc>Created with Sketch.</desc>    <defs>        <polygon id="path-1" points="0.06 0.983 482.33 0.983 482.33 47.434 0.06 47.434"></polygon>    </defs>    <g id="Page-1" stroke="none" stroke-width="1" fill="none" fill-rule="evenodd">        <g id="ochsner_health_horizontal_blue_gold">            <path d="M72.591,33.467 L72.591,33.342 C72.591,25.831 67.082,19.572 59.321,19.572 C51.56,19.572 46.177,25.706 46.177,33.217 L46.177,33.342 C46.177,40.852 51.685,47.112 59.446,47.112 C67.208,47.112 72.591,40.979 72.591,33.467 Z M36.1,33.467 L36.1,33.342 C36.1,20.887 45.927,10.684 59.446,10.684 C72.966,10.684 82.668,20.761 82.668,33.217 L82.668,33.342 C82.668,45.798 72.841,56 59.321,56 C45.802,56 36.1,45.923 36.1,33.467 L36.1,33.467 Z" id="Fill-1" fill="#13477D"></path>            <path d="M85.482,38.662 L85.482,38.537 C85.482,28.961 92.806,21.074 103.07,21.074 C109.393,21.074 113.336,23.202 116.465,26.707 L110.645,32.967 C108.516,30.713 106.388,29.273 103.008,29.273 C98.251,29.273 94.871,33.467 94.871,38.412 L94.871,38.537 C94.871,43.67 98.189,47.801 103.384,47.801 C106.576,47.801 108.767,46.424 111.082,44.233 L116.653,49.866 C113.398,53.434 109.643,56 102.945,56 C92.868,56 85.482,48.239 85.482,38.662" id="Fill-2" fill="#13477D"></path>            <path d="M119.72,9.558 L129.234,9.558 L129.234,26.457 C131.425,23.641 134.241,21.074 139.061,21.074 C146.259,21.074 150.452,25.831 150.452,33.529 L150.452,55.249 L140.938,55.249 L140.938,36.534 C140.938,32.027 138.811,29.712 135.181,29.712 C131.55,29.712 129.234,32.027 129.234,36.534 L129.234,55.249 L119.72,55.249 L119.72,9.558" id="Fill-3" fill="#13477D"></path>            <path d="M152.954,50.805 L157.023,44.546 C160.653,47.175 164.472,48.552 167.601,48.552 C170.355,48.552 171.606,47.55 171.606,46.048 L171.606,45.923 C171.606,43.857 168.353,43.169 164.659,42.042 C159.965,40.665 154.645,38.475 154.645,31.965 L154.645,31.84 C154.645,25.018 160.152,21.199 166.912,21.199 C171.169,21.199 175.801,22.639 179.431,25.08 L175.801,31.652 C172.483,29.712 169.166,28.523 166.725,28.523 C164.409,28.523 163.22,29.523 163.22,30.838 L163.22,30.964 C163.22,32.841 166.412,33.718 170.042,34.97 C174.736,36.534 180.182,38.787 180.182,44.922 L180.182,45.047 C180.182,52.495 174.611,55.875 167.351,55.875 C162.656,55.875 157.398,54.311 152.954,50.805" id="Fill-4" fill="#13477D"></path>            <path d="M193.388,21.7 L193.388,26.457 C195.578,23.641 198.395,21.074 203.214,21.074 C210.412,21.074 214.605,25.831 214.605,33.529 L214.605,55.249 L205.092,55.249 L205.092,36.534 C205.092,32.027 202.964,29.712 199.334,29.712 C195.703,29.712 193.388,32.027 193.388,36.534 L193.388,55.249 L183.873,55.249 L183.873,21.7 L193.388,21.7 Z" id="Fill-5" fill="#13477D"></path>            <path d="M241.77,35.846 C241.207,31.59 238.703,28.71 234.697,28.71 C230.754,28.71 228.188,31.526 227.437,35.846 L241.77,35.846 Z M218.11,38.662 L218.11,38.537 C218.11,28.961 224.933,21.074 234.697,21.074 C245.901,21.074 251.033,29.774 251.033,39.288 C251.033,40.039 250.971,40.916 250.908,41.792 L227.562,41.792 C228.501,46.11 231.505,48.364 235.761,48.364 C238.953,48.364 241.27,47.362 243.898,44.922 L249.344,49.741 C246.214,53.622 241.707,56 235.636,56 C225.559,56 218.11,48.928 218.11,38.662 L218.11,38.662 Z" id="Fill-6" fill="#13477D"></path>            <path d="M254.975,21.7 L264.489,21.7 L264.489,28.46 C266.43,23.828 269.559,20.823 275.192,21.074 L275.192,31.026 L274.691,31.026 C268.369,31.026 264.489,34.844 264.489,42.856 L264.489,55.249 L254.975,55.249 L254.975,21.7" id="Fill-7" fill="#13477D"></path>            <polyline id="Fill-8" fill="#13477D" points="286.387 10.875 294.142 10.875 294.142 29.222 315.2 29.222 315.2 10.875 322.956 10.875 322.956 55.009 315.2 55.009 315.2 36.41 294.142 36.41 294.142 55.009 286.387 55.009 286.387 10.875"></polyline>            <path d="M356.242,36.031 C355.738,31.114 352.837,27.268 347.793,27.268 C343.127,27.268 339.849,30.861 339.156,36.031 L356.242,36.031 Z M331.59,38.49 L331.59,38.364 C331.59,28.844 338.336,21.026 347.857,21.026 C358.449,21.026 363.808,29.348 363.808,38.932 C363.808,39.625 363.745,40.319 363.682,41.075 L339.219,41.075 C340.039,46.498 343.884,49.524 348.802,49.524 C352.522,49.524 355.17,48.137 357.818,45.552 L362.294,49.524 C359.142,53.307 354.792,55.766 348.676,55.766 C339.03,55.766 331.59,48.768 331.59,38.49 L331.59,38.49 Z" id="Fill-9" fill="#13477D"></path>            <path d="M392.114,43.03 L392.114,40.76 C390.159,40.003 387.574,39.436 384.547,39.436 C379.629,39.436 376.729,41.517 376.729,44.984 L376.729,45.11 C376.729,48.326 379.567,50.154 383.223,50.154 C388.267,50.154 392.114,47.254 392.114,43.03 Z M369.226,45.426 L369.226,45.3 C369.226,38.112 374.901,34.582 383.035,34.582 C386.754,34.582 389.402,35.149 391.988,35.968 L391.988,35.149 C391.988,30.42 389.087,27.898 383.728,27.898 C380.008,27.898 377.234,28.718 374.208,29.979 L372.126,23.989 C375.847,22.35 379.441,21.278 384.737,21.278 C389.717,21.278 393.437,22.602 395.77,24.998 C398.229,27.394 399.364,30.924 399.364,35.275 L399.364,55.009 L391.924,55.009 L391.924,50.848 C389.655,53.559 386.187,55.703 381.08,55.703 C374.838,55.703 369.226,52.109 369.226,45.426 L369.226,45.426 Z" id="Fill-10" fill="#13477D"></path>            <polygon id="Fill-11" fill="#13477D" points="408.881 55.009 416.574 55.009 416.574 8.983 408.881 8.983"></polygon>            <path d="M428.11,45.804 L428.11,28.276 L423.885,28.276 L423.885,21.719 L428.11,21.719 L428.11,12.577 L435.739,12.577 L435.739,21.719 L444.692,21.719 L444.692,28.276 L435.739,28.276 L435.739,44.606 C435.739,47.569 437.251,48.768 439.836,48.768 C441.54,48.768 443.052,48.389 444.566,47.632 L444.566,53.875 C442.674,54.946 440.593,55.577 437.693,55.577 C432.082,55.577 428.11,53.118 428.11,45.804" id="Fill-12" fill="#13477D"></path>            <g id="Group-16" transform="translate(0.000000, 8.000000)">                <mask id="mask-2" fill="white">                    <use xlink:href="#path-1"></use>                </mask>                <g id="Clip-14"></g>                <path d="M452.381,0.983 L460.074,0.983 L460.074,18.826 C462.217,15.737 465.306,13.026 470.477,13.026 C477.98,13.026 482.33,18.07 482.33,25.762 L482.33,47.009 L474.701,47.009 L474.701,28.094 C474.701,22.924 472.116,19.961 467.577,19.961 C463.163,19.961 460.074,23.05 460.074,28.221 L460.074,47.009 L452.381,47.009 L452.381,0.983" id="Fill-13" fill="#13477D" mask="url(#mask-2)"></path>                <path d="M19.505,47.434 C21.982,16.626 1.61,15.71 0.086,1.534 C-1.405,21.827 17.061,27.843 19.505,47.434" id="Fill-15" fill="#13477D" mask="url(#mask-2)"></path>            </g>            <path d="M18.181,35.083 C19.562,26.372 32.016,30.695 30.738,0.465 C27.022,23.961 16.113,16.242 18.181,35.083" id="Fill-17" fill="#13477D"></path>            <path d="M19.621,16.273 C19.621,19.422 17.069,21.976 13.918,21.976 C10.768,21.976 8.214,19.422 8.214,16.273 C8.214,13.123 10.768,10.568 13.918,10.568 C17.069,10.568 19.621,13.123 19.621,16.273" id="Fill-18" fill="#E0A42E"></path>        </g>    </g></svg>