<?xml version="1.0" encoding="UTF-8"?> <svg xmlns="http://www.w3.org/2000/svg" xmlns:xlink="http://www.w3.org/1999/xlink" viewBox="0 0 1353.82 240"><defs><style>.cls-1{fill:#343c4c;}.cls-2{fill:url(#linear-gradient);}</style><linearGradient id="linear-gradient" x1="375.8" y1="519.72" x2="376.8" y2="519.72" gradientTransform="matrix(239, 0, 0, -240, -89818.44, 124852.99)" gradientUnits="userSpaceOnUse"><stop offset="0" stop-color="#3186c8"></stop><stop offset="0.18" stop-color="#269fca"></stop><stop offset="0.38" stop-color="#1db4cc"></stop><stop offset="0.5" stop-color="#1abbcd"></stop><stop offset="1" stop-color="#6fc6aa"></stop></linearGradient></defs><title>eightfold-logo---Varela-Round---RGB</title><g id="Layer_2" data-name="Layer 2"><g id="Layer_1-2" data-name="Layer 1"><g id="eightfold-logo-_-Varela-Round-_-RGB" data-name="eightfold-logo-/-Varela-Round-/-RGB"><path id="eightfold.ai" class="cls-1" d="M341.68,177.06q-24.9,0-38.88-14.18t-14-39.9a66.52,66.52,0,0,1,5.31-26.74,45.47,45.47,0,0,1,16.32-19.79q11-7.56,27.14-7.55,15.11,0,26.12,7a45.51,45.51,0,0,1,16.74,18.77,57.73,57.73,0,0,1,5.71,25.62,8.91,8.91,0,0,1-9.39,9.18H307.6q1.63,14.28,10.61,22.25t25.1,8a61.33,61.33,0,0,0,15-1.63,62.51,62.51,0,0,0,12.55-4.69,8,8,0,0,1,3.67-.82,8.16,8.16,0,0,1,5.71,2.25,7.37,7.37,0,0,1,2.45,5.71q0,4.49-5.3,7.55a74.37,74.37,0,0,1-15.72,6.74Q353.92,177.06,341.68,177.06Zm26.12-62.65q-.62-10-5.21-16.74a28,28,0,0,0-11.32-9.89,31.08,31.08,0,0,0-27.35,0,27.29,27.29,0,0,0-11.22,9.89q-4.49,6.74-5.1,16.74Zm51.62-64.7A10.45,10.45,0,0,1,409,39.31v-.82a10.45,10.45,0,0,1,10.4-10.41h1.23a10.45,10.45,0,0,1,10.4,10.41v.82a10.45,10.45,0,0,1-10.4,10.4ZM419.83,176a9.05,9.05,0,0,1-9.18-9.18V79.31a9.22,9.22,0,0,1,2.65-6.64,8.74,8.74,0,0,1,6.53-2.75,9.07,9.07,0,0,1,9.39,9.39v87.55a8.71,8.71,0,0,1-2.76,6.53A9.19,9.19,0,0,1,419.83,176ZM510,224a96.69,96.69,0,0,1-23.88-3.06,78.4,78.4,0,0,1-19.79-7.55q-3.67-2.25-3.68-7.15a8.37,8.37,0,0,1,2.35-5.81,7.59,7.59,0,0,1,5.82-2.55,10.07,10.07,0,0,1,3.67.81,74.22,74.22,0,0,0,33.67,7.76q31.21,0,31.22-33.27V159.51Q524.92,175,504.52,175a49.23,49.23,0,0,1-23.37-6,48.61,48.61,0,0,1-18.67-18q-7.35-11.94-7.35-29.08t7.35-29.08a48.61,48.61,0,0,1,18.67-18,49.12,49.12,0,0,1,23.37-6q20.4,0,34.89,15.51v-5.1a9.27,9.27,0,0,1,2.65-6.64,8.74,8.74,0,0,1,6.53-2.75A9.39,9.39,0,0,1,558,79.31v91.22q0,25.71-12.45,39.59T510,224Zm-1.64-65.92A34.3,34.3,0,0,0,525.33,154a60.91,60.91,0,0,0,14.08-11v-42a60.91,60.91,0,0,0-14.08-11,34.3,34.3,0,0,0-16.94-4.08q-15.3,0-25,9.28T473.7,122q0,17.55,9.7,26.84T508.39,158.08Zm91,18a9.07,9.07,0,0,1-9.19-9.18V34.41a9.19,9.19,0,0,1,2.66-6.63A8.68,8.68,0,0,1,599.41,25a9.41,9.41,0,0,1,9.38,9.39V87.67A67.84,67.84,0,0,1,625.53,74q9-5.1,21.22-5.1a35.35,35.35,0,0,1,19.49,5.3,34.56,34.56,0,0,1,12.65,14.49,46.37,46.37,0,0,1,4.39,20.21v58a8.71,8.71,0,0,1-2.76,6.53,9.22,9.22,0,0,1-6.63,2.65,9.05,9.05,0,0,1-9.18-9.18V110.94q0-24.9-22.45-24.9A32.44,32.44,0,0,0,624,91.35a65.92,65.92,0,0,0-15.21,14.28v61.23a8.74,8.74,0,0,1-2.75,6.53A9.22,9.22,0,0,1,599.41,176Zm148.55,1q-29.79,0-29.79-26.94V86.86H703.68A3.86,3.86,0,0,1,699.8,83a4.28,4.28,0,0,1,1.84-3.47l27.75-27.14a5.14,5.14,0,0,1,3.47-1.84,3.6,3.6,0,0,1,2.76,1.23,4.05,4.05,0,0,1,1.12,2.85V70.94H759.8a8,8,0,0,1,5.71,13.57,7.57,7.57,0,0,1-5.71,2.35H736.74v61.63q0,8,3.78,10.1a18.94,18.94,0,0,0,9.48,2.14,28.2,28.2,0,0,0,8.17-1.22c.54-.14,1.12-.27,1.73-.41a11.61,11.61,0,0,1,2.35-.2,7.19,7.19,0,0,1,5.1,2.14,6.9,6.9,0,0,1,2.24,5.2c0,3.13-1.56,5.52-4.69,7.15A39.93,39.93,0,0,1,748,177.06Zm59-1a9.07,9.07,0,0,1-9.19-9.18v-80h-12a8,8,0,0,1-8-8,7.6,7.6,0,0,1,2.34-5.72,7.87,7.87,0,0,1,5.61-2.24h12V59.1q0-12.24,4.39-20.1a27.24,27.24,0,0,1,11.43-11.43A32.26,32.26,0,0,1,828.36,24a39.15,39.15,0,0,1,17.76,4.08,8.77,8.77,0,0,1,3.36,3,7.23,7.23,0,0,1,1.33,4.18,7.6,7.6,0,0,1-2.24,5.41A7.1,7.1,0,0,1,843.26,43a19.18,19.18,0,0,1-4.69-.61c-3.27-.41-5.1-.61-5.51-.61q-8.37,0-12.55,3.87t-4.19,14.08V70.94h25.51a8,8,0,0,1,5.72,13.57,7.61,7.61,0,0,1-5.72,2.35H816.32v80a8.7,8.7,0,0,1-2.75,6.53A9.22,9.22,0,0,1,806.94,176Zm101,1q-15.72,0-27.55-6.73a45.7,45.7,0,0,1-18.26-19.09q-6.43-12.35-6.43-28.26t6.43-28.27A45.73,45.73,0,0,1,880.4,75.63Q892.23,68.9,908,68.9q15.51,0,27.34,6.73a46.48,46.48,0,0,1,18.37,19.08q6.52,12.36,6.53,28.27t-6.53,28.26a46.45,46.45,0,0,1-18.37,19.09Q923.46,177.07,908,177.06Zm0-16.94a34.92,34.92,0,0,0,16-3.88A31.1,31.1,0,0,0,936.62,144q5-8.37,5-21.22,0-12.66-5-21A30.48,30.48,0,0,0,924,89.61a35.84,35.84,0,0,0-16-3.77,36.24,36.24,0,0,0-16.22,3.77,29.8,29.8,0,0,0-12.55,12.15q-4.9,8.35-4.9,21,0,12.85,4.9,21.22a30.4,30.4,0,0,0,12.55,12.24A35.31,35.31,0,0,0,908,160.12ZM995.29,176a9.07,9.07,0,0,1-9.19-9.18V34.41a9.19,9.19,0,0,1,2.66-6.63A8.7,8.7,0,0,1,995.29,25a9.07,9.07,0,0,1,9.38,9.39V166.86a8.7,8.7,0,0,1-2.75,6.53A9.22,9.22,0,0,1,995.29,176Zm84.68,1a47.78,47.78,0,0,1-24-6.43,48.64,48.64,0,0,1-18.37-18.77q-7-12.35-7-28.88t7-28.88A48.64,48.64,0,0,1,1056,75.33a47.78,47.78,0,0,1,24-6.43q20,0,34.9,15.51v-50a9,9,0,0,1,2.75-6.74,9.22,9.22,0,0,1,6.63-2.65,8.68,8.68,0,0,1,6.53,2.76,9.19,9.19,0,0,1,2.66,6.63V166.86a9.07,9.07,0,0,1-9.19,9.18,9.22,9.22,0,0,1-6.63-2.65,8.74,8.74,0,0,1-2.75-6.53v-5.31Q1100,177.06,1080,177.06Zm2.66-17.35a38.55,38.55,0,0,0,17.65-4.18,50.55,50.55,0,0,0,14.59-11.12V101.55a50.55,50.55,0,0,0-14.59-11.12,38.56,38.56,0,0,0-17.65-4.19q-15.11,0-24.29,9.6T1049.16,123q0,17.55,9.18,27.14T1082.63,159.71Zm92.44,15.92a11.47,11.47,0,0,1-11.43-11.43V163a11.49,11.49,0,0,1,11.43-11.43h2A11.49,11.49,0,0,1,1188.53,163v1.22a11.47,11.47,0,0,1-11.42,11.43Zm70.19,1.43a37.92,37.92,0,0,1-16.63-3.67,28.94,28.94,0,0,1-12.14-10.72,29.53,29.53,0,0,1-4.49-16.22q0-15.1,11.94-24.08t35-9h24.7v-1.63q0-13.47-6.64-19.39t-20.71-5.92a70,70,0,0,0-13.77,1.22,114.79,114.79,0,0,0-13.37,3.68,11.6,11.6,0,0,1-2.65.41,7.26,7.26,0,0,1-5.31-2.25,7.51,7.51,0,0,1-2.24-5.51q0-5.5,5.3-7.76a89.94,89.94,0,0,1,35.31-7.34q14.07,0,23.77,5.71a35.89,35.89,0,0,1,14.28,14.8,42.9,42.9,0,0,1,4.6,19.69v57.76a8.71,8.71,0,0,1-2.76,6.53,9.22,9.22,0,0,1-6.63,2.65,9.05,9.05,0,0,1-9.18-9.18v-5.31Q1268.52,177.06,1245.26,177.06Zm6.94-16.33a37,37,0,0,0,17.35-4.38,48.48,48.48,0,0,0,14.08-10.92V128.29h-22.25q-30.81,0-30.81,16.12a15.13,15.13,0,0,0,5,11.83Q1240.57,160.74,1252.2,160.73Zm90-111a10.45,10.45,0,0,1-10.4-10.4v-.82a10.45,10.45,0,0,1,10.4-10.41h1.23a10.45,10.45,0,0,1,10.4,10.41v.82a10.45,10.45,0,0,1-10.4,10.4ZM1342.6,176a9.05,9.05,0,0,1-9.18-9.18V79.31a9.22,9.22,0,0,1,2.65-6.64,8.74,8.74,0,0,1,6.53-2.75,9.08,9.08,0,0,1,9.39,9.39v87.55a8.71,8.71,0,0,1-2.76,6.53A9.19,9.19,0,0,1,1342.6,176Z"></path><g id="eightfold-logo-_-mark" data-name="eightfold-logo-/-mark"><path id="Shape" class="cls-2" d="M157.57,133.43H132.92v39.88A66.52,66.52,0,0,1,68.26,240a13.45,13.45,0,0,1-.44-26.89h.85a39.82,39.82,0,0,0,37.51-39.8V133.43H96.25a13.45,13.45,0,0,1,0-26.89h9.93V66.71A66.54,66.54,0,0,1,171.11,0a13.45,13.45,0,0,1-.6,26.89,39.78,39.78,0,0,0-37.59,39.82v39.87h24.65a13.45,13.45,0,0,1,0,26.9ZM51,226.58a17.71,17.71,0,0,1,7.18-14.25,39.91,39.91,0,0,1,8.27-78.9h19a17.75,17.75,0,0,1,0-26.89h-19a66.76,66.76,0,0,0-10.11,132.7A17.74,17.74,0,0,1,51,226.58ZM182.76.75a17.76,17.76,0,0,1-1.86,26.89,39.9,39.9,0,0,1-8.3,78.94h-4.26a17.78,17.78,0,0,1,0,26.9h4.26a66.75,66.75,0,0,0,61.21-92.63A66.27,66.27,0,0,0,182.76.75Z"></path></g></g></g></g></svg> 