<?xml version="1.0" encoding="utf-8"?>
<!-- Generator: Adobe Illustrator 16.0.3, SVG Export Plug-In . SVG Version: 6.00 Build 0)  -->
<!DOCTYPE svg PUBLIC "-//W3C//DTD SVG 1.1//EN" "http://www.w3.org/Graphics/SVG/1.1/DTD/svg11.dtd">
<svg version="1.1" id="Logo" xmlns="http://www.w3.org/2000/svg" xmlns:xlink="http://www.w3.org/1999/xlink" x="0px" y="0px"
	 width="539.214px" height="193.148px" viewBox="0 0 539.214 193.148" enable-background="new 0 0 539.214 193.148"
	 xml:space="preserve">
<path id="Logo_Type" fill="#6E6E6E" d="M40.572,41.636H0v110.543h16.609V111.79h23.963c20.607,0,34.998-14.519,34.998-35.311
	C75.57,55.964,61.179,41.636,40.572,41.636z M16.609,56.233H38.25c12.775,0,20.401,7.571,20.401,20.246
	c0,12.776-7.876,20.71-20.556,20.71H16.609V56.233z M144.6,108.815c-1.376-2.437-2.397-3.875-2.925-4.563
	c11.817-4.178,19.413-15.847,19.413-29.937c0-14.249-7.215-25.808-18.837-30.166c-4.193-1.554-9.11-2.515-20.651-2.515h-34.07
	v110.543h16.609v-43.485h22.336l23.056,43.485h18.809L144.6,108.815z M104.138,56.233h16.997c8.449,0,11.893,0.921,14.7,2.396
	c5.452,3.027,8.333,8.668,8.333,16.304c0,11.821-7.165,19.164-18.699,19.164h-21.33V56.233z M228.38,39.779
	c-31.861,0-56.819,24.754-56.819,56.356c0,32.469,24.958,57.904,56.819,57.904c31.775,0,56.667-25.436,56.667-57.904
	C285.047,64.533,260.155,39.779,228.38,39.779z M228.38,138.665c-22.288,0-39.744-18.682-39.744-42.529
	c0-23.069,17.457-41.138,39.744-41.138c22.202,0,39.592,18.068,39.592,41.138C267.973,119.983,250.582,138.665,228.38,138.665z
	 M399.144,41.636v110.543h-16.611V41.636H399.144z M470.464,41.636h-19.58l-39.46,109.684l-0.311,0.859h17.162l10.831-31.412h42.825
	l10.989,31.412h17.315L470.464,41.636z M460.661,59.35c0,0,3.674,9.567,5.024,13.63l11.775,33.808H443.58l11.928-33.815
	C456.863,68.913,460.661,59.35,460.661,59.35z"/>
<path id="X" fill="#009EE3" d="M374.662,152.179h-20.142l-27.423-41.732l-51.859,76.934h-21.367l63.203-90.47l-34.528-55.274h20.453
	c0,0,24.015,37.853,25.079,39.944c0.962-2.092,35.316-52.637,35.316-52.637h20.453l-45.845,67.641L374.662,152.179z M390.85,0
	c-7.225,0-12.883,5.619-12.883,12.786c0,7.367,5.658,13.137,12.883,13.137c7.213,0,12.86-5.77,12.86-13.137
	C403.71,5.619,398.063,0,390.85,0z"/>
<text id="Subtitel_mit_Schrift" transform="matrix(1 0 0 1 300.8066 186.7656)" display="none" fill="#626261" font-family="'Frutiger-Italic'" font-size="28">The MES Company</text>
<g id="Subtitel_Pfade">
	<path fill="#6E6E6E" d="M318.753,169.401h-6.193l-3.739,17.411h-2.883l3.739-17.411h-6.194l0.544-2.512h15.269L318.753,169.401z"/>
	<path fill="#6E6E6E" d="M321.348,166.849h2.682l-1.509,7.233h0.058c0.999-1.456,2.768-2.169,4.595-2.169
		c2.826,0,4.854,1.483,4.854,4.567c0,0.855-0.172,1.826-0.344,2.653l-1.598,7.679h-2.683l1.798-8.706
		c0.085-0.484,0.142-1.056,0.142-1.369c0-1.514-0.998-2.655-2.654-2.655c-3.312,0-4.938,3.597-5.309,5.395l-1.541,7.336h-2.684
		L321.348,166.849z"/>
	<path fill="#6E6E6E" d="M344.806,186.556c-1.398,0.342-2.854,0.599-4.31,0.599c-3.539,0-6.707-1.427-6.707-6.563
		c0-4.025,2.825-8.678,7.963-8.678c3.511,0,5.48,2.112,5.48,5.565c0,0.971-0.115,1.799-0.257,2.655h-10.247
		c-0.058,0.313-0.085,0.599-0.085,0.912c0,3.055,1.883,3.939,4.48,3.939c1.342,0,2.797-0.343,4.11-0.885L344.806,186.556z
		 M344.464,178.136c0.057-0.429,0.085-0.771,0.085-1.113c0-1.713-1.056-2.94-3.083-2.94c-2.196,0-3.881,1.912-4.451,4.054H344.464z"
		/>
	<path fill="#6E6E6E" d="M361.454,166.89h4.28l2.712,16.298l9.705-16.298h4.681l-4.253,19.923h-2.854l3.654-17.069h-0.059
		l-10.246,17.069h-2.769l-2.769-17.069h-0.058l-3.824,17.069h-2.769L361.454,166.89z"/>
	<path fill="#6E6E6E" d="M386.76,166.89h10.818l-0.571,2.512h-7.878l-1.284,5.822h7.393l-0.485,2.512h-7.479l-1.455,6.565h8.363
		l-0.543,2.512h-11.246L386.76,166.89z"/>
	<path fill="#6E6E6E" d="M410.192,170.029c-0.941-0.571-2.111-0.971-3.624-0.971c-1.884,0-3.939,0.742-3.939,3.111
		c0,3.34,6.793,3.368,6.793,8.592c0,2.996-2.083,6.393-6.879,6.393c-2.312,0-3.967-0.514-5.565-1.142l0.914-2.626
		c1.17,0.742,2.797,1.256,4.196,1.256c3.024,0,4.309-1.883,4.309-3.538c0-4.054-6.793-3.34-6.793-8.877
		c0-3.626,3.312-5.681,6.594-5.681c1.655,0,3.282,0.313,4.795,0.941L410.192,170.029z"/>
	<path fill="#6E6E6E" d="M433.551,186.612c-1.17,0.371-2.426,0.542-3.653,0.542c-5.309,0-9.361-2.797-9.361-9.104
		c0-4.881,3.367-11.503,11.958-11.503c1.6,0,3.255,0.313,4.739,0.913l-0.828,2.455c-1.199-0.514-2.512-0.856-3.853-0.856
		c-6.052,0-8.991,4.453-8.991,9.134c0,4.367,2.91,6.45,6.793,6.45c1.198,0,2.455-0.228,3.567-0.685L433.551,186.612z"/>
	<path fill="#6E6E6E" d="M444.073,171.913c3.91,0,6.45,2.369,6.45,6.365c0,4.938-2.911,8.876-8.135,8.876
		c-3.996,0-6.621-2.169-6.621-6.479C435.768,175.823,438.735,171.913,444.073,171.913z M442.361,184.985
		c3.024,0,5.309-3.426,5.309-6.707c0-2.17-1.284-4.196-3.711-4.196c-3.568,0-5.337,3.768-5.337,6.793
		C438.622,183.188,439.82,184.985,442.361,184.985z"/>
	<path fill="#6E6E6E" d="M454.688,173.91c0.113-0.514,0.171-1.027,0.284-1.655h2.513l-0.344,1.998h0.058
		c1.027-1.541,2.712-2.34,4.624-2.34c1.713,0,3.368,0.799,3.853,2.54c1.428-1.655,2.941-2.54,5.167-2.54
		c2.369,0,4.053,1.569,4.053,3.797c0,0.884-0.199,2.025-0.428,3.054l-1.684,8.049h-2.684l1.94-9.22
		c0.115-0.57,0.172-1.056,0.172-1.369c0-1.199-0.771-2.142-2.141-2.142c-2.712,0-4.225,3.169-4.71,5.423l-1.626,7.308h-2.685
		l1.941-9.22c0.114-0.57,0.172-1.056,0.172-1.369c0-1.199-0.771-2.142-2.141-2.142c-2.712,0-4.225,3.169-4.71,5.423l-1.626,7.308
		h-2.684L454.688,173.91z"/>
	<path fill="#6E6E6E" d="M478.692,177.079c0.285-1.626,0.57-3.226,0.771-4.824h2.512l-0.485,2.228h0.057
		c1.057-1.827,3.14-2.569,5.167-2.569c3.282,0,5.194,2.397,5.194,5.537c0,5.337-2.483,9.704-7.336,9.704
		c-2.54,0-4.053-0.855-4.737-2.512h-0.058l-1.741,8.163h-2.683L478.692,177.079z M484.201,184.985c3.053,0,4.853-3.683,4.853-7.307
		c0-2.455-1.399-3.597-3.255-3.597c-3.14,0-5.223,3.482-5.223,7.079C480.576,183.13,481.746,184.985,484.201,184.985z"/>
	<path fill="#6E6E6E" d="M496.238,172.655c1.285-0.428,2.998-0.742,4.054-0.742c2.94,0,5.767,1.142,5.767,4.624
		c0,0.656-0.115,1.599-0.257,2.283c-0.543,2.712-1.143,5.424-1.514,7.992h-2.483c0.144-0.714,0.314-1.57,0.485-2.427h-0.057
		c-0.914,1.741-2.797,2.769-4.738,2.769c-2.455,0-4.653-1.284-4.653-4.024c0-4.139,3.739-5.309,8.62-5.309
		c0.571,0,1.285,0.058,1.941,0.085c0.057-0.284,0.143-0.599,0.143-0.941c0-2.084-1.37-2.883-3.339-2.883
		c-1.57,0-3.255,0.514-4.453,1.228L496.238,172.655z M502.833,179.819h-2.056c-2.026,0-5.08,0.542-5.08,3.197
		c0,1.284,1.113,1.969,2.397,1.969C500.806,184.985,502.519,182.273,502.833,179.819z"/>
	<path fill="#6E6E6E" d="M510.36,174.482c0.115-0.6,0.286-1.371,0.4-2.228h2.512l-0.457,2.313h0.057
		c0.857-1.369,2.427-2.654,4.967-2.654c2.826,0,4.853,1.483,4.853,4.567c0,0.855-0.171,1.826-0.343,2.653l-1.598,7.679h-2.684
		l1.798-8.706c0.086-0.484,0.143-1.056,0.143-1.369c0-1.514-0.998-2.655-2.654-2.655c-3.311,0-4.938,3.597-5.309,5.395l-1.541,7.336
		h-2.683L510.36,174.482z"/>
	<path fill="#6E6E6E" d="M522.773,190.723c0.2,0.114,0.685,0.257,1.171,0.257c1.626-0.029,2.739-1.113,3.853-3.368l-2.341-15.356
		h2.798l1.684,11.617h0.058l6.336-11.617h2.883l-9.933,17.298c-1.284,2.226-2.255,3.596-4.938,3.596c-0.656,0-1.342-0.057-2.027-0.2
		L522.773,190.723z"/>
</g>
</svg>
