<svg id="Layer_1" data-name="Layer 1" xmlns="http://www.w3.org/2000/svg" xmlns:xlink="http://www.w3.org/1999/xlink" viewBox="0 0 160 42"><defs><style>.cls-1{fill:url(#linear-gradient);}.cls-2{fill:url(#linear-gradient-2);}.cls-3{fill:url(#linear-gradient-3);}.cls-4{fill:url(#linear-gradient-4);}.cls-5{fill:url(#linear-gradient-5);}.cls-6{fill:url(#linear-gradient-6);}.cls-7{fill:#fff;}.cls-8{fill:#414042;}</style><linearGradient id="linear-gradient" x1="148.65" y1="8.48" x2="155.69" y2="39.25" gradientUnits="userSpaceOnUse"><stop offset="0" stop-color="#ef4a6b"/><stop offset="0.61" stop-color="#d41f7c"/><stop offset="1" stop-color="#a61f62"/></linearGradient><linearGradient id="linear-gradient-2" x1="143.76" y1="7.74" x2="113.4" y2="19.4" gradientUnits="userSpaceOnUse"><stop offset="0" stop-color="#8cd4dd"/><stop offset="0.49" stop-color="#54c4ca"/><stop offset="1" stop-color="#0b9eb4"/><stop offset="1" stop-color="#2b7aa6"/></linearGradient><linearGradient id="linear-gradient-3" x1="140.54" y1="22.88" x2="142.75" y2="9" gradientUnits="userSpaceOnUse"><stop offset="0" stop-color="#462362"/><stop offset="1" stop-color="#6d3e98"/></linearGradient><linearGradient id="linear-gradient-4" x1="149.19" y1="50.76" x2="122.83" y2="17.96" gradientUnits="userSpaceOnUse"><stop offset="0" stop-color="#fdba1a"/><stop offset="0.58" stop-color="#f47737"/><stop offset="1" stop-color="#eb5f37"/></linearGradient><linearGradient id="linear-gradient-5" x1="140.35" y1="30.27" x2="133.91" y2="36.31" gradientUnits="userSpaceOnUse"><stop offset="0" stop-color="#9a1d58"/><stop offset="0.55" stop-color="#bc1e6d"/><stop offset="1" stop-color="#d41f7c"/></linearGradient><linearGradient id="linear-gradient-6" x1="126.03" y1="32.46" x2="132.67" y2="21.41" gradientUnits="userSpaceOnUse"><stop offset="0" stop-color="#07565c"/><stop offset="1" stop-color="#5082b0"/></linearGradient></defs><title>logo</title><path class="cls-1" d="M155.48,6.74A34.09,34.09,0,0,0,147.09,8a36.05,36.05,0,0,1,1.26,10.79,5.42,5.42,0,0,1-.6,2.62,6,6,0,0,1,0,2.08A45.61,45.61,0,0,1,143.82,34l1,.33a4.53,4.53,0,0,0,4.33-1.54c3.51-3.49,9.12-10.87,10.51-20.07C160.29,8.47,158.28,6.7,155.48,6.74Z"/><path class="cls-2" d="M133,15a3.2,3.2,0,0,1,1.73-1.06,3.65,3.65,0,0,1,1.62-1.45A52.29,52.29,0,0,1,147.09,8a18.55,18.55,0,0,0-3-6.06C143,.5,141.24-.09,139,1,128,6.21,123,13.73,121.16,17.3a2.85,2.85,0,0,0,.76,3.44q1.59,1.55,3.15,2.79A103.5,103.5,0,0,1,133,15Z"/><path class="cls-3" d="M134.71,13.89a3,3,0,0,1,1.49.25,40,40,0,0,1,10.74,6.19,2.27,2.27,0,0,1,.81,1.1,5.42,5.42,0,0,0,.6-2.62A36.05,36.05,0,0,0,147.09,8a52.29,52.29,0,0,0-10.76,4.42A3.65,3.65,0,0,0,134.71,13.89Z"/><path class="cls-4" d="M134.65,28.65a5.37,5.37,0,0,1-1.92-.42,32.72,32.72,0,0,1-7.66-4.7,7.2,7.2,0,0,0-.64,1c-1.53,2.38-.12,4.64.48,5.76a35.76,35.76,0,0,0,9.51,10.06c2.37,1.67,4.19.87,5.19-.08A24.14,24.14,0,0,0,143.82,34a34.93,34.93,0,0,1-7.73-3.58A3.45,3.45,0,0,1,134.65,28.65Z"/><path class="cls-5" d="M147.75,21.43a3.46,3.46,0,0,1-1,1.12,50.19,50.19,0,0,1-10.49,5.83,4.06,4.06,0,0,1-1.62.27,3.45,3.45,0,0,0,1.44,1.76A34.93,34.93,0,0,0,143.82,34a45.61,45.61,0,0,0,3.89-10.48A6,6,0,0,0,147.75,21.43Z"/><path class="cls-6" d="M134.65,28.65c-.16-.38-.27-.8-.4-1.22-.55-1.77-.72-9.16,0-12.08a6.07,6.07,0,0,1,.5-1.46A3.2,3.2,0,0,0,133,15a103.5,103.5,0,0,0-7.91,8.58,32.72,32.72,0,0,0,7.66,4.7A5.37,5.37,0,0,0,134.65,28.65Z"/><path class="cls-7" d="M146.94,20.33a40,40,0,0,0-10.74-6.19,3,3,0,0,0-1.49-.25,6.07,6.07,0,0,0-.5,1.46c-.68,2.92-.51,10.31,0,12.08.13.42.24.84.4,1.22a4.06,4.06,0,0,0,1.62-.27,50.19,50.19,0,0,0,10.49-5.83,3.46,3.46,0,0,0,1-1.12A2.27,2.27,0,0,0,146.94,20.33Z"/><polygon class="cls-8" points="16.91 29.07 7.99 20.15 2.95 24.08 2.95 29.07 -0.23 29.07 -0.23 10.3 2.95 10.3 2.95 20.73 16.3 10.29 20.63 10.3 10.43 18.26 21.29 29.07 16.91 29.07"/><polygon class="cls-8" points="25.63 29.13 18.25 15.2 21.66 15.22 26.19 23.97 31.62 15.06 31.98 15.07 37.38 23.97 41.94 15.2 45.15 15.22 37.79 29.13 37.38 29.13 31.72 19.97 26.03 29.14 25.63 29.13"/><path class="cls-8" d="M87.25,29.42c-3.5,0-6.15-.63-7.9-1.86l-.14-.1L80.4,25l.19.1a12.74,12.74,0,0,0,6.69,1.59c3.56,0,5.37-.63,5.37-1.89,0-.82-.82-1.17-3-1.25l-4.27-.18c-2.66-.09-5.7-.63-5.7-4,0-2.84,2.62-4.35,7.6-4.35A14.66,14.66,0,0,1,94.7,16.6l.16.08-1.11,2.44L93.58,19a13.44,13.44,0,0,0-6.28-1.31c-4.12,0-4.67.78-4.67,1.54s.44,1.19,2.87,1.28l4.33.17c2.68.1,5.75.62,5.75,3.91,0,3.13-2.88,4.79-8.33,4.79Z"/><path class="cls-8" d="M105.14,29.42c-5.52,0-9.23-2.88-9.23-7.17s3.8-7.18,9.23-7.18,9.17,2.87,9.17,7.15-3.68,7.2-9.17,7.2Zm0-11.69c-2.78,0-6.11.78-6.11,4.49s3.33,4.51,6.11,4.51,6.11-.78,6.11-4.48c0-2.92-2.17-4.52-6.11-4.52Z"/><path class="cls-8" d="M50.31,29.42c-4.19,0-6.23-1.38-6.23-4.23,0-4,4.61-4.4,12.13-4.78l.12,0A.89.89,0,0,0,56.89,19c-.58-.84-1.76-1.16-4.2-1.16a28.09,28.09,0,0,0-6.69.9l-.2.05-.44-2.61.17-.05a27.84,27.84,0,0,1,7.67-1.07c5,0,7.18,1.83,7.18,5.94v2.35c0,1.26-.36,2.9-3.17,4.46a13.91,13.91,0,0,1-6.9,1.6Zm6.22-6.81-.66,0c-1.8.13-5.39.44-6.13.58-1.86.34-2.62.92-2.62,2s1,1.6,3.24,1.6a17.49,17.49,0,0,0,2.89-.22c1.24-.21,4.12-.91,4.12-3v-.3c0-.3-.14-.66-.83-.66Z"/><path class="cls-8" d="M75.24,29.07v-8c0-1.71-.52-2.65-1.68-3.05a5.83,5.83,0,0,0-1.8-.23,17.77,17.77,0,0,0-2.62.23c-1,.15-4.12.82-4.12,3v8H62V21.36c0-1.93,1-3.37,3.15-4.55a15.67,15.67,0,0,1,7-1.72l.61,0c3.62,0,5.46,2,5.46,6.06v7.94Z"/></svg>