<svg xmlns="http://www.w3.org/2000/svg" width="161" height="35" viewBox="0 0 161 35">
    <g fill="none" fill-rule="evenodd">
        <path fill="#464855" d="M132.199 13.71c0-1.78 0-2.448-.128-3.625h2.003V13.2h.064c.731-1.812 2.1-3.498 4.166-3.498.477 0 1.05.096 1.4.191v2.099c-.414-.128-.954-.191-1.463-.191-3.18 0-4.039 3.561-4.039 6.487v8.014H132.2V13.71zm17.781 11.257c3.498 0 5.374-3.02 5.374-6.773 0-3.752-1.876-6.773-5.374-6.773-3.498 0-5.374 3.02-5.374 6.773 0 3.752 1.876 6.773 5.374 6.773m0-15.264c5.248 0 7.568 4.07 7.568 8.491 0 4.42-2.32 8.49-7.568 8.49-5.247 0-7.568-4.07-7.568-8.49s2.321-8.49 7.568-8.49m-30.279 1.717c-3.56 0-4.802 3.815-4.802 6.773 0 2.957 1.241 6.773 4.802 6.773 3.816 0 4.802-3.625 4.802-6.773 0-3.148-.986-6.773-4.802-6.773zm-6.804-1.336h2.002l-.127 2.957h.064c.509-.89 1.75-3.339 5.184-3.339 4.77 0 6.677 3.562 6.677 8.491 0 4.802-2.225 8.49-6.677 8.49-2.544 0-4.071-1.049-5.057-3.148h-.064v9.445h-2.002V10.085zm-4.834 1.717h-3.69v10.494c0 1.463.542 2.671 2.164 2.671.763 0 1.271-.159 1.844-.381l.127 1.653c-.477.19-1.463.445-2.448.445-3.562 0-3.69-2.448-3.69-5.405v-9.477h-3.18v-1.717h3.18V6.173l2.004-.7v4.612h3.689v1.717zm-29 6.328h-.573c-3.467 0-7.6.35-7.6 3.911 0 2.131 1.526 2.926 3.37 2.926 4.707 0 4.802-4.102 4.802-5.851v-.986zm.19 5.565h-.064c-.89 1.94-3.148 2.99-5.151 2.99-4.611 0-5.343-3.117-5.343-4.58 0-5.438 5.788-5.692 9.985-5.692h.382v-.827c0-2.766-.986-4.166-3.689-4.166-1.685 0-3.275.382-4.77 1.336v-1.94c1.24-.604 3.34-1.113 4.77-1.113 4.007 0 5.692 1.813 5.692 6.042V22.9c0 1.304 0 2.29.16 3.403h-1.972v-2.608zm-17.807 2.608V2.453h2.003v23.85h-2.003zM48.949 11.42c-3.562 0-4.802 3.815-4.802 6.773 0 2.957 1.24 6.773 4.802 6.773 3.815 0 4.801-3.625 4.801-6.773 0-3.148-.986-6.773-4.801-6.773zm-6.806-1.336h2.004l-.127 2.957h.063c.51-.89 1.749-3.339 5.184-3.339 4.77 0 6.678 3.562 6.678 8.491 0 4.802-2.226 8.49-6.678 8.49-2.545 0-4.07-1.049-5.057-3.148h-.063v9.445h-2.004V10.085zM86.026 23.95a9.546 9.546 0 0 0 4.23 1.017c1.907 0 3.593-1.05 3.593-2.894 0-3.848-7.791-3.243-7.791-7.95 0-3.211 2.607-4.42 5.278-4.42.86 0 2.577.191 4.007.732l-.19 1.748c-1.05-.477-2.48-.762-3.594-.762-2.067 0-3.497.635-3.497 2.703 0 3.02 7.98 2.639 7.98 7.95 0 3.434-3.21 4.61-5.66 4.61-1.557 0-3.116-.19-4.547-.763l.19-1.971zm72.41-16.954h.489c.316 0 .518-.065.518-.393 0-.286-.256-.37-.518-.37h-.49v.763zm-.411-1.085h.966c.578 0 .864.233.864.71 0 .405-.256.697-.65.697l.716 1.115h-.436l-.703-1.115h-.346v1.115h-.411V5.911zm.828 3.094c.99 0 1.735-.799 1.735-1.83 0-1.031-.745-1.83-1.735-1.83-1.001 0-1.746.799-1.746 1.83 0 1.031.745 1.83 1.746 1.83zm-.005-3.982c1.186 0 2.152.966 2.152 2.152a2.155 2.155 0 0 1-2.152 2.152 2.155 2.155 0 0 1-2.152-2.152c0-1.186.965-2.152 2.152-2.152z"/>
        <path fill="#F48024" d="M0 7.178V0h34.409v7.178H0zm10.112 27.23V9.659H34.41v24.75H10.112zM0 34.409V9.659h7.374v24.75H0z"/>
    </g>
</svg>
