<?xml version="1.0" encoding="UTF-8"?> <svg xmlns="http://www.w3.org/2000/svg" xmlns:xlink="http://www.w3.org/1999/xlink" version="1.1" id="kslogo" x="0px" y="0px" viewBox="0 0 832.1 96.2" style="enable-background:new 0 0 832.1 96.2;" xml:space="preserve"> <title>Keynote Search</title> <style> .st0 { fill: white; } .st1 { fill: #ff6601; } </style> <path class="st0" d="M184,22.2c0-1,0.8-1.9,1.9-1.9c0,0,0,0,0.1,0h2.3c1,0,1.9,0.9,1.9,1.9v22.6l25-23.8c0.4-0.4,0.9-0.7,1.5-0.8 h3.9c0.8-0.1,1.6,0.6,1.7,1.4c0,0.5-0.2,1.1-0.7,1.4l-25.3,23.6l26.4,27.1c0.5,0.7,0.3,1.7-0.4,2.2c-0.3,0.2-0.6,0.3-1,0.3h-4.1 c-0.5,0-1-0.2-1.4-0.6L190.1,49v25.4c0,1-0.9,1.9-1.9,1.9h-2.3c-1,0-1.9-0.8-1.9-1.9c0,0,0,0,0,0V22.2z"></path> <path class="st0" d="M231.4,21.8c0-0.8,0.7-1.5,1.5-1.5l0,0h31.5c0.8,0,1.5,0.7,1.5,1.5c0,0,0,0,0,0v2.3c0,0.8-0.7,1.5-1.5,1.5 h-26.9v19.5h23c0.8,0,1.5,0.7,1.5,1.5V49c0,0.8-0.7,1.5-1.5,1.5h-23V71h26.9c0.8,0,1.5,0.7,1.5,1.5v2.3c0,0.8-0.7,1.5-1.5,1.5h-31.5 c-0.8,0-1.5-0.7-1.5-1.5l0,0V21.8z"></path> <path class="st0" d="M288.5,49.4l-19.3-26.7c-0.5-0.7-0.3-1.6,0.4-2.1c0.3-0.2,0.6-0.3,0.9-0.3h3.8c0.5,0,1,0.3,1.3,0.7l16.2,22.3 L307.8,21c0.3-0.4,0.8-0.7,1.3-0.7h3.8c0.8,0,1.5,0.6,1.5,1.4c0,0.3-0.1,0.6-0.3,0.9l-19.5,26.7v25.5c0,0.8-0.7,1.5-1.5,1.5H290 c-0.8,0-1.5-0.7-1.5-1.5L288.5,49.4z"></path> <path class="st0" d="M320.8,21c0-0.8,0.7-1.5,1.5-1.4h2l36.1,45h0.2V21.8c0-0.8,0.7-1.5,1.5-1.5h2.8c0.8,0,1.5,0.7,1.5,1.5v53.9 c0,0.8-0.7,1.5-1.5,1.4h-1.4l-36.7-45.8h-0.1v43.5c0,0.8-0.7,1.5-1.5,1.5h-2.8c-0.8,0-1.5-0.7-1.5-1.5L320.8,21z"></path> <path class="st0" d="M405.7,19.5c15.9,0,28.8,12.8,28.9,28.7c0,15.9-12.8,28.8-28.7,28.9C390,77.2,377,64.3,377,48.4 c-0.1-15.9,12.7-28.8,28.6-28.9C405.7,19.5,405.7,19.5,405.7,19.5z M405.7,71.5c12.8,0,23.2-10.3,23.3-23.1 c0-12.8-10.3-23.2-23.1-23.3s-23.2,10.3-23.3,23.1c0,0.1,0,0.1,0,0.2C382.7,61.1,393,71.5,405.7,71.5L405.7,71.5z"></path> <path class="st0" d="M452.1,25.7h-13.9c-0.8,0-1.5-0.7-1.5-1.5v-2.3c0-0.8,0.7-1.5,1.5-1.5h33.9c0.8,0,1.5,0.7,1.5,1.5v2.3 c0,0.8-0.7,1.5-1.5,1.5h-13.9v49.1c0,0.8-0.7,1.5-1.5,1.5h-3c-0.8,0-1.5-0.7-1.5-1.5L452.1,25.7z"></path> <path class="st0" d="M480.9,21.8c0-0.8,0.7-1.5,1.5-1.5h31.5c0.8,0,1.5,0.7,1.5,1.5v0v2.3c0,0.8-0.7,1.5-1.5,1.5l0,0H487v19.5h23 c0.8,0,1.5,0.7,1.5,1.5V49c0,0.8-0.6,1.5-1.5,1.6c0,0,0,0-0.1,0h-23V71h26.9c0.8,0,1.5,0.7,1.5,1.5v0v2.3c0,0.8-0.7,1.5-1.5,1.5l0,0 h-31.5c-0.8,0-1.5-0.7-1.5-1.5L480.9,21.8z"></path> <path class="st1" d="M539.2,67.9c0.4-0.5,0.8-1,1.2-1.5c0.8-1,1.7-1.7,2.8-0.7c0.6,0.5,6.4,6.1,13.5,6.1c6.5,0,10.7-4.1,10.7-8.8 c0-5.5-4.8-8.8-14-12.6c-8.8-3.8-14.1-7.4-14.1-16.6c0-5.4,4.3-14.2,17-14.2c4.9,0.1,9.6,1.5,13.7,4.1c0.9,0.5,1.2,1.6,0.7,2.4 c-0.1,0.1-0.1,0.2-0.2,0.3c-0.3,0.5-0.6,1-1,1.5c-0.4,0.9-1.4,1.4-2.4,1c-0.2-0.1-0.3-0.2-0.4-0.3c-0.6-0.3-5.6-3.7-10.5-3.7 c-8.5,0-11,5.4-11,8.8c0,5.4,4.1,8.5,10.8,11.3c10.8,4.4,17.8,8.5,17.8,17.8c0,8.3-7.9,14.4-17.3,14.4c-6.2-0.1-12.2-2.4-16.9-6.5 C539,70.1,538.2,69.4,539.2,67.9z"></path> <path class="st1" d="M583.8,21.8c0-0.8,0.7-1.5,1.5-1.5l0,0h31.5c0.8,0,1.5,0.7,1.5,1.5v0v2.3c0,0.8-0.7,1.5-1.5,1.5l0,0H590v19.5 h23c0.8,0,1.5,0.7,1.5,1.5V49c0,0.8-0.7,1.5-1.5,1.5l0,0h-23V71h26.9c0.8,0,1.5,0.7,1.5,1.5v0v2.3c0,0.8-0.7,1.5-1.5,1.5l0,0h-31.5 c-0.8,0-1.5-0.7-1.5-1.5v0V21.8z"></path> <path class="st1" d="M621.9,74.2l24.3-53.8c0.2-0.5,0.8-0.9,1.4-0.9h0.8c0.6,0,1.1,0.3,1.4,0.9l24.2,53.8c0.4,0.7,0.1,1.5-0.6,1.9 c-0.2,0.1-0.5,0.2-0.8,0.2h-3.2c-0.6,0-1.1-0.3-1.4-0.9l-5.9-13.2h-28.4l-5.8,13.2c-0.2,0.5-0.8,0.9-1.4,0.9h-3.2 c-0.8,0.1-1.5-0.5-1.5-1.3C621.7,74.8,621.8,74.5,621.9,74.2z M659.9,57.2c-3.9-8.7-7.8-17.5-11.7-26.2h-0.6l-11.7,26.3L659.9,57.2z "></path> <path class="st1" d="M681,21.8c0-0.8,0.7-1.5,1.5-1.5l0,0h20.7c9.5-0.1,17.3,7.4,17.4,16.9c0,0,0,0,0,0.1c0,7.4-4.9,13.5-11.8,16.3 l11,20.3c0.4,0.7,0.2,1.6-0.5,2.1c-0.3,0.2-0.6,0.3-0.9,0.2h-4.1c-0.5,0-1-0.3-1.3-0.7l-10.6-21.2h-15.3v20.4c0,0.8-0.7,1.5-1.5,1.5 h-3.1c-0.8,0-1.5-0.6-1.5-1.5V21.8z M702.8,49.1c6.4,0,11.5-5.1,11.5-11.5s-5.1-11.5-11.5-11.5h-15.5v23H702.8z"></path> <path class="st1" d="M757.1,19.5c8.1,0,13.9,2.8,19.4,7.4c0.6,0.6,0.7,1.5,0.1,2.2c0,0,0,0,0,0.1l-2.2,2.2c-0.6,0.8-1.3,0.7-2.1-0.1 c-4.2-3.7-9.6-5.8-15.3-6c-12.6,0-22.3,10.6-22.3,23s9.7,23,22.3,23c7,0,11-2.8,15.3-6c0.5-0.5,1.3-0.6,1.9-0.2l2.4,2.2 c0.6,0.6,0.5,1.6-0.1,2.2c-5.2,5.1-12.2,7.8-19.4,7.8c-15.9,0-28.8-12.9-28.8-28.8S741.2,19.5,757.1,19.5L757.1,19.5z"> </path> <path class="st1" d="M787.3,21.8c0-0.8,0.7-1.5,1.5-1.5h3.1c0.8,0,1.5,0.7,1.5,1.5v0v23.4h32.5V21.8c0-0.8,0.7-1.5,1.5-1.5l0,0h3.1 c0.8,0,1.5,0.7,1.5,1.5v53c0,0.8-0.7,1.5-1.5,1.5h-3.1c-0.8,0-1.5-0.7-1.5-1.5v0V50.6h-32.5v24.2c0,0.8-0.7,1.5-1.5,1.5l0,0h-3.1 c-0.8,0-1.5-0.7-1.5-1.5L787.3,21.8z"></path> <rect y="0.6" class="st1" width="10.1" height="95.3"></rect> <path class="st0" d="M110.8,43L110.8,43L93,43c-8.8-0.4-15.7-7.8-15.5-16.7c0.2-8.7,7.2-15.7,15.9-15.9h38.2V0H93.4 C78.7,0,66.8,11.9,66.8,26.7c0,14.7,11.9,26.7,26.7,26.7h1.5h2.5h12.7v0c8.9,0,16.1,7.2,16.1,16.1c0,8.9-7.2,16.1-16.1,16.1l-1.7,0 l0.1-0.1H62.7L25.5,48.4L73.6,0.6H59L11.3,48.3l0.1,0.1l-0.1,0.1L59,96.2l0.1-0.1v0.1h27.7v0h23.3c14.7,0,26.6-11.9,26.6-26.6 C136.7,55.2,125.2,43.4,110.8,43z"></path> <path class="st2" d="M28.7,45.6"></path> </svg> 