<svg width="138" height="22" viewBox="0 0 138 22" fill="none" xmlns="http://www.w3.org/2000/svg">
<g clip-path="url(#clip0)">
<path d="M25.1127 9.02325C25.1598 8.68234 25.1867 8.33545 25.1867 7.98243C25.1867 7.17568 25.0586 6.39738 24.8225 5.66333C23.0237 11.1407 18.9421 10.735 18.9421 10.735L18.5951 14.7262C24.4928 16.7218 24.4928 20.6441 24.4928 20.6441C19.9134 14.8638 15.8891 18.3045 15.8891 18.3045C14.6851 19.6692 13.2423 20.795 12.3184 21.4546L24.8397 21.4011C30.5293 20.7818 30.5293 15.9648 30.5293 15.9648C30.8501 10.503 26.9295 9.29195 25.1127 9.02325Z" fill="#1A3561"/>
<path d="M14.3279 9.94356C10.0608 9.04898 8.39553 11.8359 8.39553 11.8359L10.0261 12.6961L8.60368 15.6895L4.53312 13.4416L6.05958 10.5514L8.0949 11.6064C8.84833 9.32555 10.8609 8.11008 13.1805 7.84755C15.6079 7.57282 17.979 9.0387 20.3339 8.58388C22.1801 8.22728 23.6602 6.7787 24.6938 5.29596C23.524 2.20929 20.397 0 16.7217 0C12.8286 0 9.55157 2.47914 8.56347 5.85394C8.49589 5.85243 8.4288 5.84915 8.36083 5.84915C3.74327 5.84915 0 9.34596 0 13.6595C0 17.5457 3.03889 20.7677 7.01766 21.3682C16.027 20.1606 14.3279 9.94356 14.3279 9.94356ZM17.7624 3.46442C18.7971 3.46442 19.6358 4.29626 19.6358 5.32238C19.6358 6.34852 18.7971 7.18035 17.7624 7.18035C16.7278 7.18035 15.8891 6.34852 15.8891 5.32238C15.8891 4.29626 16.7278 3.46442 17.7624 3.46442Z" fill="#00AED8"/>
<path d="M26.2957 1.37793H24.2158V3.44071H26.2957V1.37793Z" fill="#1A3561"/>
<path d="M28.7236 0.553101H27.4077V1.85813H28.7236V0.553101Z" fill="#1A3561"/>
<path d="M28.7236 3.46448H27.4077V4.7695H28.7236V3.46448Z" fill="#00AED8"/>
<path d="M32.8804 14.9507V14.9225C32.8804 12.1299 35.1019 9.84241 38.1583 9.84241C41.2146 9.84241 43.4079 12.1018 43.4079 14.8945V14.9225C43.4079 17.7153 41.1864 20.0027 38.13 20.0027C35.0735 20.0027 32.8804 17.7433 32.8804 14.9507ZM41.1298 14.9507V14.9225C41.1298 13.2385 39.8846 11.8352 38.13 11.8352C36.3754 11.8352 35.1585 13.2106 35.1585 14.8945V14.9225C35.1585 16.6067 36.4037 18.0101 38.1583 18.0101C39.9128 18.0101 41.1298 16.6347 41.1298 14.9507Z" fill="#1A3561"/>
<path d="M45.0649 17.1819V12.3123H47.2157V16.5082C47.2157 17.5187 47.6969 18.0379 48.5175 18.0379C49.3382 18.0379 49.8618 17.5187 49.8618 16.5082V12.3123H52.0125V19.8342H49.8618V18.7676C49.3665 19.3992 48.7299 19.9745 47.6403 19.9745C46.013 19.9745 45.0649 18.9081 45.0649 17.1819Z" fill="#1A3561"/>
<path d="M54.2909 17.7013V14.1367H53.3853V12.3124H54.2909V10.3898H56.4418V12.3124H58.2246V14.1367H56.4418V17.3504C56.4418 17.8416 56.654 18.0802 57.135 18.0802C57.5312 18.0802 57.885 17.9819 58.1964 17.8134V19.5256C57.7436 19.7922 57.22 19.9605 56.4982 19.9605C55.1823 19.9605 54.2909 19.4414 54.2909 17.7013Z" fill="#1A3561"/>
<path d="M59.2158 18.8379L60.1355 17.4347C60.9563 18.0241 61.8194 18.3328 62.5269 18.3328C63.1494 18.3328 63.4325 18.1082 63.4325 17.7714V17.7433C63.4325 17.2802 62.6968 17.1259 61.8619 16.8733C60.8005 16.5645 59.5979 16.0733 59.5979 14.6139V14.5858C59.5979 13.0561 60.8431 12.2001 62.3712 12.2001C63.3334 12.2001 64.3806 12.5228 65.2012 13.0702L64.3806 14.5438C63.6306 14.1087 62.8806 13.8421 62.3288 13.8421C61.8053 13.8421 61.5364 14.0665 61.5364 14.3613V14.3893C61.5364 14.8104 62.2581 15.0068 63.0787 15.2874C64.14 15.6384 65.3711 16.1434 65.3711 17.5188V17.5468C65.3711 19.2168 64.1116 19.9747 62.4703 19.9747C61.4091 19.9747 60.2204 19.6239 59.2158 18.8379Z" fill="#1A3561"/>
<path d="M67.1263 17.7013V14.1367H66.2207V12.3124H67.1263V10.3898H69.2772V12.3124H71.06V14.1367H69.2772V17.3504C69.2772 17.8416 69.4894 18.0802 69.9705 18.0802C70.3666 18.0802 70.7205 17.9819 71.0318 17.8134V19.5256C70.579 19.7922 70.0555 19.9605 69.3337 19.9605C68.0178 19.9605 67.1263 19.4414 67.1263 17.7013Z" fill="#1A3561"/>
<path d="M72.1926 17.673V17.645C72.1926 16.003 73.4519 15.2451 75.249 15.2451C76.0131 15.2451 76.5649 15.3714 77.1027 15.5539V15.4276C77.1027 14.5436 76.5508 14.0524 75.4755 14.0524C74.6547 14.0524 74.0746 14.2067 73.3812 14.4593L72.8435 12.8314C73.6784 12.4665 74.4991 12.2279 75.7866 12.2279C76.9612 12.2279 77.8102 12.5367 78.3479 13.0701C78.9139 13.6313 79.1686 14.4593 79.1686 15.4697V19.8342H77.0886V19.0202C76.5649 19.5956 75.8433 19.9745 74.7962 19.9745C73.3671 19.9745 72.1926 19.1607 72.1926 17.673ZM77.1309 17.1819V16.803C76.7631 16.6345 76.2819 16.5222 75.7584 16.5222C74.8387 16.5222 74.2727 16.8871 74.2727 17.5608V17.5888C74.2727 18.1642 74.7537 18.501 75.4471 18.501C76.4518 18.501 77.1309 17.9537 77.1309 17.1819Z" fill="#1A3561"/>
<path d="M81.391 14.1366H80.4995V12.3825H81.391V11.9053C81.391 11.0774 81.6032 10.4739 81.9994 10.081C82.3956 9.68804 82.9757 9.49158 83.7398 9.49158C84.419 9.49158 84.8718 9.57573 85.2681 9.70204V11.4703C84.9568 11.358 84.6596 11.2879 84.2916 11.2879C83.7965 11.2879 83.5134 11.5405 83.5134 12.1017V12.3965H85.2538V14.1366H83.5418V19.8343H81.391V14.1366Z" fill="#1A3561"/>
<path d="M86.7965 14.1366H85.905V12.3825H86.7965V11.9053C86.7965 11.0774 87.0087 10.4739 87.4049 10.081C87.8011 9.68804 88.3812 9.49158 89.1454 9.49158C89.8245 9.49158 90.2773 9.57573 90.6736 9.70204V11.4703C90.3623 11.358 90.0651 11.2879 89.6971 11.2879C89.202 11.2879 88.9189 11.5405 88.9189 12.1017V12.3965H90.6594V14.1366H88.9473V19.8343H86.7965V14.1366Z" fill="#1A3561"/>
<path d="M91.325 16.1154V16.0874C91.325 13.9401 92.8673 12.172 95.0747 12.172C97.6075 12.172 98.7678 14.1226 98.7678 16.2557C98.7678 16.4241 98.7537 16.6206 98.7396 16.8171H93.4616C93.6738 17.7854 94.3531 18.2906 95.3153 18.2906C96.0369 18.2906 96.5605 18.066 97.1547 17.5187L98.3858 18.5994C97.6783 19.4694 96.6596 20.0026 95.2869 20.0026C93.0088 20.0026 91.325 18.4169 91.325 16.1154ZM96.6737 15.4838C96.5464 14.5295 95.9803 13.884 95.0747 13.884C94.1832 13.884 93.6031 14.5155 93.4334 15.4838H96.6737Z" fill="#1A3561"/>
<path d="M100.368 12.3124H102.518V13.8279C102.957 12.7895 103.665 12.1159 104.938 12.1721V14.4033H104.825C103.396 14.4033 102.518 15.2595 102.518 17.0558V19.8344H100.368V12.3124Z" fill="#1A3561"/>
<path d="M106.481 18.6412H107.415V19.8342H106.481V18.6412Z" fill="#1A3561"/>
<path d="M109.113 16.2837V16.2556C109.113 14.2488 110.726 12.5087 112.792 12.5087C114.151 12.5087 115 13.126 115.679 13.8277L115.184 14.333C114.561 13.7014 113.854 13.1542 112.778 13.1542C111.137 13.1542 109.863 14.5154 109.863 16.2276V16.2556C109.863 17.9817 111.179 19.3571 112.835 19.3571C113.854 19.3571 114.646 18.8377 115.254 18.1642L115.735 18.5853C115 19.4131 114.122 20.0025 112.792 20.0025C110.712 20.0025 109.113 18.2905 109.113 16.2837Z" fill="#1A3561"/>
<path d="M116.981 16.2837V16.2556C116.981 14.2488 118.552 12.5087 120.703 12.5087C122.839 12.5087 124.396 14.2207 124.396 16.2276V16.2556C124.396 18.2625 122.825 20.0025 120.675 20.0025C118.538 20.0025 116.981 18.2905 116.981 16.2837ZM123.646 16.2837V16.2556C123.646 14.5294 122.344 13.1542 120.675 13.1542C118.962 13.1542 117.731 14.5436 117.731 16.2276V16.2556C117.731 17.9817 119.033 19.3571 120.703 19.3571C122.415 19.3571 123.646 17.9677 123.646 16.2837Z" fill="#1A3561"/>
<path d="M126.533 12.677H127.227V13.954C127.694 13.2104 128.345 12.5087 129.632 12.5087C130.892 12.5087 131.67 13.2244 132.066 14.0524C132.533 13.2524 133.311 12.5087 134.67 12.5087C136.382 12.5087 137.443 13.7014 137.443 15.4977V19.8342H136.75V15.582C136.75 14.0384 135.943 13.1402 134.613 13.1402C133.396 13.1402 132.335 14.0664 132.335 15.6662V19.8342H131.642V15.5399C131.642 14.0524 130.821 13.1402 129.533 13.1402C128.246 13.1402 127.227 14.2628 127.227 15.7083V19.8342H126.533V12.677Z" fill="#1A3561"/>
</g>
<defs>
<clipPath id="clip0">
<rect width="137.443" height="21.4545" fill="white"/>
</clipPath>
</defs>
</svg>
