<?xml version="1.0" encoding="UTF-8"?> <svg xmlns="http://www.w3.org/2000/svg" width="110" height="33" viewBox="0 0 110 33" fill="none"><path d="M3.9213 16.6751L12.5397 25.2956L10.6405 27.1926L0 16.5521L8.27606 8.27606L16.5521 0L27.1926 10.6405L25.2956 12.5397L16.6751 3.9213L11.1852 9.409L22.4849 20.7108L20.5879 22.6079L9.28606 11.3082L3.9213 16.6751Z" fill="#501693"></path><path d="M28.3992 20.1793C28.6557 21.1862 28.6133 22.2205 28.2763 23.2592C27.9266 24.3296 27.2652 25.3555 26.3114 26.3093C25.3576 27.2631 24.3296 27.9244 23.2613 28.2742C22.2248 28.6133 21.1862 28.6536 20.1772 28.3929C19.6918 28.2678 19.2149 28.0707 18.7613 27.8079L17.6676 27.1741L16.3132 32.7572L13.8056 30.2497L14.5772 27.3861L15.3318 24.6878L8 17.3624L9.89918 15.4632L18.9839 24.5479C19.4608 25.0248 20.0161 25.3321 20.6351 25.4614C21.2498 25.5886 21.8835 25.5293 22.5173 25.2898C23.1002 25.0672 23.6619 24.6984 24.1897 24.1918C24.7026 23.6788 25.0757 23.1214 25.3004 22.5321C25.542 21.8984 25.5992 21.2646 25.472 20.6499C25.3427 20.031 25.0312 19.4714 24.5458 18.986L15.4611 9.89918L17.3602 8L26.7163 17.356C27.5726 18.2145 28.1385 19.164 28.3992 20.1793Z" fill="#8905C6"></path><path d="M99.0427 7H96.4419V9.60078H99.0427V7Z" fill="#37474F"></path><path d="M106.758 24.4678C105.539 24.4678 104.655 24.3343 104.104 24.0693C103.555 23.8023 103.187 23.3084 102.998 22.5877C102.809 21.867 102.714 20.7076 102.714 19.1115C102.714 17.5833 102.807 16.4578 102.998 15.7371C103.187 15.0164 103.551 14.5141 104.092 14.2301C104.632 13.946 105.495 13.8061 106.68 13.8061C107.676 13.8061 108.706 13.9015 109.77 14.0902V12.6742C109.342 12.5895 108.804 12.5153 108.161 12.4559C107.517 12.3966 106.902 12.3648 106.319 12.3648C104.878 12.3648 103.786 12.5746 103.049 12.9964C102.311 13.4182 101.809 14.1008 101.542 15.044C101.275 15.9893 101.143 17.3544 101.143 19.1391C101.143 20.9259 101.256 22.2761 101.478 23.196C101.701 24.1138 102.182 24.7964 102.92 25.2436C103.657 25.6908 104.825 25.9134 106.423 25.9134C107.023 25.9134 107.651 25.8837 108.303 25.8223C108.956 25.7629 109.488 25.6802 109.899 25.5785V24.188C108.835 24.3746 107.788 24.4678 106.758 24.4678Z" fill="#37474F"></path><path d="M49.0662 15.1966H48.9369L48.833 12.5704H47.468V25.7057H49.0386V19.4973C49.0386 18.2107 49.1637 17.1763 49.4117 16.3942C49.6597 15.612 50.1069 15.0249 50.7513 14.6307C51.3957 14.2364 52.3177 14.0393 53.5195 14.0393V12.3648C52.3177 12.3648 51.3469 12.5704 50.6093 12.9837C49.8738 13.3928 49.3587 14.1325 49.0662 15.1966Z" fill="#37474F"></path><path d="M43.2204 12.9815C42.4997 12.5703 41.3402 12.3626 39.7442 12.3626C37.9573 12.3626 36.6665 12.5767 35.8674 13.007C35.0683 13.4351 34.5575 14.0986 34.3349 14.9909C34.1123 15.8833 34 17.2738 34 19.1623C34 21.0509 34.1293 22.4499 34.3858 23.3592C34.6422 24.2706 35.1743 24.9213 35.9818 25.3156C36.7894 25.7098 38.0506 25.9091 39.7675 25.9091C40.609 25.9091 41.4547 25.8794 42.3047 25.8179C43.1546 25.7586 43.8372 25.6675 44.3522 25.5466V24.1562C43.7672 24.2431 43.072 24.3151 42.2665 24.3745C41.4589 24.4338 40.7298 24.4635 40.077 24.4635C38.6695 24.4635 37.6606 24.3385 37.0501 24.0905C36.4397 23.8425 36.0412 23.4037 35.8525 22.7763C35.6639 22.1489 35.5685 21.1251 35.5685 19.6986H44.8673V19.1327C44.8673 17.2271 44.7719 15.8282 44.5833 14.9337C44.3967 14.0456 43.941 13.3927 43.2204 12.9815ZM43.3497 18.4417H35.5706C35.5876 17.0342 35.683 16.0211 35.8547 15.4021C36.0264 14.7832 36.3867 14.3635 36.9357 14.141C37.4847 13.9184 38.394 13.8061 39.6657 13.8061C40.6959 13.8061 41.4589 13.9014 41.9571 14.0901C42.4552 14.2787 42.8113 14.6687 43.0253 15.2622C43.2394 15.8536 43.3475 16.7947 43.3475 18.0835V18.4417H43.3497Z" fill="#37474F"></path><path d="M72.1424 12.8778C71.5404 12.5345 70.6481 12.3628 69.4632 12.3628C68.2275 12.3628 67.2864 12.5557 66.6441 12.9414C65.9998 13.3272 65.5589 13.8656 65.3172 14.5502H65.1625C64.94 13.7766 64.5309 13.2191 63.9395 12.8757C63.3481 12.5323 62.4494 12.3606 61.2476 12.3606C60.0118 12.3606 59.0834 12.5535 58.4666 12.9393C57.8477 13.3251 57.4195 13.8635 57.1779 14.5481H57.0486L56.9723 12.5641H55.5818V25.6994H57.1525V18.906C57.1525 17.6873 57.216 16.7419 57.3453 16.0721C57.4746 15.4023 57.7926 14.866 58.2992 14.4633C58.8058 14.0606 59.6006 13.8571 60.6816 13.8571C61.6439 13.8571 62.3349 13.9525 62.7546 14.1411C63.1743 14.3298 63.4626 14.7028 63.6173 15.2624C63.772 15.8199 63.8484 16.7355 63.8484 18.0052V25.7058H65.419V18.906C65.419 17.6173 65.4783 16.6444 65.5992 15.9831C65.72 15.3218 66.0273 14.8024 66.5254 14.4252C67.0235 14.0479 67.8226 13.8592 68.9206 13.8592C69.8829 13.8592 70.5739 13.9546 70.9936 14.1432C71.4133 14.3319 71.7015 14.7049 71.8563 15.2645C72.011 15.822 72.0873 16.7377 72.0873 18.0073V25.7079H73.6622V17.4626C73.6622 16.176 73.5583 15.1755 73.3527 14.4633C73.1471 13.7511 72.7444 13.2233 72.1424 12.8778Z" fill="#37474F"></path><path d="M85.4832 12.9815C84.7626 12.5703 83.6031 12.3625 82.0071 12.3625C80.2202 12.3625 78.9294 12.5766 78.1303 13.0069C77.3312 13.4351 76.8204 14.0985 76.5978 14.9909C76.3752 15.8832 76.2629 17.2737 76.2629 19.1623C76.2629 21.0509 76.3922 22.4498 76.6487 23.3591C76.9051 24.2706 77.4393 24.9213 78.2447 25.3155C79.0523 25.7098 80.3135 25.909 82.0304 25.909C82.8719 25.909 83.7176 25.8794 84.5676 25.8179C85.4175 25.7585 86.1001 25.6674 86.6151 25.5466V24.1561C86.0322 24.243 85.3349 24.3151 84.5294 24.3744C83.7218 24.4338 82.9927 24.4635 82.3399 24.4635C80.9324 24.4635 79.9235 24.3384 79.313 24.0904C78.7026 23.8424 78.3041 23.4036 78.1154 22.7762C77.9268 22.1488 77.8314 21.1251 77.8314 19.6985H87.1281V19.1326C87.1281 17.2271 87.0327 15.8281 86.8441 14.9336C86.6596 14.0455 86.206 13.3927 85.4832 12.9815ZM85.6125 18.4416H77.8335C77.8505 17.0342 77.9459 16.021 78.1176 15.4021C78.2893 14.7831 78.6496 14.3635 79.1986 14.1409C79.7476 13.9183 80.6569 13.806 81.9286 13.806C82.9588 13.806 83.7218 13.9014 84.22 14.09C84.7181 14.2787 85.0742 14.6687 85.2882 15.2622C85.5023 15.8536 85.6104 16.7947 85.6104 18.0834V18.4416H85.6125Z" fill="#37474F"></path><path d="M98.5149 12.5703H96.9442V25.7056H98.5149V12.5703Z" fill="#37474F"></path><path d="M92.2322 8.75711H90.6616V12.5703H87.957V14.0117H90.6616V25.7056H92.2322V14.0117H95.4011V12.5703H92.2322V8.75711Z" fill="#37474F"></path></svg> 