<?xml version="1.0" encoding="UTF-8"?>
<svg width="80px" height="80px" viewBox="0 0 80 80" version="1.1" xmlns="http://www.w3.org/2000/svg" xmlns:xlink="http://www.w3.org/1999/xlink">
    <!-- Generator: Sketch 61.2 (89653) - https://sketch.com -->
    <title>logo-sultan_icon</title>
    <desc>Created with Sketch.</desc>
    <g id="Page-1" stroke="none" stroke-width="1" fill="none" fill-rule="evenodd">
        <g id="logo-sultan_icon" fill-rule="nonzero">
            <rect id="Rectangle-2" fill="#4A2F5B" x="0" y="0" width="80" height="80"></rect>
            <g id="Group-8" transform="translate(15.000000, 14.000000)" fill="#FFFFFF">
                <path d="M6.55113846,10.7219253 C3.43919661,8.56132182 3.82220226,7.02606044 3.45552719,7.71779424 C1.79876463,10.8432826 3.50261128,16.7853788 8.36911958,22.1218174 C11.6134584,25.6794431 16.6460616,28.1654357 23.4669291,31.4719997 C34.2203154,35.8711001 40.6171204,39.7742135 42.6746321,41.2027321 C45.786574,43.3633356 45.4035683,44.898597 45.7702434,44.2068632 C47.427006,41.0813748 45.7231593,35.1392787 40.856651,29.8028401 C37.6123122,26.2452143 32.579709,23.7592217 25.7588415,20.4526577 C15.0054553,16.0535573 8.60865015,12.1504439 6.55113846,10.7219253 Z" id="Combined-Shape"></path>
                <path d="M34.8366992,0 C43.8858416,0.00153237996 48.5523408,0.00153237996 48.8361968,0 C49.1200529,-0.00151706127 49.242743,0.224599006 49.2042672,0.678355862 C49.1812838,1.08206569 49.0585937,1.28392061 48.8361968,1.28392061 C46.7468799,1.28392061 46.2162427,2.83822311 46.2162427,4.55891465 L46.2162427,14.7333333 C45.4972146,10.8771328 44.0997762,7.61780492 42.0239278,4.95534967 C39.9480793,2.29289442 37.5523364,0.641113749 34.8366992,0 Z" id="Rectangle-3"></path>
                <path d="M14.3744571,52 C5.32531474,51.9984676 0.658815534,51.9984676 0.374959495,52 C0.0911034572,52.0015171 -0.0315866723,51.775401 0.00688910702,51.3216441 C0.0298725133,50.9179343 0.152562643,50.7160794 0.374959495,50.7160794 C2.46427638,50.7160794 2.99491358,49.1617769 2.99491358,47.4410854 L2.99491358,37.2666667 C3.71394174,41.1228672 5.11138006,44.3821951 7.18722856,47.0446503 C9.26307705,49.7071056 11.6588199,51.3588863 14.3744571,52 Z" id="Rectangle-3"></path>
            </g>
        </g>
    </g>
</svg>