<svg xmlns="http://www.w3.org/2000/svg" xmlns:xlink="http://www.w3.org/1999/xlink" viewBox="0 0 573.87 67.92"><defs><style>.cls-1{fill:#fff;}.cls-2{fill:url(#New_Gradient_Swatch_2);}</style><linearGradient id="New_Gradient_Swatch_2" x1="48.41" y1="12.93" x2="6.96" y2="12.93" gradientUnits="userSpaceOnUse"><stop offset="0" stop-color="#f1562c"/><stop offset="1" stop-color="#f68b27"/></linearGradient></defs><g id="Layer_2" data-name="Layer 2"><g id="Layer_1-2" data-name="Layer 1"><path class="cls-1" d="M218.6,7.46V32.6l23.7-30a6.41,6.41,0,0,1,5-2.52h13.41L234.58,33.16,261,67.8H246.62a6.39,6.39,0,0,1-5.14-2.71l-22.88-31V67.79h-7c-3.68,0-6.66-3.32-6.66-7.42V0h7c3.68,0,6.66,3.33,6.66,7.42Z"/><path class="cls-1" d="M143.72,11.86h23.82s5.4-.18,8.41,1.25c2.4,1.14,3.76,3.57,3.76,7.59,0,3.19-.76,5.33-2.35,6.51a25,25,0,0,1,4.36,5c.7,1,1.68,2.72,3,5.11.08.15.2.27.29.41a14.52,14.52,0,0,0,5.48-5,22,22,0,0,0,3.13-12.22c0-.44-.43-6.61-1.59-9.44a17.32,17.32,0,0,0-3.68-5.76A14,14,0,0,0,182,1.45,36.57,36.57,0,0,0,170.81,0H137V4.77a6.77,6.77,0,0,0,6.68,7.09Z"/><path class="cls-1" d="M177.72,35.39c-3.38-5.12-6.77-6.23-8.85-6.37s-18.13,0-18.13,0V24.43c0-4.09-3-7.42-6.66-7.42h-7V60.39c0,4.09,3,7.42,6.66,7.42h7V40.9H166.9L180.27,66a3.28,3.28,0,0,0,2.86,1.81h13.54l-16-27.38C180.63,40.29,178.32,36.29,177.72,35.39Z"/><path class="cls-1" d="M522.7,17.16a24.79,24.79,0,0,1,7.62-11.28A21.88,21.88,0,0,1,540,1.07a53.86,53.86,0,0,1,10.67-1h16.48c3.68,0,6.67,3.32,6.67,7.42v4.43H551.29s-4.75,0-7.24.23c0,0-7.41.6-12.83,3.56-5.25,2.87-7.91,5.25-10.75,9.27C520.47,24.94,521.83,19.77,522.7,17.16Z"/><path class="cls-1" d="M493.36,67.81c-9.86,0-17.27-2.65-22.2-7.68-3.89-4-6.44-9.74-7.67-17.25.12.18.32.56.44.73,4.4,6.32,12.74,11.31,25.08,12.21,1.83.17,8.91.19,10.38.2h10.07c3.68,0,6.66,3.32,6.66,7.42l0,4.36Z"/><path class="cls-1" d="M89.56,29.58,77.65,63.18a6.7,6.7,0,0,1-6.17,4.63H62.37L87.22.07h16.41c-2,1.88-4.72,4.52-9.89,17.76C92.57,21.13,91.61,23.62,89.56,29.58Z"/><path class="cls-1" d="M127.05,57.31,105.66,5.1a71.4,71.4,0,0,0-7.45,15.24l7.29,19.15H95.9a6.8,6.8,0,0,0-6.39,5.31l-2.34,6.85h22.89l6,16.16H121c4.85,0,8.08-5.59,6.07-10.5Z"/><path class="cls-1" d="M285.22,17.15V67.81h7.49c3.68,0,6.67-3.33,6.67-7.42V17H285.21Z"/><path class="cls-1" d="M270.91.14c-3.68,0-6.66,3.32-6.66,7.42v4.32h49.61c3.68,0,6.66-3.27,6.66-7.37V.14Z"/><path class="cls-2" d="M13.63,11.88s15.25,0,15.94,0,3.39.2,4.82.36c17.4,2,23.27,9.78,25.78,13.55-1.18-7.91-4-13.95-8-18.08Q44.78.18,29.84.07H0v11.8Z"/><path class="cls-1" d="M421.18,29.58l-11.91,33.6a6.7,6.7,0,0,1-6.17,4.63H394L418.84.07h16.41c-2,1.88-4.72,4.52-9.89,17.76C424.19,21.13,423.06,23.94,421.18,29.58Z"/><path class="cls-1" d="M458.67,57.31,437.28,5.1a71.4,71.4,0,0,0-7.45,15.24l7.29,19.15h-9.43a6.8,6.8,0,0,0-6.39,5.31l-1.83,6.85h22.21l6.05,16.16h4.87c4.85,0,8.08-5.59,6.07-10.5Z"/><path class="cls-1" d="M335.15,11.83H359s5.4-.18,8.4,1.25c2.41,1.14,3.77,3.56,3.77,7.59.05,3.19-.76,5.32-2.35,6.51a24.47,24.47,0,0,1,4.35,5c.7,1.05,1.68,2.72,3,5.1.08.15.2.28.29.42a14.57,14.57,0,0,0,5.47-5A21.9,21.9,0,0,0,385,20.49c0-.44-.42-6.62-1.59-9.44a17,17,0,0,0-3.68-5.76,14,14,0,0,0-6.31-3.87A36.59,36.59,0,0,0,362.23,0H328.47V4.73a6.78,6.78,0,0,0,6.68,7.1Z"/><path class="cls-1" d="M369.14,35.36c-3.38-5.12-6.76-6.23-8.85-6.38s-18.12,0-18.12,0V24.4c0-4.1-3-7.42-6.66-7.42h-7V60.35c0,4.1,3,7.42,6.66,7.42h7V40.9h16.16L371.7,66a3.26,3.26,0,0,0,2.86,1.8H388.1l-16-27.37C372.05,40.26,369.75,36.26,369.14,35.36Z"/><path class="cls-1" d="M53.36,25.33a25.2,25.2,0,0,1,2.4,3.13,25,25,0,0,1,4.29,14A25.28,25.28,0,0,1,34.82,67.72l-4.58.09H6.67C3,67.81,0,64.48,0,60.39V17H13.72V56H29.61a32.3,32.3,0,0,0,6.67-.51,9.14,9.14,0,0,0,5-3.17,15.26,15.26,0,0,0,3-5.95,44.36,44.36,0,0,0,1.13-6.7,78.63,78.63,0,0,0,.1-8.64,51.8,51.8,0,0,0-1.23-9.57,13.78,13.78,0,0,0-.7-2,24.34,24.34,0,0,1,9.57,5.67Z"/><path class="cls-1" d="M488.87,12.18l1-.14a22.7,22.7,0,0,1,2.95-.16l23.34-.07V7.43c0-4.09-3-7.42-6.66-7.42H493a54.26,54.26,0,0,0-9.47.81l-.15,0a24.82,24.82,0,0,0-20.76,24.39,24.43,24.43,0,0,0,4.31,13.88c4.51,6.55,9.35,8.61,14.1,10.14h0l0-.05a34.83,34.83,0,0,1-3.43-11.67c-1.56-12.87,3.48-24.22,11.27-25.35"/><path class="cls-1" d="M573.87,36.62c0-4.1-3-7.42-6.67-7.42l-32.42,0a34.38,34.38,0,0,1,3.27-10.54l0,0h0l-.42.14a21.39,21.39,0,0,0-2.9,1.06A23.36,23.36,0,0,0,524,28.74a24.37,24.37,0,0,0-4.32,13.88,24.73,24.73,0,0,0,15.06,22.69,19.84,19.84,0,0,0,4.66,1.57,53,53,0,0,0,10.66,1H566.5c3.47,0,6.32-3,6.63-6.73,0-.25,0-.51,0-.77V56.05L549.83,56a22.76,22.76,0,0,1-3-.16l-1-.15h0c-5.5-.8-9.63-6.71-11-14.66h39Z"/></g></g></svg>