<?xml version="1.0" encoding="UTF-8"?><svg id="Layer_1" xmlns="http://www.w3.org/2000/svg" viewBox="0 0 720 165.6"><defs><style>.cls-1{font-family:DMSans-Bold, 'DM Sans';font-size:99.21px;font-weight:700;letter-spacing:.08em;}.cls-1,.cls-2,.cls-3{fill:#375dbf;}.cls-2{font-family:DMSans-Regular, 'DM Sans';font-size:80.42px;}.cls-3,.cls-4{stroke-width:0px;}.cls-4{fill:#fff;}</style></defs><rect class="cls-4" x="17.47" y="6.82" width="626.32" height="150.24"/><path class="cls-3" d="M643.99.96H5.62C2.52.96,0,3.48,0,6.58v152.44c0,3.1,2.52,5.62,5.62,5.62h638.37c3.09,0,5.61-2.52,5.61-5.62V6.58c0-3.1-2.52-5.62-5.61-5.62ZM134.34,90.5c-.55,3.51-1.44,7.07-2.65,10.6l-.05.13h-31.08c-4.89,4.98-11.68,7.94-19.07,7.94-14.7,0-26.65-11.95-26.65-26.65s11.95-26.71,26.65-26.71c12.81,0,23.06,7.94,26.12,20.23l.06.24-14.67-.05-.06-.11c-2.51-5.24-7.9-7.75-13.72-6.43-5.16,1.17-10.36,5.59-10.36,12.82,0,6.01,3.7,10.86,9.43,12.38,4.59,1.21,11.37.12,15.39-6.92l.09-.14h27.27c.3-1.78,2.58-18.04-8.92-31.01-.13-.14-.26-.3-.39-.45-.38-.43-.77-.87-1.17-1.29-1.39-1.42-2.97-2.79-4.67-4.05-2.39-1.79-4.97-3.31-7.65-4.54-4.64-2.12-9.68-3.36-14.6-3.6-2.64-.12-5.31.03-7.93.46-3.04.5-5.98,1.29-8.75,2.33-7.56,2.85-14.19,8.22-18.65,15.12-3.75,5.8-5.94,12.67-6.34,19.84-.13,2.4-.07,4.88.19,7.36,0,.08,1.11,8.22,6.52,16.42,4.98,7.55,14.75,16.69,32.99,17.31.14.02,13.23,1.01,25.11-8.82l.06-.05h18.59l-.19.31c-.04.06-3.75,5.76-10.99,11.34-6.56,5.05-17.44,11.01-32.2,11.01-.28,0-.55,0-.82,0-.06,0-6.7.17-15.23-2.43-7.88-2.4-19.05-7.72-27.51-19.43-.07-.08-8.52-9.99-10.2-25.91-.03-.2-2.55-21.21,11.81-38.94.16-.19,16.22-20.35,41.14-19.44l.66.03c2.47.09,4.79.17,7.21.52,6.36.93,12.38,2.83,17.89,5.66,7.61,3.9,14.11,9.59,18.81,16.43,3.06,4.46,5.43,9.42,7.01,14.73,2.25,7.53,2.77,15.76,1.52,23.76ZM637.73,152.8H163.56V12.5h474.17v140.3Z"/><text class="cls-1" transform="translate(193.85 117.52)"><tspan x="0" y="0">ENLITIC</tspan></text><text class="cls-2" transform="translate(661.97 57.26)"><tspan x="0" y="0">™</tspan></text></svg>